G75*
%MOIN*%
%OFA0B0*%
%FSLAX24Y24*%
%IPPOS*%
%LPD*%
%AMOC8*
5,1,8,0,0,1.08239X$1,22.5*
%
%ADD10C,0.0000*%
%ADD11C,0.0100*%
%ADD12C,0.0050*%
%ADD13C,0.0080*%
%ADD14C,0.0160*%
%ADD15C,0.0060*%
%ADD16C,0.0030*%
%ADD17C,0.0040*%
%ADD18R,0.0118X0.0059*%
%ADD19R,0.0118X0.0118*%
D10*
X000437Y001700D02*
X020837Y001700D01*
X020837Y018700D01*
X003637Y018700D01*
X003637Y015900D01*
X000437Y015900D01*
X000437Y001700D01*
X001937Y012700D02*
X001939Y012744D01*
X001945Y012788D01*
X001955Y012831D01*
X001968Y012873D01*
X001985Y012914D01*
X002006Y012953D01*
X002030Y012990D01*
X002057Y013025D01*
X002087Y013057D01*
X002120Y013087D01*
X002156Y013113D01*
X002193Y013137D01*
X002233Y013156D01*
X002274Y013173D01*
X002317Y013185D01*
X002360Y013194D01*
X002404Y013199D01*
X002448Y013200D01*
X002492Y013197D01*
X002536Y013190D01*
X002579Y013179D01*
X002621Y013165D01*
X002661Y013147D01*
X002700Y013125D01*
X002736Y013101D01*
X002770Y013073D01*
X002802Y013042D01*
X002831Y013008D01*
X002857Y012972D01*
X002879Y012934D01*
X002898Y012894D01*
X002913Y012852D01*
X002925Y012810D01*
X002933Y012766D01*
X002937Y012722D01*
X002937Y012678D01*
X002933Y012634D01*
X002925Y012590D01*
X002913Y012548D01*
X002898Y012506D01*
X002879Y012466D01*
X002857Y012428D01*
X002831Y012392D01*
X002802Y012358D01*
X002770Y012327D01*
X002736Y012299D01*
X002700Y012275D01*
X002661Y012253D01*
X002621Y012235D01*
X002579Y012221D01*
X002536Y012210D01*
X002492Y012203D01*
X002448Y012200D01*
X002404Y012201D01*
X002360Y012206D01*
X002317Y012215D01*
X002274Y012227D01*
X002233Y012244D01*
X002193Y012263D01*
X002156Y012287D01*
X002120Y012313D01*
X002087Y012343D01*
X002057Y012375D01*
X002030Y012410D01*
X002006Y012447D01*
X001985Y012486D01*
X001968Y012527D01*
X001955Y012569D01*
X001945Y012612D01*
X001939Y012656D01*
X001937Y012700D01*
X004810Y017601D02*
X004812Y017644D01*
X004818Y017686D01*
X004828Y017728D01*
X004841Y017769D01*
X004859Y017808D01*
X004880Y017846D01*
X004904Y017881D01*
X004931Y017914D01*
X004962Y017945D01*
X004995Y017972D01*
X005030Y017996D01*
X005068Y018017D01*
X005107Y018035D01*
X005148Y018048D01*
X005190Y018058D01*
X005232Y018064D01*
X005275Y018066D01*
X005318Y018064D01*
X005360Y018058D01*
X005402Y018048D01*
X005443Y018035D01*
X005482Y018017D01*
X005520Y017996D01*
X005555Y017972D01*
X005588Y017945D01*
X005619Y017914D01*
X005646Y017881D01*
X005670Y017846D01*
X005691Y017808D01*
X005709Y017769D01*
X005722Y017728D01*
X005732Y017686D01*
X005738Y017644D01*
X005740Y017601D01*
X005738Y017558D01*
X005732Y017516D01*
X005722Y017474D01*
X005709Y017433D01*
X005691Y017394D01*
X005670Y017356D01*
X005646Y017321D01*
X005619Y017288D01*
X005588Y017257D01*
X005555Y017230D01*
X005520Y017206D01*
X005482Y017185D01*
X005443Y017167D01*
X005402Y017154D01*
X005360Y017144D01*
X005318Y017138D01*
X005275Y017136D01*
X005232Y017138D01*
X005190Y017144D01*
X005148Y017154D01*
X005107Y017167D01*
X005068Y017185D01*
X005030Y017206D01*
X004995Y017230D01*
X004962Y017257D01*
X004931Y017288D01*
X004904Y017321D01*
X004880Y017356D01*
X004859Y017394D01*
X004841Y017433D01*
X004828Y017474D01*
X004818Y017516D01*
X004812Y017558D01*
X004810Y017601D01*
X009534Y017601D02*
X009536Y017644D01*
X009542Y017686D01*
X009552Y017728D01*
X009565Y017769D01*
X009583Y017808D01*
X009604Y017846D01*
X009628Y017881D01*
X009655Y017914D01*
X009686Y017945D01*
X009719Y017972D01*
X009754Y017996D01*
X009792Y018017D01*
X009831Y018035D01*
X009872Y018048D01*
X009914Y018058D01*
X009956Y018064D01*
X009999Y018066D01*
X010042Y018064D01*
X010084Y018058D01*
X010126Y018048D01*
X010167Y018035D01*
X010206Y018017D01*
X010244Y017996D01*
X010279Y017972D01*
X010312Y017945D01*
X010343Y017914D01*
X010370Y017881D01*
X010394Y017846D01*
X010415Y017808D01*
X010433Y017769D01*
X010446Y017728D01*
X010456Y017686D01*
X010462Y017644D01*
X010464Y017601D01*
X010462Y017558D01*
X010456Y017516D01*
X010446Y017474D01*
X010433Y017433D01*
X010415Y017394D01*
X010394Y017356D01*
X010370Y017321D01*
X010343Y017288D01*
X010312Y017257D01*
X010279Y017230D01*
X010244Y017206D01*
X010206Y017185D01*
X010167Y017167D01*
X010126Y017154D01*
X010084Y017144D01*
X010042Y017138D01*
X009999Y017136D01*
X009956Y017138D01*
X009914Y017144D01*
X009872Y017154D01*
X009831Y017167D01*
X009792Y017185D01*
X009754Y017206D01*
X009719Y017230D01*
X009686Y017257D01*
X009655Y017288D01*
X009628Y017321D01*
X009604Y017356D01*
X009583Y017394D01*
X009565Y017433D01*
X009552Y017474D01*
X009542Y017516D01*
X009536Y017558D01*
X009534Y017601D01*
X014937Y015700D02*
X014939Y015744D01*
X014945Y015788D01*
X014955Y015831D01*
X014968Y015873D01*
X014985Y015914D01*
X015006Y015953D01*
X015030Y015990D01*
X015057Y016025D01*
X015087Y016057D01*
X015120Y016087D01*
X015156Y016113D01*
X015193Y016137D01*
X015233Y016156D01*
X015274Y016173D01*
X015317Y016185D01*
X015360Y016194D01*
X015404Y016199D01*
X015448Y016200D01*
X015492Y016197D01*
X015536Y016190D01*
X015579Y016179D01*
X015621Y016165D01*
X015661Y016147D01*
X015700Y016125D01*
X015736Y016101D01*
X015770Y016073D01*
X015802Y016042D01*
X015831Y016008D01*
X015857Y015972D01*
X015879Y015934D01*
X015898Y015894D01*
X015913Y015852D01*
X015925Y015810D01*
X015933Y015766D01*
X015937Y015722D01*
X015937Y015678D01*
X015933Y015634D01*
X015925Y015590D01*
X015913Y015548D01*
X015898Y015506D01*
X015879Y015466D01*
X015857Y015428D01*
X015831Y015392D01*
X015802Y015358D01*
X015770Y015327D01*
X015736Y015299D01*
X015700Y015275D01*
X015661Y015253D01*
X015621Y015235D01*
X015579Y015221D01*
X015536Y015210D01*
X015492Y015203D01*
X015448Y015200D01*
X015404Y015201D01*
X015360Y015206D01*
X015317Y015215D01*
X015274Y015227D01*
X015233Y015244D01*
X015193Y015263D01*
X015156Y015287D01*
X015120Y015313D01*
X015087Y015343D01*
X015057Y015375D01*
X015030Y015410D01*
X015006Y015447D01*
X014985Y015486D01*
X014968Y015527D01*
X014955Y015569D01*
X014945Y015612D01*
X014939Y015656D01*
X014937Y015700D01*
X014937Y007700D02*
X014939Y007744D01*
X014945Y007788D01*
X014955Y007831D01*
X014968Y007873D01*
X014985Y007914D01*
X015006Y007953D01*
X015030Y007990D01*
X015057Y008025D01*
X015087Y008057D01*
X015120Y008087D01*
X015156Y008113D01*
X015193Y008137D01*
X015233Y008156D01*
X015274Y008173D01*
X015317Y008185D01*
X015360Y008194D01*
X015404Y008199D01*
X015448Y008200D01*
X015492Y008197D01*
X015536Y008190D01*
X015579Y008179D01*
X015621Y008165D01*
X015661Y008147D01*
X015700Y008125D01*
X015736Y008101D01*
X015770Y008073D01*
X015802Y008042D01*
X015831Y008008D01*
X015857Y007972D01*
X015879Y007934D01*
X015898Y007894D01*
X015913Y007852D01*
X015925Y007810D01*
X015933Y007766D01*
X015937Y007722D01*
X015937Y007678D01*
X015933Y007634D01*
X015925Y007590D01*
X015913Y007548D01*
X015898Y007506D01*
X015879Y007466D01*
X015857Y007428D01*
X015831Y007392D01*
X015802Y007358D01*
X015770Y007327D01*
X015736Y007299D01*
X015700Y007275D01*
X015661Y007253D01*
X015621Y007235D01*
X015579Y007221D01*
X015536Y007210D01*
X015492Y007203D01*
X015448Y007200D01*
X015404Y007201D01*
X015360Y007206D01*
X015317Y007215D01*
X015274Y007227D01*
X015233Y007244D01*
X015193Y007263D01*
X015156Y007287D01*
X015120Y007313D01*
X015087Y007343D01*
X015057Y007375D01*
X015030Y007410D01*
X015006Y007447D01*
X014985Y007486D01*
X014968Y007527D01*
X014955Y007569D01*
X014945Y007612D01*
X014939Y007656D01*
X014937Y007700D01*
D11*
X015553Y003038D02*
X015620Y003038D01*
X015687Y002971D01*
X015687Y002771D01*
X015687Y002971D02*
X015754Y003038D01*
X015820Y003038D01*
X015887Y002971D01*
X015887Y002771D01*
X015487Y002771D01*
X015487Y002971D01*
X015553Y003038D01*
X015553Y002577D02*
X015487Y002511D01*
X015487Y002377D01*
X015553Y002310D01*
X015620Y002310D01*
X015687Y002377D01*
X015687Y002511D01*
X015754Y002577D01*
X015820Y002577D01*
X015887Y002511D01*
X015887Y002377D01*
X015820Y002310D01*
X015820Y002117D02*
X015487Y002117D01*
X015487Y001850D02*
X015820Y001850D01*
X015887Y001917D01*
X015887Y002050D01*
X015820Y002117D01*
X019987Y002150D02*
X019987Y001950D01*
X020387Y001950D01*
X020254Y001950D02*
X020254Y002150D01*
X020187Y002217D01*
X020053Y002217D01*
X019987Y002150D01*
X019987Y002410D02*
X020387Y002410D01*
X020254Y002544D01*
X020387Y002677D01*
X019987Y002677D01*
X019987Y002871D02*
X019987Y003071D01*
X020053Y003138D01*
X020187Y003138D01*
X020254Y003071D01*
X020254Y002871D01*
X020387Y002871D02*
X019987Y002871D01*
X020254Y003004D02*
X020387Y003138D01*
X020487Y009150D02*
X020087Y009150D01*
X020087Y009350D01*
X020153Y009417D01*
X020220Y009417D01*
X020287Y009350D01*
X020287Y009150D01*
X020487Y009150D02*
X020487Y009350D01*
X020420Y009417D01*
X020354Y009417D01*
X020287Y009350D01*
X020287Y009610D02*
X020287Y009877D01*
X020220Y009877D02*
X020087Y009744D01*
X020220Y009610D01*
X020487Y009610D01*
X020487Y009877D02*
X020220Y009877D01*
X020087Y010071D02*
X020087Y010338D01*
X020087Y010204D02*
X020487Y010204D01*
X020487Y010665D02*
X020087Y010665D01*
X020087Y010798D02*
X020087Y010531D01*
X020087Y010992D02*
X020487Y010992D01*
X020487Y011258D01*
X020487Y011452D02*
X020087Y011452D01*
X020087Y011652D01*
X020153Y011719D01*
X020287Y011719D01*
X020354Y011652D01*
X020354Y011452D01*
X020354Y011585D02*
X020487Y011719D01*
X020487Y012046D02*
X020287Y012046D01*
X020153Y012179D01*
X020087Y012179D01*
X020287Y012046D02*
X020153Y011912D01*
X020087Y011912D01*
X020087Y011258D02*
X020087Y010992D01*
X020287Y010992D02*
X020287Y011125D01*
X016131Y016450D02*
X015997Y016450D01*
X015931Y016517D01*
X015931Y016583D01*
X015997Y016650D01*
X016131Y016650D01*
X016197Y016583D01*
X016197Y016517D01*
X016131Y016450D01*
X016131Y016650D02*
X016197Y016717D01*
X016197Y016784D01*
X016131Y016850D01*
X015997Y016850D01*
X015931Y016784D01*
X015931Y016717D01*
X015997Y016650D01*
X015737Y016450D02*
X015470Y016450D01*
X015604Y016450D02*
X015604Y016850D01*
X015470Y016717D01*
X015277Y016784D02*
X015277Y016517D01*
X015210Y016450D01*
X015076Y016450D01*
X015010Y016517D01*
X015277Y016784D01*
X015210Y016850D01*
X015076Y016850D01*
X015010Y016784D01*
X015010Y016517D01*
X014816Y016450D02*
X014549Y016450D01*
X014816Y016717D01*
X014816Y016784D01*
X014750Y016850D01*
X014616Y016850D01*
X014549Y016784D01*
X014356Y016850D02*
X014089Y016450D01*
X013829Y016450D02*
X013829Y016850D01*
X013629Y016650D01*
X013895Y016650D01*
X013435Y016450D02*
X013168Y016450D01*
X013302Y016450D02*
X013302Y016850D01*
X013168Y016717D01*
X012975Y016850D02*
X012708Y016450D01*
X012514Y016517D02*
X012448Y016450D01*
X012314Y016450D01*
X012247Y016517D01*
X012381Y016650D02*
X012448Y016650D01*
X012514Y016583D01*
X012514Y016517D01*
X012448Y016650D02*
X012514Y016717D01*
X012514Y016784D01*
X012448Y016850D01*
X012314Y016850D01*
X012247Y016784D01*
X012054Y016784D02*
X011787Y016517D01*
X011854Y016450D01*
X011987Y016450D01*
X012054Y016517D01*
X012054Y016784D01*
X011987Y016850D01*
X011854Y016850D01*
X011787Y016784D01*
X011787Y016517D01*
X011318Y016430D02*
X011318Y016892D01*
X011318Y017286D02*
X011318Y017748D01*
X011318Y018142D02*
X011318Y018605D01*
X010850Y018605D01*
X010456Y018605D02*
X009988Y018605D01*
X009595Y018605D02*
X009127Y018605D01*
X008733Y018605D02*
X008265Y018605D01*
X007871Y018605D02*
X007403Y018605D01*
X007009Y018605D02*
X006541Y018605D01*
X006148Y018605D02*
X005679Y018605D01*
X005286Y018605D02*
X004818Y018605D01*
X004424Y018605D02*
X003956Y018605D01*
X003956Y018142D01*
X003956Y017748D02*
X003956Y017286D01*
X003956Y016892D02*
X003956Y016430D01*
X003956Y016036D02*
X003956Y015573D01*
X003956Y015180D02*
X003956Y014717D01*
X003956Y014323D02*
X003956Y013861D01*
X004424Y013861D01*
X004818Y013861D02*
X005286Y013861D01*
X005679Y013861D02*
X006148Y013861D01*
X006541Y013861D02*
X007009Y013861D01*
X007403Y013861D02*
X007871Y013861D01*
X008265Y013861D02*
X008733Y013861D01*
X009127Y013861D02*
X009595Y013861D01*
X009988Y013861D02*
X010456Y013861D01*
X010850Y013861D02*
X011318Y013861D01*
X011318Y014323D01*
X011318Y014717D02*
X011318Y015180D01*
X011318Y015573D02*
X011318Y016036D01*
X011887Y017250D02*
X011887Y017650D01*
X012087Y017650D01*
X012154Y017584D01*
X012154Y017450D01*
X012087Y017383D01*
X011887Y017383D01*
X012020Y017383D02*
X012154Y017250D01*
X012347Y017317D02*
X012347Y017450D01*
X012414Y017517D01*
X012548Y017517D01*
X012614Y017450D01*
X012614Y017383D01*
X012347Y017383D01*
X012347Y017317D02*
X012414Y017250D01*
X012548Y017250D01*
X012808Y017517D02*
X012941Y017250D01*
X013075Y017517D01*
X013268Y017317D02*
X013335Y017317D01*
X013335Y017250D01*
X013268Y017250D01*
X013268Y017317D01*
X013168Y017950D02*
X013168Y018350D01*
X013368Y018350D01*
X013435Y018284D01*
X013435Y018150D01*
X013368Y018083D01*
X013168Y018083D01*
X013302Y018083D02*
X013435Y017950D01*
X012975Y018083D02*
X012975Y018350D01*
X012708Y018350D02*
X012708Y018083D01*
X012841Y017950D01*
X012975Y018083D01*
X012514Y018083D02*
X012514Y018017D01*
X012448Y017950D01*
X012314Y017950D01*
X012247Y018017D01*
X012314Y018150D02*
X012448Y018150D01*
X012514Y018083D01*
X012514Y018284D02*
X012448Y018350D01*
X012314Y018350D01*
X012247Y018284D01*
X012247Y018217D01*
X012314Y018150D01*
X012054Y017950D02*
X012054Y018350D01*
X011787Y018350D02*
X011787Y017950D01*
X012054Y017950D02*
X011787Y018350D01*
X014089Y018350D02*
X014089Y017950D01*
X014222Y018083D01*
X014356Y017950D01*
X014356Y018350D01*
X014549Y018217D02*
X014616Y018217D01*
X014616Y017950D01*
X014549Y017950D02*
X014683Y017950D01*
X014856Y017950D02*
X014856Y018350D01*
X015123Y018350D01*
X015317Y018217D02*
X015383Y018217D01*
X015383Y017950D01*
X015317Y017950D02*
X015450Y017950D01*
X015473Y017650D02*
X015473Y017250D01*
X015340Y017250D02*
X015607Y017250D01*
X015340Y017517D02*
X015473Y017650D01*
X015176Y017317D02*
X015110Y017317D01*
X015110Y017250D01*
X015176Y017250D01*
X015176Y017317D01*
X014916Y017250D02*
X014649Y017250D01*
X014783Y017250D02*
X014783Y017650D01*
X014649Y017517D01*
X014486Y017317D02*
X014486Y017250D01*
X014419Y017250D01*
X014419Y017317D01*
X014486Y017317D01*
X014226Y017250D02*
X013959Y017250D01*
X014092Y017250D02*
X014092Y017650D01*
X013959Y017517D01*
X014856Y018150D02*
X014990Y018150D01*
X014616Y018350D02*
X014616Y018417D01*
X015383Y018417D02*
X015383Y018350D01*
D12*
X017187Y016550D02*
X017237Y016600D01*
X017287Y016650D01*
X017587Y016650D01*
X017637Y016600D01*
X017237Y016600D01*
X017187Y016550D02*
X017687Y016550D01*
X017637Y016600D01*
X017587Y016650D02*
X017537Y016700D01*
X017337Y016700D01*
X017387Y016750D01*
X017487Y016750D01*
X017537Y016700D01*
X017487Y016750D02*
X017437Y016800D01*
X017387Y016750D01*
X017337Y016700D02*
X017287Y016650D01*
X017187Y016550D02*
X017137Y016500D01*
X017737Y016500D01*
X017687Y016550D01*
X017737Y016500D02*
X017787Y016450D01*
X017087Y016450D01*
X017137Y016500D01*
X017087Y016450D02*
X017037Y016400D01*
X017837Y016400D01*
X017787Y016450D01*
X018937Y016400D02*
X018987Y016450D01*
X019687Y016450D01*
X019637Y016500D01*
X019037Y016500D01*
X019087Y016550D01*
X019587Y016550D01*
X019537Y016600D01*
X019137Y016600D01*
X019187Y016650D01*
X019487Y016650D01*
X019537Y016600D01*
X019487Y016650D02*
X019437Y016700D01*
X019237Y016700D01*
X019287Y016750D01*
X019387Y016750D01*
X019437Y016700D01*
X019387Y016750D02*
X019337Y016800D01*
X019287Y016750D01*
X019237Y016700D02*
X019187Y016650D01*
X019137Y016600D02*
X019087Y016550D01*
X019037Y016500D02*
X018987Y016450D01*
X018937Y016400D02*
X019737Y016400D01*
X019687Y016450D01*
X019637Y016500D02*
X019587Y016550D01*
X012812Y008815D02*
X012812Y008688D01*
X012812Y008751D02*
X012622Y008751D01*
X012685Y008688D01*
X012654Y008594D02*
X012622Y008562D01*
X012622Y008499D01*
X012654Y008467D01*
X012780Y008467D01*
X012654Y008594D01*
X012780Y008594D01*
X012812Y008562D01*
X012812Y008499D01*
X012780Y008467D01*
X012780Y008373D02*
X012812Y008341D01*
X012812Y008278D01*
X012780Y008246D01*
X012749Y008246D01*
X012717Y008278D01*
X012717Y008341D01*
X012749Y008373D01*
X012780Y008373D01*
X012717Y008341D02*
X012685Y008373D01*
X012654Y008373D01*
X012622Y008341D01*
X012622Y008278D01*
X012654Y008246D01*
X012685Y008246D01*
X012717Y008278D01*
X012622Y008152D02*
X012622Y008025D01*
X012812Y008025D01*
X012717Y008025D02*
X012717Y008088D01*
X010455Y007141D02*
X010455Y005487D01*
X010455Y007141D02*
X015219Y007141D01*
X015219Y005487D01*
X015219Y003913D02*
X015219Y000645D01*
X010455Y000645D01*
X010455Y003913D01*
X009770Y002665D02*
X009802Y002633D01*
X009802Y002602D01*
X009770Y002570D01*
X009802Y002538D01*
X009802Y002507D01*
X009770Y002475D01*
X009707Y002475D01*
X009675Y002507D01*
X009738Y002570D02*
X009770Y002570D01*
X009770Y002665D02*
X009707Y002665D01*
X009675Y002633D01*
X009581Y002633D02*
X009454Y002507D01*
X009486Y002475D01*
X009549Y002475D01*
X009581Y002507D01*
X009581Y002633D01*
X009549Y002665D01*
X009486Y002665D01*
X009454Y002633D01*
X009454Y002507D01*
X009360Y002507D02*
X009328Y002475D01*
X009265Y002475D01*
X009233Y002507D01*
X009233Y002538D01*
X009265Y002570D01*
X009328Y002570D01*
X009360Y002538D01*
X009360Y002507D01*
X009328Y002570D02*
X009360Y002602D01*
X009360Y002633D01*
X009328Y002665D01*
X009265Y002665D01*
X009233Y002633D01*
X009233Y002602D01*
X009265Y002570D01*
X009139Y002507D02*
X009139Y002633D01*
X009107Y002665D01*
X009012Y002665D01*
X009012Y002475D01*
X009107Y002475D01*
X009139Y002507D01*
X008932Y002902D02*
X008742Y002902D01*
X008742Y002997D01*
X008774Y003029D01*
X008837Y003029D01*
X008869Y002997D01*
X008869Y002902D01*
X008869Y002966D02*
X008932Y003029D01*
X008900Y003123D02*
X008869Y003123D01*
X008837Y003155D01*
X008837Y003218D01*
X008869Y003250D01*
X008900Y003250D01*
X008932Y003218D01*
X008932Y003155D01*
X008900Y003123D01*
X008837Y003155D02*
X008805Y003123D01*
X008774Y003123D01*
X008742Y003155D01*
X008742Y003218D01*
X008774Y003250D01*
X008805Y003250D01*
X008837Y003218D01*
X008900Y003344D02*
X008774Y003344D01*
X008742Y003376D01*
X008742Y003439D01*
X008774Y003471D01*
X008900Y003344D01*
X008932Y003376D01*
X008932Y003439D01*
X008900Y003471D01*
X008774Y003471D01*
X008742Y003565D02*
X008837Y003565D01*
X008805Y003629D01*
X008805Y003660D01*
X008837Y003692D01*
X008900Y003692D01*
X008932Y003660D01*
X008932Y003597D01*
X008900Y003565D01*
X008742Y003565D02*
X008742Y003692D01*
X008368Y003557D02*
X000494Y003557D01*
X000494Y010643D01*
X008368Y010643D01*
X008368Y003557D01*
X008171Y003950D02*
X003053Y003950D01*
X003053Y010250D01*
X008171Y010250D01*
X008171Y003950D01*
X006132Y002892D02*
X006132Y002765D01*
X006005Y002892D01*
X005974Y002892D01*
X005942Y002860D01*
X005942Y002797D01*
X005974Y002765D01*
X005974Y002671D02*
X006100Y002544D01*
X006132Y002576D01*
X006132Y002639D01*
X006100Y002671D01*
X005974Y002671D01*
X005942Y002639D01*
X005942Y002576D01*
X005974Y002544D01*
X006100Y002544D01*
X006100Y002450D02*
X006132Y002418D01*
X006132Y002355D01*
X006100Y002323D01*
X006069Y002323D01*
X006037Y002355D01*
X006037Y002418D01*
X006069Y002450D01*
X006100Y002450D01*
X006037Y002418D02*
X006005Y002450D01*
X005974Y002450D01*
X005942Y002418D01*
X005942Y002355D01*
X005974Y002323D01*
X006005Y002323D01*
X006037Y002355D01*
X006037Y002229D02*
X006069Y002197D01*
X006069Y002102D01*
X006132Y002102D02*
X005942Y002102D01*
X005942Y002197D01*
X005974Y002229D01*
X006037Y002229D01*
X006069Y002166D02*
X006132Y002229D01*
X006639Y001995D02*
X006639Y001805D01*
X006639Y001868D02*
X006734Y001868D01*
X006766Y001900D01*
X006766Y001963D01*
X006734Y001995D01*
X006639Y001995D01*
X006703Y001868D02*
X006766Y001805D01*
X006860Y001837D02*
X006860Y001868D01*
X006892Y001900D01*
X006955Y001900D01*
X006987Y001868D01*
X006987Y001837D01*
X006955Y001805D01*
X006892Y001805D01*
X006860Y001837D01*
X006892Y001900D02*
X006860Y001932D01*
X006860Y001963D01*
X006892Y001995D01*
X006955Y001995D01*
X006987Y001963D01*
X006987Y001932D01*
X006955Y001900D01*
X007081Y001837D02*
X007081Y001963D01*
X007113Y001995D01*
X007176Y001995D01*
X007208Y001963D01*
X007081Y001837D01*
X007113Y001805D01*
X007176Y001805D01*
X007208Y001837D01*
X007208Y001963D01*
X007302Y001963D02*
X007334Y001995D01*
X007397Y001995D01*
X007429Y001963D01*
X007429Y001932D01*
X007397Y001900D01*
X007429Y001868D01*
X007429Y001837D01*
X007397Y001805D01*
X007334Y001805D01*
X007302Y001837D01*
X007366Y001900D02*
X007397Y001900D01*
X007539Y001868D02*
X007634Y001868D01*
X007666Y001900D01*
X007666Y001963D01*
X007634Y001995D01*
X007539Y001995D01*
X007539Y001805D01*
X007603Y001868D02*
X007666Y001805D01*
X007760Y001837D02*
X007760Y001868D01*
X007792Y001900D01*
X007855Y001900D01*
X007887Y001868D01*
X007887Y001837D01*
X007855Y001805D01*
X007792Y001805D01*
X007760Y001837D01*
X007792Y001900D02*
X007760Y001932D01*
X007760Y001963D01*
X007792Y001995D01*
X007855Y001995D01*
X007887Y001963D01*
X007887Y001932D01*
X007855Y001900D01*
X007981Y001837D02*
X007981Y001963D01*
X008013Y001995D01*
X008076Y001995D01*
X008108Y001963D01*
X007981Y001837D01*
X008013Y001805D01*
X008076Y001805D01*
X008108Y001837D01*
X008108Y001963D01*
X008202Y001900D02*
X008329Y001900D01*
X008297Y001805D02*
X008297Y001995D01*
X008202Y001900D01*
X004432Y002102D02*
X004242Y002102D01*
X004242Y002197D01*
X004274Y002229D01*
X004337Y002229D01*
X004369Y002197D01*
X004369Y002102D01*
X004369Y002166D02*
X004432Y002229D01*
X004400Y002323D02*
X004369Y002323D01*
X004337Y002355D01*
X004337Y002418D01*
X004369Y002450D01*
X004400Y002450D01*
X004432Y002418D01*
X004432Y002355D01*
X004400Y002323D01*
X004337Y002355D02*
X004305Y002323D01*
X004274Y002323D01*
X004242Y002355D01*
X004242Y002418D01*
X004274Y002450D01*
X004305Y002450D01*
X004337Y002418D01*
X004400Y002544D02*
X004274Y002671D01*
X004400Y002671D01*
X004432Y002639D01*
X004432Y002576D01*
X004400Y002544D01*
X004274Y002544D01*
X004242Y002576D01*
X004242Y002639D01*
X004274Y002671D01*
X004305Y002765D02*
X004242Y002829D01*
X004432Y002829D01*
X004432Y002892D02*
X004432Y002765D01*
X002927Y002754D02*
X002927Y002881D01*
X002927Y002817D02*
X002737Y002817D01*
X002800Y002754D01*
X002769Y002660D02*
X002895Y002533D01*
X002927Y002565D01*
X002927Y002628D01*
X002895Y002660D01*
X002769Y002660D01*
X002737Y002628D01*
X002737Y002565D01*
X002769Y002533D01*
X002895Y002533D01*
X002895Y002439D02*
X002927Y002407D01*
X002927Y002344D01*
X002895Y002312D01*
X002864Y002312D01*
X002832Y002344D01*
X002832Y002407D01*
X002864Y002439D01*
X002895Y002439D01*
X002832Y002407D02*
X002800Y002439D01*
X002769Y002439D01*
X002737Y002407D01*
X002737Y002344D01*
X002769Y002312D01*
X002800Y002312D01*
X002832Y002344D01*
X002895Y002218D02*
X002927Y002186D01*
X002927Y002123D01*
X002895Y002091D01*
X002769Y002091D01*
X002737Y002123D01*
X002737Y002186D01*
X002769Y002218D01*
X009399Y009191D02*
X009462Y009191D01*
X009494Y009223D01*
X009588Y009223D02*
X009588Y009255D01*
X009620Y009286D01*
X009683Y009286D01*
X009715Y009255D01*
X009715Y009223D01*
X009683Y009191D01*
X009620Y009191D01*
X009588Y009223D01*
X009620Y009286D02*
X009588Y009318D01*
X009588Y009350D01*
X009620Y009381D01*
X009683Y009381D01*
X009715Y009350D01*
X009715Y009318D01*
X009683Y009286D01*
X009809Y009223D02*
X009936Y009350D01*
X009936Y009223D01*
X009904Y009191D01*
X009841Y009191D01*
X009809Y009223D01*
X009809Y009350D01*
X009841Y009381D01*
X009904Y009381D01*
X009936Y009350D01*
X010030Y009350D02*
X010062Y009381D01*
X010125Y009381D01*
X010157Y009350D01*
X010157Y009318D01*
X010125Y009286D01*
X010157Y009255D01*
X010157Y009223D01*
X010125Y009191D01*
X010062Y009191D01*
X010030Y009223D01*
X010093Y009286D02*
X010125Y009286D01*
X009494Y009350D02*
X009462Y009381D01*
X009399Y009381D01*
X009367Y009350D01*
X009367Y009223D01*
X009399Y009191D01*
X009844Y012100D02*
X009907Y012100D01*
X009939Y012132D01*
X010033Y012132D02*
X010033Y012163D01*
X010065Y012195D01*
X010128Y012195D01*
X010160Y012163D01*
X010160Y012132D01*
X010128Y012100D01*
X010065Y012100D01*
X010033Y012132D01*
X010065Y012195D02*
X010033Y012227D01*
X010033Y012258D01*
X010065Y012290D01*
X010128Y012290D01*
X010160Y012258D01*
X010160Y012227D01*
X010128Y012195D01*
X010254Y012132D02*
X010381Y012258D01*
X010381Y012132D01*
X010349Y012100D01*
X010286Y012100D01*
X010254Y012132D01*
X010254Y012258D01*
X010286Y012290D01*
X010349Y012290D01*
X010381Y012258D01*
X010475Y012195D02*
X010602Y012195D01*
X010570Y012100D02*
X010570Y012290D01*
X010475Y012195D01*
X009939Y012258D02*
X009907Y012290D01*
X009844Y012290D01*
X009812Y012258D01*
X009812Y012132D01*
X009844Y012100D01*
X009944Y012800D02*
X010007Y012800D01*
X010039Y012832D01*
X010133Y012832D02*
X010165Y012800D01*
X010228Y012800D01*
X010260Y012832D01*
X010260Y012863D01*
X010228Y012895D01*
X010165Y012895D01*
X010133Y012927D01*
X010133Y012958D01*
X010165Y012990D01*
X010228Y012990D01*
X010260Y012958D01*
X010260Y012927D01*
X010228Y012895D01*
X010165Y012895D02*
X010133Y012863D01*
X010133Y012832D01*
X010039Y012958D02*
X010007Y012990D01*
X009944Y012990D01*
X009912Y012958D01*
X009912Y012832D01*
X009944Y012800D01*
X010354Y012832D02*
X010386Y012800D01*
X010449Y012800D01*
X010481Y012832D01*
X010481Y012958D01*
X010354Y012832D01*
X010354Y012958D01*
X010386Y012990D01*
X010449Y012990D01*
X010481Y012958D01*
X010575Y012990D02*
X010575Y012895D01*
X010638Y012927D01*
X010670Y012927D01*
X010702Y012895D01*
X010702Y012832D01*
X010670Y012800D01*
X010607Y012800D01*
X010575Y012832D01*
X010575Y012990D02*
X010702Y012990D01*
X006332Y012860D02*
X006332Y012797D01*
X006300Y012765D01*
X006174Y012892D01*
X006300Y012892D01*
X006332Y012860D01*
X006300Y012765D02*
X006174Y012765D01*
X006142Y012797D01*
X006142Y012860D01*
X006174Y012892D01*
X006332Y012671D02*
X006332Y012544D01*
X006332Y012608D02*
X006142Y012608D01*
X006205Y012544D01*
X006205Y012450D02*
X006237Y012418D01*
X006237Y012355D01*
X006205Y012323D01*
X006174Y012323D01*
X006142Y012355D01*
X006142Y012418D01*
X006174Y012450D01*
X006205Y012450D01*
X006237Y012418D02*
X006269Y012450D01*
X006300Y012450D01*
X006332Y012418D01*
X006332Y012355D01*
X006300Y012323D01*
X006269Y012323D01*
X006237Y012355D01*
X006237Y012229D02*
X006269Y012197D01*
X006269Y012102D01*
X006332Y012102D02*
X006142Y012102D01*
X006142Y012197D01*
X006174Y012229D01*
X006237Y012229D01*
X006269Y012166D02*
X006332Y012229D01*
X005832Y012229D02*
X005769Y012166D01*
X005769Y012197D02*
X005769Y012102D01*
X005832Y012102D02*
X005642Y012102D01*
X005642Y012197D01*
X005674Y012229D01*
X005737Y012229D01*
X005769Y012197D01*
X005769Y012323D02*
X005737Y012355D01*
X005737Y012418D01*
X005769Y012450D01*
X005800Y012450D01*
X005832Y012418D01*
X005832Y012355D01*
X005800Y012323D01*
X005769Y012323D01*
X005737Y012355D02*
X005705Y012323D01*
X005674Y012323D01*
X005642Y012355D01*
X005642Y012418D01*
X005674Y012450D01*
X005705Y012450D01*
X005737Y012418D01*
X005800Y012544D02*
X005674Y012544D01*
X005642Y012576D01*
X005642Y012639D01*
X005674Y012671D01*
X005800Y012544D01*
X005832Y012576D01*
X005832Y012639D01*
X005800Y012671D01*
X005674Y012671D01*
X005674Y012765D02*
X005705Y012765D01*
X005737Y012797D01*
X005737Y012892D01*
X005800Y012892D02*
X005674Y012892D01*
X005642Y012860D01*
X005642Y012797D01*
X005674Y012765D01*
X005800Y012765D02*
X005832Y012797D01*
X005832Y012860D01*
X005800Y012892D01*
X005232Y012927D02*
X005232Y013054D01*
X005232Y012990D02*
X005042Y012990D01*
X005105Y012927D01*
X005232Y012833D02*
X005232Y012706D01*
X005232Y012769D02*
X005042Y012769D01*
X005105Y012706D01*
X005105Y012612D02*
X005137Y012580D01*
X005137Y012517D01*
X005105Y012485D01*
X005074Y012485D01*
X005042Y012517D01*
X005042Y012580D01*
X005074Y012612D01*
X005105Y012612D01*
X005137Y012580D02*
X005169Y012612D01*
X005200Y012612D01*
X005232Y012580D01*
X005232Y012517D01*
X005200Y012485D01*
X005169Y012485D01*
X005137Y012517D01*
X005137Y012391D02*
X005169Y012359D01*
X005169Y012264D01*
X005232Y012264D02*
X005042Y012264D01*
X005042Y012359D01*
X005074Y012391D01*
X005137Y012391D01*
X005169Y012327D02*
X005232Y012391D01*
X005000Y012054D02*
X005032Y012022D01*
X005032Y011959D01*
X005000Y011927D01*
X004969Y011927D01*
X004937Y011959D01*
X004937Y012022D01*
X004969Y012054D01*
X005000Y012054D01*
X004937Y012022D02*
X004905Y012054D01*
X004874Y012054D01*
X004842Y012022D01*
X004842Y011959D01*
X004874Y011927D01*
X004905Y011927D01*
X004937Y011959D01*
X005000Y011833D02*
X005032Y011801D01*
X005032Y011738D01*
X005000Y011706D01*
X004874Y011833D01*
X005000Y011833D01*
X004874Y011833D02*
X004842Y011801D01*
X004842Y011738D01*
X004874Y011706D01*
X005000Y011706D01*
X005000Y011612D02*
X005032Y011580D01*
X005032Y011517D01*
X005000Y011485D01*
X004969Y011485D01*
X004937Y011517D01*
X004937Y011580D01*
X004969Y011612D01*
X005000Y011612D01*
X004937Y011580D02*
X004905Y011612D01*
X004874Y011612D01*
X004842Y011580D01*
X004842Y011517D01*
X004874Y011485D01*
X004905Y011485D01*
X004937Y011517D01*
X004937Y011391D02*
X004969Y011359D01*
X004969Y011264D01*
X005032Y011264D02*
X004842Y011264D01*
X004842Y011359D01*
X004874Y011391D01*
X004937Y011391D01*
X004969Y011327D02*
X005032Y011391D01*
X004032Y012164D02*
X003842Y012164D01*
X003842Y012259D01*
X003874Y012291D01*
X003937Y012291D01*
X003969Y012259D01*
X003969Y012164D01*
X003969Y012227D02*
X004032Y012291D01*
X004000Y012385D02*
X004032Y012417D01*
X004032Y012480D01*
X004000Y012512D01*
X003969Y012512D01*
X003937Y012480D01*
X003937Y012417D01*
X003905Y012385D01*
X003874Y012385D01*
X003842Y012417D01*
X003842Y012480D01*
X003874Y012512D01*
X003905Y012512D01*
X003937Y012480D01*
X003937Y012417D02*
X003969Y012385D01*
X004000Y012385D01*
X004000Y012606D02*
X003874Y012733D01*
X004000Y012733D01*
X004032Y012701D01*
X004032Y012638D01*
X004000Y012606D01*
X003874Y012606D01*
X003842Y012638D01*
X003842Y012701D01*
X003874Y012733D01*
X003842Y012827D02*
X003842Y012954D01*
X003874Y012954D01*
X004000Y012827D01*
X004032Y012827D01*
X003234Y013465D02*
X003234Y013655D01*
X003171Y013655D02*
X003298Y013655D01*
X003077Y013623D02*
X003077Y013497D01*
X003045Y013465D01*
X002982Y013465D01*
X002950Y013497D01*
X002950Y013623D01*
X002982Y013655D01*
X003045Y013655D01*
X003077Y013623D01*
X002856Y013623D02*
X002856Y013497D01*
X002824Y013465D01*
X002761Y013465D01*
X002729Y013497D01*
X002729Y013623D01*
X002761Y013655D01*
X002824Y013655D01*
X002856Y013623D01*
X002635Y013623D02*
X002635Y013592D01*
X002603Y013560D01*
X002508Y013560D01*
X002508Y013465D02*
X002603Y013465D01*
X002635Y013497D01*
X002635Y013528D01*
X002603Y013560D01*
X002635Y013623D02*
X002603Y013655D01*
X002508Y013655D01*
X002508Y013465D01*
X002198Y013655D02*
X002071Y013655D01*
X002134Y013655D02*
X002134Y013465D01*
X001977Y013497D02*
X001945Y013465D01*
X001882Y013465D01*
X001850Y013497D01*
X001882Y013560D02*
X001945Y013560D01*
X001977Y013528D01*
X001977Y013497D01*
X001882Y013560D02*
X001850Y013592D01*
X001850Y013623D01*
X001882Y013655D01*
X001945Y013655D01*
X001977Y013623D01*
X001756Y013623D02*
X001756Y013560D01*
X001724Y013528D01*
X001629Y013528D01*
X001629Y013465D02*
X001629Y013655D01*
X001724Y013655D01*
X001756Y013623D01*
X001692Y013528D02*
X001756Y013465D01*
X002542Y012054D02*
X002574Y011990D01*
X002637Y011927D01*
X002637Y012022D01*
X002669Y012054D01*
X002700Y012054D01*
X002732Y012022D01*
X002732Y011959D01*
X002700Y011927D01*
X002637Y011927D01*
X002700Y011833D02*
X002732Y011801D01*
X002732Y011738D01*
X002700Y011706D01*
X002574Y011833D01*
X002700Y011833D01*
X002574Y011833D02*
X002542Y011801D01*
X002542Y011738D01*
X002574Y011706D01*
X002700Y011706D01*
X002700Y011612D02*
X002732Y011580D01*
X002732Y011517D01*
X002700Y011485D01*
X002669Y011485D01*
X002637Y011517D01*
X002637Y011580D01*
X002669Y011612D01*
X002700Y011612D01*
X002637Y011580D02*
X002605Y011612D01*
X002574Y011612D01*
X002542Y011580D01*
X002542Y011517D01*
X002574Y011485D01*
X002605Y011485D01*
X002637Y011517D01*
X002637Y011391D02*
X002669Y011359D01*
X002669Y011264D01*
X002732Y011264D02*
X002542Y011264D01*
X002542Y011359D01*
X002574Y011391D01*
X002637Y011391D01*
X002669Y011327D02*
X002732Y011391D01*
D13*
X002687Y013800D02*
X002437Y014050D01*
X002437Y014400D01*
X002437Y014050D01*
X002187Y013800D01*
X001687Y013800D01*
X001437Y014050D01*
X001437Y014400D01*
X001437Y014750D02*
X001437Y015550D01*
X001687Y015800D01*
X002187Y015800D01*
X002437Y015550D01*
X002437Y014750D01*
X002437Y015550D01*
X002687Y015800D01*
X003187Y015800D01*
X003437Y015550D01*
X003437Y014750D01*
X003437Y014400D02*
X003437Y014050D01*
X003187Y013800D01*
X002687Y013800D01*
X016165Y005894D02*
X016992Y005894D01*
X016165Y005894D02*
X016165Y001681D01*
X019709Y001681D01*
X019709Y003768D01*
X019709Y005618D02*
X019709Y005894D01*
X018882Y005894D01*
X018636Y015750D02*
X018636Y015757D01*
X018739Y015757D01*
X018636Y015757D02*
X018636Y017450D01*
X018739Y017450D01*
X018138Y017450D02*
X018028Y017450D01*
X018138Y017450D02*
X018138Y015757D01*
X018028Y015757D01*
X018138Y015757D02*
X018138Y015750D01*
X016839Y015757D02*
X016736Y015757D01*
X016736Y017450D01*
X016839Y017450D01*
X016736Y015757D02*
X016736Y015750D01*
X019928Y015757D02*
X020038Y015757D01*
X020038Y015750D01*
X020038Y015757D02*
X020038Y017450D01*
X019928Y017450D01*
D14*
X020037Y014112D02*
X020037Y014088D01*
X019797Y007252D02*
X019797Y007228D01*
X011337Y012188D02*
X011337Y012212D01*
X011337Y012888D02*
X011337Y012912D01*
X003249Y002500D02*
X003225Y002500D01*
D15*
X012937Y008170D02*
X012937Y008630D01*
X013737Y008630D02*
X013737Y008170D01*
X018837Y009450D02*
X019087Y009200D01*
X019587Y009200D01*
X019837Y009450D01*
X019837Y009950D01*
X019587Y010200D01*
X019087Y010200D01*
X018837Y009950D01*
X018837Y009450D01*
X019087Y011200D02*
X019587Y011200D01*
X019837Y011450D01*
X019837Y011950D01*
X019587Y012200D01*
X019087Y012200D01*
X018837Y011950D01*
X018837Y011450D01*
X019087Y011200D01*
X019760Y014405D02*
X019847Y014405D01*
X019890Y014448D01*
X020012Y014448D02*
X020012Y014492D01*
X020055Y014535D01*
X020142Y014535D01*
X020185Y014492D01*
X020185Y014448D01*
X020142Y014405D01*
X020055Y014405D01*
X020012Y014448D01*
X020055Y014535D02*
X020012Y014578D01*
X020012Y014622D01*
X020055Y014665D01*
X020142Y014665D01*
X020185Y014622D01*
X020185Y014578D01*
X020142Y014535D01*
X020306Y014448D02*
X020480Y014622D01*
X020480Y014448D01*
X020436Y014405D01*
X020350Y014405D01*
X020306Y014448D01*
X020306Y014622D01*
X020350Y014665D01*
X020436Y014665D01*
X020480Y014622D01*
X020601Y014535D02*
X020731Y014535D01*
X020774Y014492D01*
X020774Y014448D01*
X020731Y014405D01*
X020644Y014405D01*
X020601Y014448D01*
X020601Y014535D01*
X020688Y014622D01*
X020774Y014665D01*
X019890Y014622D02*
X019847Y014665D01*
X019760Y014665D01*
X019717Y014622D01*
X019717Y014448D01*
X019760Y014405D01*
X018527Y015201D02*
X018527Y015332D01*
X018484Y015375D01*
X018310Y015375D01*
X018267Y015332D01*
X018267Y015201D01*
X018527Y015201D01*
X018484Y015496D02*
X018440Y015496D01*
X018397Y015539D01*
X018397Y015626D01*
X018440Y015670D01*
X018484Y015670D01*
X018527Y015626D01*
X018527Y015539D01*
X018484Y015496D01*
X018397Y015539D02*
X018354Y015496D01*
X018310Y015496D01*
X018267Y015539D01*
X018267Y015626D01*
X018310Y015670D01*
X018354Y015670D01*
X018397Y015626D01*
X018484Y015791D02*
X018310Y015791D01*
X018267Y015834D01*
X018267Y015921D01*
X018310Y015964D01*
X018484Y015791D01*
X018527Y015834D01*
X018527Y015921D01*
X018484Y015964D01*
X018310Y015964D01*
X018310Y016085D02*
X018267Y016129D01*
X018267Y016215D01*
X018310Y016259D01*
X018354Y016259D01*
X018527Y016085D01*
X018527Y016259D01*
X016527Y016259D02*
X016527Y016085D01*
X016527Y016172D02*
X016267Y016172D01*
X016354Y016085D01*
X016310Y015964D02*
X016484Y015791D01*
X016527Y015834D01*
X016527Y015921D01*
X016484Y015964D01*
X016310Y015964D01*
X016267Y015921D01*
X016267Y015834D01*
X016310Y015791D01*
X016484Y015791D01*
X016484Y015670D02*
X016527Y015626D01*
X016527Y015539D01*
X016484Y015496D01*
X016440Y015496D01*
X016397Y015539D01*
X016397Y015626D01*
X016440Y015670D01*
X016484Y015670D01*
X016397Y015626D02*
X016354Y015670D01*
X016310Y015670D01*
X016267Y015626D01*
X016267Y015539D01*
X016310Y015496D01*
X016354Y015496D01*
X016397Y015539D01*
X016484Y015375D02*
X016310Y015375D01*
X016267Y015332D01*
X016267Y015201D01*
X016527Y015201D01*
X016527Y015332D01*
X016484Y015375D01*
X019520Y007805D02*
X019477Y007762D01*
X019477Y007588D01*
X019520Y007545D01*
X019607Y007545D01*
X019650Y007588D01*
X019772Y007588D02*
X019772Y007632D01*
X019815Y007675D01*
X019902Y007675D01*
X019945Y007632D01*
X019945Y007588D01*
X019902Y007545D01*
X019815Y007545D01*
X019772Y007588D01*
X019815Y007675D02*
X019772Y007718D01*
X019772Y007762D01*
X019815Y007805D01*
X019902Y007805D01*
X019945Y007762D01*
X019945Y007718D01*
X019902Y007675D01*
X020066Y007588D02*
X020066Y007762D01*
X020110Y007805D01*
X020196Y007805D01*
X020240Y007762D01*
X020066Y007588D01*
X020110Y007545D01*
X020196Y007545D01*
X020240Y007588D01*
X020240Y007762D01*
X020361Y007762D02*
X020404Y007805D01*
X020491Y007805D01*
X020534Y007762D01*
X020534Y007718D01*
X020361Y007545D01*
X020534Y007545D01*
X019650Y007762D02*
X019607Y007805D01*
X019520Y007805D01*
D16*
X012944Y007599D02*
X012630Y007285D01*
X012630Y007442D02*
X012944Y007442D01*
X012944Y007285D02*
X012630Y007599D01*
X012787Y007599D02*
X012787Y007285D01*
X003682Y007260D02*
X003682Y007163D01*
X003634Y007115D01*
X003440Y007308D01*
X003634Y007308D01*
X003682Y007260D01*
X003682Y007410D02*
X003682Y007603D01*
X003682Y007506D02*
X003392Y007506D01*
X003489Y007410D01*
X003440Y007308D02*
X003392Y007260D01*
X003392Y007163D01*
X003440Y007115D01*
X003634Y007115D01*
X003634Y007014D02*
X003682Y006965D01*
X003682Y006869D01*
X003634Y006820D01*
X003585Y006820D01*
X003537Y006869D01*
X003537Y006965D01*
X003585Y007014D01*
X003634Y007014D01*
X003537Y006965D02*
X003489Y007014D01*
X003440Y007014D01*
X003392Y006965D01*
X003392Y006869D01*
X003440Y006820D01*
X003489Y006820D01*
X003537Y006869D01*
X003634Y006719D02*
X003392Y006719D01*
X003392Y006526D02*
X003634Y006526D01*
X003682Y006574D01*
X003682Y006671D01*
X003634Y006719D01*
D17*
X009857Y009790D02*
X009857Y010026D01*
X009857Y009790D02*
X010527Y009120D01*
X012417Y009120D01*
X012417Y010026D01*
X012417Y010774D02*
X012417Y011680D01*
X010527Y011680D01*
X009857Y011010D01*
X009857Y010774D01*
X009976Y010026D02*
X009998Y009962D01*
X010025Y009899D01*
X010055Y009837D01*
X010088Y009778D01*
X010124Y009720D01*
X010164Y009664D01*
X010207Y009611D01*
X010252Y009560D01*
X010300Y009512D01*
X010351Y009467D01*
X010405Y009424D01*
X010461Y009385D01*
X010518Y009348D01*
X010578Y009315D01*
X010640Y009286D01*
X010703Y009260D01*
X010767Y009237D01*
X010833Y009218D01*
X010900Y009203D01*
X010967Y009192D01*
X011035Y009184D01*
X011103Y009180D01*
X011171Y009180D01*
X011239Y009184D01*
X011307Y009192D01*
X011374Y009203D01*
X011441Y009218D01*
X011507Y009237D01*
X011571Y009260D01*
X011634Y009286D01*
X011696Y009315D01*
X011756Y009348D01*
X011813Y009385D01*
X011869Y009424D01*
X011923Y009467D01*
X011974Y009512D01*
X012022Y009560D01*
X012067Y009611D01*
X012110Y009664D01*
X012150Y009720D01*
X012186Y009778D01*
X012219Y009837D01*
X012249Y009899D01*
X012276Y009962D01*
X012298Y010026D01*
X012298Y010774D02*
X012276Y010838D01*
X012249Y010901D01*
X012219Y010963D01*
X012186Y011022D01*
X012150Y011080D01*
X012110Y011136D01*
X012067Y011189D01*
X012022Y011240D01*
X011974Y011288D01*
X011923Y011333D01*
X011869Y011376D01*
X011813Y011415D01*
X011756Y011452D01*
X011696Y011485D01*
X011634Y011514D01*
X011571Y011540D01*
X011507Y011563D01*
X011441Y011582D01*
X011374Y011597D01*
X011307Y011608D01*
X011239Y011616D01*
X011171Y011620D01*
X011103Y011620D01*
X011035Y011616D01*
X010967Y011608D01*
X010900Y011597D01*
X010833Y011582D01*
X010767Y011563D01*
X010703Y011540D01*
X010640Y011514D01*
X010578Y011485D01*
X010518Y011452D01*
X010461Y011415D01*
X010405Y011376D01*
X010351Y011333D01*
X010300Y011288D01*
X010252Y011240D01*
X010207Y011189D01*
X010164Y011136D01*
X010124Y011080D01*
X010088Y011022D01*
X010055Y010963D01*
X010025Y010901D01*
X009998Y010838D01*
X009976Y010774D01*
X018827Y010490D02*
X018827Y010290D01*
X018927Y010290D01*
X018960Y010323D01*
X018960Y010357D01*
X018927Y010390D01*
X018827Y010390D01*
X018927Y010390D02*
X018960Y010423D01*
X018960Y010457D01*
X018927Y010490D01*
X018827Y010490D01*
X019048Y010423D02*
X019048Y010290D01*
X019048Y010390D02*
X019181Y010390D01*
X019181Y010423D02*
X019181Y010290D01*
X019181Y010423D02*
X019115Y010490D01*
X019048Y010423D01*
X019269Y010490D02*
X019402Y010490D01*
X019336Y010490D02*
X019336Y010290D01*
X019490Y010390D02*
X019623Y010390D01*
X019336Y012290D02*
X019336Y012490D01*
X019402Y012490D02*
X019269Y012490D01*
X019181Y012423D02*
X019181Y012290D01*
X019181Y012390D02*
X019048Y012390D01*
X019048Y012423D02*
X019115Y012490D01*
X019181Y012423D01*
X019048Y012423D02*
X019048Y012290D01*
X018960Y012323D02*
X018927Y012290D01*
X018827Y012290D01*
X018827Y012490D01*
X018927Y012490D01*
X018960Y012457D01*
X018960Y012423D01*
X018927Y012390D01*
X018827Y012390D01*
X018927Y012390D02*
X018960Y012357D01*
X018960Y012323D01*
X019490Y012390D02*
X019623Y012390D01*
X019557Y012457D02*
X019557Y012323D01*
D18*
X009396Y002348D03*
X009396Y002052D03*
D19*
X009396Y002200D03*
M02*
