G75*
%MOIN*%
%OFA0B0*%
%FSLAX24Y24*%
%IPPOS*%
%LPD*%
%AMOC8*
5,1,8,0,0,1.08239X$1,22.5*
%
%ADD10C,0.0000*%
D10*
X000437Y001700D02*
X020837Y001700D01*
X020837Y018700D01*
X003637Y018700D01*
X003637Y015900D01*
X000437Y015900D01*
X000437Y001700D01*
X001937Y012700D02*
X001939Y012744D01*
X001945Y012788D01*
X001955Y012831D01*
X001968Y012873D01*
X001985Y012914D01*
X002006Y012953D01*
X002030Y012990D01*
X002057Y013025D01*
X002087Y013057D01*
X002120Y013087D01*
X002156Y013113D01*
X002193Y013137D01*
X002233Y013156D01*
X002274Y013173D01*
X002317Y013185D01*
X002360Y013194D01*
X002404Y013199D01*
X002448Y013200D01*
X002492Y013197D01*
X002536Y013190D01*
X002579Y013179D01*
X002621Y013165D01*
X002661Y013147D01*
X002700Y013125D01*
X002736Y013101D01*
X002770Y013073D01*
X002802Y013042D01*
X002831Y013008D01*
X002857Y012972D01*
X002879Y012934D01*
X002898Y012894D01*
X002913Y012852D01*
X002925Y012810D01*
X002933Y012766D01*
X002937Y012722D01*
X002937Y012678D01*
X002933Y012634D01*
X002925Y012590D01*
X002913Y012548D01*
X002898Y012506D01*
X002879Y012466D01*
X002857Y012428D01*
X002831Y012392D01*
X002802Y012358D01*
X002770Y012327D01*
X002736Y012299D01*
X002700Y012275D01*
X002661Y012253D01*
X002621Y012235D01*
X002579Y012221D01*
X002536Y012210D01*
X002492Y012203D01*
X002448Y012200D01*
X002404Y012201D01*
X002360Y012206D01*
X002317Y012215D01*
X002274Y012227D01*
X002233Y012244D01*
X002193Y012263D01*
X002156Y012287D01*
X002120Y012313D01*
X002087Y012343D01*
X002057Y012375D01*
X002030Y012410D01*
X002006Y012447D01*
X001985Y012486D01*
X001968Y012527D01*
X001955Y012569D01*
X001945Y012612D01*
X001939Y012656D01*
X001937Y012700D01*
X004810Y017601D02*
X004812Y017644D01*
X004818Y017686D01*
X004828Y017728D01*
X004841Y017769D01*
X004859Y017808D01*
X004880Y017846D01*
X004904Y017881D01*
X004931Y017914D01*
X004962Y017945D01*
X004995Y017972D01*
X005030Y017996D01*
X005068Y018017D01*
X005107Y018035D01*
X005148Y018048D01*
X005190Y018058D01*
X005232Y018064D01*
X005275Y018066D01*
X005318Y018064D01*
X005360Y018058D01*
X005402Y018048D01*
X005443Y018035D01*
X005482Y018017D01*
X005520Y017996D01*
X005555Y017972D01*
X005588Y017945D01*
X005619Y017914D01*
X005646Y017881D01*
X005670Y017846D01*
X005691Y017808D01*
X005709Y017769D01*
X005722Y017728D01*
X005732Y017686D01*
X005738Y017644D01*
X005740Y017601D01*
X005738Y017558D01*
X005732Y017516D01*
X005722Y017474D01*
X005709Y017433D01*
X005691Y017394D01*
X005670Y017356D01*
X005646Y017321D01*
X005619Y017288D01*
X005588Y017257D01*
X005555Y017230D01*
X005520Y017206D01*
X005482Y017185D01*
X005443Y017167D01*
X005402Y017154D01*
X005360Y017144D01*
X005318Y017138D01*
X005275Y017136D01*
X005232Y017138D01*
X005190Y017144D01*
X005148Y017154D01*
X005107Y017167D01*
X005068Y017185D01*
X005030Y017206D01*
X004995Y017230D01*
X004962Y017257D01*
X004931Y017288D01*
X004904Y017321D01*
X004880Y017356D01*
X004859Y017394D01*
X004841Y017433D01*
X004828Y017474D01*
X004818Y017516D01*
X004812Y017558D01*
X004810Y017601D01*
X009534Y017601D02*
X009536Y017644D01*
X009542Y017686D01*
X009552Y017728D01*
X009565Y017769D01*
X009583Y017808D01*
X009604Y017846D01*
X009628Y017881D01*
X009655Y017914D01*
X009686Y017945D01*
X009719Y017972D01*
X009754Y017996D01*
X009792Y018017D01*
X009831Y018035D01*
X009872Y018048D01*
X009914Y018058D01*
X009956Y018064D01*
X009999Y018066D01*
X010042Y018064D01*
X010084Y018058D01*
X010126Y018048D01*
X010167Y018035D01*
X010206Y018017D01*
X010244Y017996D01*
X010279Y017972D01*
X010312Y017945D01*
X010343Y017914D01*
X010370Y017881D01*
X010394Y017846D01*
X010415Y017808D01*
X010433Y017769D01*
X010446Y017728D01*
X010456Y017686D01*
X010462Y017644D01*
X010464Y017601D01*
X010462Y017558D01*
X010456Y017516D01*
X010446Y017474D01*
X010433Y017433D01*
X010415Y017394D01*
X010394Y017356D01*
X010370Y017321D01*
X010343Y017288D01*
X010312Y017257D01*
X010279Y017230D01*
X010244Y017206D01*
X010206Y017185D01*
X010167Y017167D01*
X010126Y017154D01*
X010084Y017144D01*
X010042Y017138D01*
X009999Y017136D01*
X009956Y017138D01*
X009914Y017144D01*
X009872Y017154D01*
X009831Y017167D01*
X009792Y017185D01*
X009754Y017206D01*
X009719Y017230D01*
X009686Y017257D01*
X009655Y017288D01*
X009628Y017321D01*
X009604Y017356D01*
X009583Y017394D01*
X009565Y017433D01*
X009552Y017474D01*
X009542Y017516D01*
X009536Y017558D01*
X009534Y017601D01*
X014937Y015700D02*
X014939Y015744D01*
X014945Y015788D01*
X014955Y015831D01*
X014968Y015873D01*
X014985Y015914D01*
X015006Y015953D01*
X015030Y015990D01*
X015057Y016025D01*
X015087Y016057D01*
X015120Y016087D01*
X015156Y016113D01*
X015193Y016137D01*
X015233Y016156D01*
X015274Y016173D01*
X015317Y016185D01*
X015360Y016194D01*
X015404Y016199D01*
X015448Y016200D01*
X015492Y016197D01*
X015536Y016190D01*
X015579Y016179D01*
X015621Y016165D01*
X015661Y016147D01*
X015700Y016125D01*
X015736Y016101D01*
X015770Y016073D01*
X015802Y016042D01*
X015831Y016008D01*
X015857Y015972D01*
X015879Y015934D01*
X015898Y015894D01*
X015913Y015852D01*
X015925Y015810D01*
X015933Y015766D01*
X015937Y015722D01*
X015937Y015678D01*
X015933Y015634D01*
X015925Y015590D01*
X015913Y015548D01*
X015898Y015506D01*
X015879Y015466D01*
X015857Y015428D01*
X015831Y015392D01*
X015802Y015358D01*
X015770Y015327D01*
X015736Y015299D01*
X015700Y015275D01*
X015661Y015253D01*
X015621Y015235D01*
X015579Y015221D01*
X015536Y015210D01*
X015492Y015203D01*
X015448Y015200D01*
X015404Y015201D01*
X015360Y015206D01*
X015317Y015215D01*
X015274Y015227D01*
X015233Y015244D01*
X015193Y015263D01*
X015156Y015287D01*
X015120Y015313D01*
X015087Y015343D01*
X015057Y015375D01*
X015030Y015410D01*
X015006Y015447D01*
X014985Y015486D01*
X014968Y015527D01*
X014955Y015569D01*
X014945Y015612D01*
X014939Y015656D01*
X014937Y015700D01*
X014937Y007700D02*
X014939Y007744D01*
X014945Y007788D01*
X014955Y007831D01*
X014968Y007873D01*
X014985Y007914D01*
X015006Y007953D01*
X015030Y007990D01*
X015057Y008025D01*
X015087Y008057D01*
X015120Y008087D01*
X015156Y008113D01*
X015193Y008137D01*
X015233Y008156D01*
X015274Y008173D01*
X015317Y008185D01*
X015360Y008194D01*
X015404Y008199D01*
X015448Y008200D01*
X015492Y008197D01*
X015536Y008190D01*
X015579Y008179D01*
X015621Y008165D01*
X015661Y008147D01*
X015700Y008125D01*
X015736Y008101D01*
X015770Y008073D01*
X015802Y008042D01*
X015831Y008008D01*
X015857Y007972D01*
X015879Y007934D01*
X015898Y007894D01*
X015913Y007852D01*
X015925Y007810D01*
X015933Y007766D01*
X015937Y007722D01*
X015937Y007678D01*
X015933Y007634D01*
X015925Y007590D01*
X015913Y007548D01*
X015898Y007506D01*
X015879Y007466D01*
X015857Y007428D01*
X015831Y007392D01*
X015802Y007358D01*
X015770Y007327D01*
X015736Y007299D01*
X015700Y007275D01*
X015661Y007253D01*
X015621Y007235D01*
X015579Y007221D01*
X015536Y007210D01*
X015492Y007203D01*
X015448Y007200D01*
X015404Y007201D01*
X015360Y007206D01*
X015317Y007215D01*
X015274Y007227D01*
X015233Y007244D01*
X015193Y007263D01*
X015156Y007287D01*
X015120Y007313D01*
X015087Y007343D01*
X015057Y007375D01*
X015030Y007410D01*
X015006Y007447D01*
X014985Y007486D01*
X014968Y007527D01*
X014955Y007569D01*
X014945Y007612D01*
X014939Y007656D01*
X014937Y007700D01*
M02*
