G75*
%MOIN*%
%OFA0B0*%
%FSLAX24Y24*%
%IPPOS*%
%LPD*%
%AMOC8*
5,1,8,0,0,1.08239X$1,22.5*
%
%ADD10C,0.1700*%
%ADD11R,0.0602X0.0602*%
%ADD12C,0.0602*%
%ADD13C,0.1317*%
%ADD14R,0.0642X0.0642*%
%ADD15C,0.0642*%
%ADD16OC8,0.0640*%
%ADD17OC8,0.0740*%
%ADD18C,0.0100*%
%ADD19C,0.0400*%
%ADD20C,0.0340*%
%ADD21C,0.0240*%
%ADD22C,0.0320*%
%ADD23C,0.0070*%
D10*
X017937Y003531D03*
X019787Y004713D03*
X017937Y005894D03*
D11*
X013329Y006554D03*
D12*
X013329Y005767D03*
X012345Y005767D03*
X012345Y006554D03*
D13*
X010467Y004700D03*
X015207Y004700D03*
D14*
X010590Y016400D03*
D15*
X009409Y016400D03*
X008228Y016400D03*
X007046Y016400D03*
X005865Y016400D03*
X004684Y016400D03*
X004684Y015219D03*
X005865Y015219D03*
X007046Y015219D03*
X008228Y015219D03*
X009409Y015219D03*
X010590Y015219D03*
D16*
X019337Y011700D03*
X019337Y009700D03*
D17*
X002937Y014300D03*
X001937Y014300D03*
X001937Y015300D03*
X002937Y015300D03*
D18*
X003637Y015300D02*
X004213Y015300D01*
X004213Y015313D02*
X004213Y015125D01*
X004285Y014952D01*
X004418Y014820D01*
X004591Y014748D01*
X004778Y014748D01*
X004951Y014820D01*
X005037Y014906D01*
X005037Y013700D01*
X003822Y013700D01*
X003822Y013977D01*
X003714Y014085D01*
X003637Y014162D01*
X003637Y015750D01*
X003699Y015750D01*
X003787Y015838D01*
X003787Y018550D01*
X020687Y018550D01*
X020687Y005079D01*
X020685Y005084D01*
X020638Y005183D01*
X020580Y005275D01*
X020512Y005360D01*
X020435Y005437D01*
X020350Y005505D01*
X020257Y005563D01*
X020159Y005610D01*
X020056Y005646D01*
X019950Y005670D01*
X019842Y005683D01*
X019837Y005683D01*
X019837Y004763D01*
X019837Y018550D01*
X019737Y018550D02*
X019737Y011965D01*
X019702Y012000D02*
X020687Y012000D01*
X020687Y011900D02*
X019802Y011900D01*
X019807Y011895D02*
X019532Y012170D01*
X019142Y012170D01*
X018867Y011895D01*
X018867Y011505D01*
X019142Y011230D01*
X019532Y011230D01*
X019807Y011505D01*
X019807Y011895D01*
X019807Y011800D02*
X020687Y011800D01*
X020687Y011700D02*
X019807Y011700D01*
X019807Y011600D02*
X020687Y011600D01*
X020687Y011500D02*
X019802Y011500D01*
X019737Y011435D02*
X019737Y009922D01*
X019759Y009900D02*
X020687Y009900D01*
X020687Y009800D02*
X019777Y009800D01*
X019777Y009750D02*
X019777Y009882D01*
X019519Y010140D01*
X019387Y010140D01*
X019387Y009750D01*
X019287Y009750D01*
X019287Y009650D01*
X018897Y009650D01*
X018897Y009518D01*
X019155Y009260D01*
X019287Y009260D01*
X019287Y009650D01*
X019387Y009650D01*
X019387Y009260D01*
X019519Y009260D01*
X019777Y009518D01*
X019777Y009650D01*
X019387Y009650D01*
X019387Y009750D01*
X019777Y009750D01*
X019737Y009750D02*
X019737Y009650D01*
X019777Y009600D02*
X020687Y009600D01*
X020687Y009500D02*
X019759Y009500D01*
X019737Y009478D02*
X019737Y005683D01*
X019733Y005683D01*
X019625Y005670D01*
X019518Y005646D01*
X019416Y005610D01*
X019317Y005563D01*
X019225Y005505D01*
X019140Y005437D01*
X019063Y005360D01*
X018995Y005275D01*
X018937Y005183D01*
X018890Y005084D01*
X018854Y004982D01*
X018830Y004875D01*
X018817Y004767D01*
X018817Y004763D01*
X019737Y004763D01*
X019737Y004663D01*
X018817Y004663D01*
X018817Y004658D01*
X018830Y004550D01*
X018854Y004444D01*
X018890Y004341D01*
X018937Y004243D01*
X018937Y001850D01*
X018837Y001850D02*
X018837Y003167D01*
X018835Y003160D02*
X018871Y003263D01*
X018895Y003369D01*
X018907Y003477D01*
X018907Y003481D01*
X017987Y003481D01*
X017987Y002561D01*
X017991Y002561D01*
X018100Y002574D01*
X018206Y002598D01*
X018309Y002634D01*
X018407Y002681D01*
X018499Y002739D01*
X018584Y002807D01*
X018661Y002884D01*
X018729Y002969D01*
X018787Y003062D01*
X018835Y003160D01*
X018849Y003200D02*
X020687Y003200D01*
X020687Y003100D02*
X018806Y003100D01*
X018749Y003000D02*
X020687Y003000D01*
X020687Y002900D02*
X018674Y002900D01*
X018637Y002860D02*
X018637Y001850D01*
X018537Y001850D02*
X018537Y002769D01*
X018575Y002800D02*
X020687Y002800D01*
X020687Y002700D02*
X018437Y002700D01*
X018437Y001850D01*
X018337Y001850D02*
X018337Y002648D01*
X018237Y002609D02*
X018237Y001850D01*
X018137Y001850D02*
X018137Y002582D01*
X018212Y002600D02*
X020687Y002600D01*
X020687Y002500D02*
X008620Y002500D01*
X008820Y002700D01*
X017437Y002700D01*
X017437Y001850D01*
X017337Y001850D02*
X017337Y002769D01*
X017375Y002739D02*
X017467Y002681D01*
X017565Y002634D01*
X017668Y002598D01*
X017774Y002574D01*
X017883Y002561D01*
X017887Y002561D01*
X017887Y003481D01*
X017987Y003481D01*
X017987Y003581D01*
X018907Y003581D01*
X018907Y003586D01*
X018895Y003694D01*
X018871Y003800D01*
X019459Y003800D01*
X019437Y003808D02*
X019437Y001850D01*
X019337Y001850D02*
X019337Y003853D01*
X019317Y003862D02*
X019416Y003815D01*
X019518Y003779D01*
X019625Y003755D01*
X019733Y003743D01*
X019737Y003743D01*
X019737Y001850D01*
X019637Y001850D02*
X019637Y003753D01*
X019737Y003743D02*
X019737Y004663D01*
X019737Y004763D01*
X019737Y005683D01*
X019737Y005600D02*
X019837Y005600D01*
X019837Y005500D02*
X019737Y005500D01*
X019737Y005400D02*
X019837Y005400D01*
X019837Y005300D02*
X019737Y005300D01*
X019737Y005200D02*
X019837Y005200D01*
X019837Y005100D02*
X019737Y005100D01*
X019737Y005000D02*
X019837Y005000D01*
X019837Y004900D02*
X019737Y004900D01*
X019737Y004800D02*
X019837Y004800D01*
X019837Y004763D02*
X019737Y004763D01*
X019737Y004700D02*
X016016Y004700D01*
X016016Y004600D02*
X018824Y004600D01*
X018837Y004663D02*
X018837Y004763D01*
X018821Y004800D02*
X016016Y004800D01*
X016016Y004861D02*
X015893Y005158D01*
X015665Y005386D01*
X015368Y005509D01*
X015046Y005509D01*
X014749Y005386D01*
X014522Y005158D01*
X014398Y004861D01*
X014398Y004539D01*
X014522Y004242D01*
X014749Y004014D01*
X015046Y003891D01*
X015368Y003891D01*
X015665Y004014D01*
X015893Y004242D01*
X016016Y004539D01*
X016016Y004861D01*
X016000Y004900D02*
X017723Y004900D01*
X017737Y004894D02*
X017737Y004481D01*
X017774Y004489D02*
X017668Y004465D01*
X017565Y004429D01*
X017467Y004382D01*
X017375Y004324D01*
X017290Y004256D01*
X017213Y004179D01*
X017145Y004094D01*
X017087Y004001D01*
X017039Y003903D01*
X017003Y003800D01*
X008937Y003800D01*
X008937Y003900D02*
X010285Y003900D01*
X010306Y003891D02*
X010628Y003891D01*
X010925Y004014D01*
X011152Y004242D01*
X011276Y004539D01*
X011276Y004861D01*
X011152Y005158D01*
X010925Y005386D01*
X010628Y005509D01*
X010306Y005509D01*
X010009Y005386D01*
X009781Y005158D01*
X009658Y004861D01*
X009658Y004539D01*
X009781Y004242D01*
X010009Y004014D01*
X010306Y003891D01*
X010337Y003891D02*
X010337Y001850D01*
X010237Y001850D02*
X010237Y003920D01*
X010137Y003961D02*
X010137Y001850D01*
X010037Y001850D02*
X010037Y004003D01*
X010044Y004000D02*
X008937Y004000D01*
X008937Y004100D02*
X009923Y004100D01*
X009937Y004086D02*
X009937Y001850D01*
X009837Y001850D02*
X009837Y004186D01*
X009823Y004200D02*
X008937Y004200D01*
X008937Y004300D02*
X009757Y004300D01*
X009737Y004349D02*
X009737Y001850D01*
X009637Y001850D02*
X009637Y014804D01*
X009628Y014800D02*
X009837Y014800D01*
X009837Y014700D02*
X009173Y014700D01*
X009137Y014664D02*
X009137Y009953D01*
X009137Y014664D01*
X009248Y014776D01*
X009315Y014748D01*
X009502Y014748D01*
X009675Y014820D01*
X009808Y014952D01*
X009837Y015023D01*
X009837Y007417D01*
X009837Y005214D01*
X009823Y005200D02*
X008937Y005200D01*
X008937Y005100D02*
X009757Y005100D01*
X009737Y005051D02*
X009737Y014881D01*
X009756Y014900D02*
X009837Y014900D01*
X009828Y015000D02*
X009837Y015000D01*
X009537Y014762D02*
X009537Y001850D01*
X009437Y001850D02*
X009437Y014748D01*
X009337Y014748D02*
X009337Y001850D01*
X009237Y001850D02*
X009237Y009588D01*
X009242Y009600D02*
X009837Y009600D01*
X009837Y009500D02*
X009190Y009500D01*
X009208Y009519D02*
X009257Y009636D01*
X009257Y009764D01*
X009208Y009881D01*
X009137Y009953D01*
X009137Y010000D02*
X009837Y010000D01*
X009837Y010100D02*
X009137Y010100D01*
X009137Y010200D02*
X009837Y010200D01*
X009837Y010300D02*
X009137Y010300D01*
X009137Y010400D02*
X009837Y010400D01*
X009837Y010500D02*
X009137Y010500D01*
X009137Y010600D02*
X009837Y010600D01*
X009837Y010700D02*
X009137Y010700D01*
X009137Y010800D02*
X009837Y010800D01*
X009837Y010900D02*
X009137Y010900D01*
X009137Y011000D02*
X009837Y011000D01*
X009837Y011100D02*
X009137Y011100D01*
X009137Y011200D02*
X009837Y011200D01*
X009837Y011300D02*
X009137Y011300D01*
X009137Y011400D02*
X009837Y011400D01*
X009837Y011500D02*
X009137Y011500D01*
X009137Y011600D02*
X009837Y011600D01*
X009837Y011700D02*
X009137Y011700D01*
X009137Y011800D02*
X009837Y011800D01*
X009837Y011900D02*
X009137Y011900D01*
X009137Y012000D02*
X009837Y012000D01*
X009837Y012100D02*
X009137Y012100D01*
X009137Y012200D02*
X009837Y012200D01*
X009837Y012300D02*
X009137Y012300D01*
X009137Y012400D02*
X009837Y012400D01*
X009837Y012500D02*
X009137Y012500D01*
X009137Y012600D02*
X009837Y012600D01*
X009837Y012700D02*
X009137Y012700D01*
X009137Y012800D02*
X009837Y012800D01*
X009837Y012900D02*
X009137Y012900D01*
X009137Y013000D02*
X009837Y013000D01*
X009837Y013100D02*
X009137Y013100D01*
X009137Y013200D02*
X009837Y013200D01*
X009837Y013300D02*
X009137Y013300D01*
X009137Y013400D02*
X009837Y013400D01*
X009837Y013500D02*
X009137Y013500D01*
X009137Y013600D02*
X009837Y013600D01*
X009837Y013700D02*
X009137Y013700D01*
X009137Y013800D02*
X009837Y013800D01*
X009837Y013900D02*
X009137Y013900D01*
X009137Y014000D02*
X009837Y014000D01*
X009837Y014100D02*
X009137Y014100D01*
X009137Y014200D02*
X009837Y014200D01*
X009837Y014300D02*
X009137Y014300D01*
X009137Y014400D02*
X009837Y014400D01*
X009837Y014500D02*
X009137Y014500D01*
X009137Y014600D02*
X009837Y014600D01*
X010237Y014600D02*
X010390Y014600D01*
X010390Y014700D02*
X010237Y014700D01*
X010237Y014800D02*
X010371Y014800D01*
X010390Y014792D02*
X010390Y007664D01*
X011700Y006354D01*
X011866Y006354D01*
X011939Y006354D01*
X011962Y006299D01*
X012089Y006172D01*
X012117Y006161D01*
X012089Y006149D01*
X011962Y006022D01*
X011953Y006000D01*
X011820Y006000D01*
X010237Y007583D01*
X010237Y014906D01*
X010323Y014820D01*
X010390Y014792D01*
X010337Y014814D02*
X010337Y007483D01*
X010320Y007500D02*
X010554Y007500D01*
X010537Y007517D02*
X010537Y007283D01*
X010520Y007300D02*
X010754Y007300D01*
X010737Y007317D02*
X010737Y007083D01*
X010720Y007100D02*
X010954Y007100D01*
X010937Y007117D02*
X010937Y006883D01*
X010920Y006900D02*
X011154Y006900D01*
X011137Y006917D02*
X011137Y006683D01*
X011120Y006700D02*
X011354Y006700D01*
X011337Y006717D02*
X011337Y006483D01*
X011320Y006500D02*
X011554Y006500D01*
X011537Y006517D02*
X011537Y006283D01*
X011520Y006300D02*
X011962Y006300D01*
X011937Y006354D02*
X011937Y006000D01*
X011953Y006000D02*
X011820Y006000D01*
X011837Y006000D02*
X011837Y006354D01*
X011737Y006354D02*
X011737Y006083D01*
X011720Y006100D02*
X012040Y006100D01*
X012037Y006097D02*
X012037Y006224D01*
X012061Y006200D02*
X011620Y006200D01*
X011637Y006183D02*
X011637Y006417D01*
X011654Y006400D02*
X011420Y006400D01*
X011437Y006383D02*
X011437Y006617D01*
X011454Y006600D02*
X011220Y006600D01*
X011237Y006583D02*
X011237Y006817D01*
X011254Y006800D02*
X011020Y006800D01*
X011037Y006783D02*
X011037Y007017D01*
X011054Y007000D02*
X010820Y007000D01*
X010837Y006983D02*
X010837Y007217D01*
X010854Y007200D02*
X010620Y007200D01*
X010637Y007183D02*
X010637Y007417D01*
X010654Y007400D02*
X010420Y007400D01*
X010437Y007383D02*
X010437Y007617D01*
X010454Y007600D02*
X010237Y007600D01*
X010237Y007583D02*
X010237Y014906D01*
X010237Y014900D02*
X010243Y014900D01*
X010590Y015219D02*
X010590Y007747D01*
X011783Y006554D01*
X012345Y006554D01*
X012769Y006400D02*
X012878Y006400D01*
X012878Y006300D02*
X012728Y006300D01*
X012727Y006299D02*
X012796Y006465D01*
X012796Y006644D01*
X012727Y006810D01*
X012600Y006937D01*
X012435Y007005D01*
X012255Y007005D01*
X012089Y006937D01*
X011962Y006810D01*
X011939Y006754D01*
X011866Y006754D01*
X010790Y007830D01*
X010790Y014792D01*
X010856Y014820D01*
X010989Y014952D01*
X011061Y015125D01*
X011061Y015313D01*
X010989Y015486D01*
X010856Y015618D01*
X010683Y015690D01*
X010496Y015690D01*
X010323Y015618D01*
X010237Y015532D01*
X010237Y015717D01*
X010449Y015929D01*
X010973Y015929D01*
X011061Y016017D01*
X011061Y016783D01*
X010973Y016871D01*
X010207Y016871D01*
X010119Y016783D01*
X010119Y016165D01*
X009954Y016000D01*
X009837Y015883D01*
X009837Y016204D01*
X009835Y016200D02*
X010119Y016200D01*
X010119Y016300D02*
X009877Y016300D01*
X009879Y016306D02*
X009808Y016133D01*
X009675Y016001D01*
X009502Y015929D01*
X009315Y015929D01*
X009142Y016001D01*
X009010Y016133D01*
X008938Y016306D01*
X008938Y016494D01*
X009010Y016667D01*
X009142Y016799D01*
X009315Y016871D01*
X009502Y016871D01*
X009675Y016799D01*
X009808Y016667D01*
X009879Y016494D01*
X009879Y016306D01*
X009879Y016400D02*
X010119Y016400D01*
X010119Y016500D02*
X009877Y016500D01*
X009837Y016596D02*
X009837Y017003D01*
X009844Y017000D02*
X007837Y017000D01*
X007837Y017083D02*
X007835Y017084D01*
X007857Y017136D01*
X007857Y017264D01*
X007808Y017381D01*
X007718Y017471D01*
X007601Y017520D01*
X007473Y017520D01*
X007356Y017471D01*
X007266Y017381D01*
X007217Y017264D01*
X007217Y017136D01*
X007266Y017019D01*
X007356Y016929D01*
X007437Y016895D01*
X007437Y016675D01*
X007313Y016799D01*
X007140Y016871D01*
X006953Y016871D01*
X006780Y016799D01*
X006647Y016667D01*
X006576Y016494D01*
X006576Y016306D01*
X006647Y016133D01*
X006780Y016001D01*
X006953Y015929D01*
X007140Y015929D01*
X007313Y016001D01*
X007437Y016125D01*
X007437Y015494D01*
X007313Y015618D01*
X007140Y015690D01*
X006953Y015690D01*
X006780Y015618D01*
X006647Y015486D01*
X006576Y015313D01*
X006576Y015125D01*
X006603Y015059D01*
X006065Y014521D01*
X006065Y014792D01*
X006132Y014820D01*
X006264Y014952D01*
X006336Y015125D01*
X006336Y015313D01*
X006264Y015486D01*
X006132Y015618D01*
X005959Y015690D01*
X005772Y015690D01*
X005599Y015618D01*
X005466Y015486D01*
X005437Y015415D01*
X005437Y015930D01*
X005127Y016240D01*
X005155Y016306D01*
X005155Y016494D01*
X005083Y016667D01*
X004951Y016799D01*
X004778Y016871D01*
X004591Y016871D01*
X004418Y016799D01*
X004285Y016667D01*
X004213Y016494D01*
X004213Y016306D01*
X004285Y016133D01*
X004418Y016001D01*
X004591Y015929D01*
X004778Y015929D01*
X004845Y015957D01*
X005037Y015764D01*
X005037Y015532D01*
X004951Y015618D01*
X004778Y015690D01*
X004591Y015690D01*
X004418Y015618D01*
X004285Y015486D01*
X004213Y015313D01*
X004237Y015369D02*
X004237Y016250D01*
X004258Y016200D02*
X003787Y016200D01*
X003787Y016100D02*
X004318Y016100D01*
X004337Y016081D02*
X004337Y015537D01*
X004300Y015500D02*
X003637Y015500D01*
X003637Y015600D02*
X004400Y015600D01*
X004437Y015626D02*
X004437Y015993D01*
X004420Y016000D02*
X003787Y016000D01*
X003787Y015900D02*
X004901Y015900D01*
X004937Y015864D02*
X004937Y015624D01*
X004969Y015600D02*
X005037Y015600D01*
X005037Y015700D02*
X003637Y015700D01*
X003637Y015750D02*
X003637Y014162D01*
X003637Y014200D02*
X005037Y014200D01*
X005037Y014300D02*
X003637Y014300D01*
X003637Y014400D02*
X005037Y014400D01*
X005037Y014500D02*
X003637Y014500D01*
X003637Y014600D02*
X005037Y014600D01*
X005037Y014700D02*
X003637Y014700D01*
X003637Y014800D02*
X004465Y014800D01*
X004437Y014812D02*
X004437Y013700D01*
X004337Y013700D02*
X004337Y014900D01*
X003637Y014900D01*
X003637Y015000D02*
X004265Y015000D01*
X004237Y015068D02*
X004237Y013700D01*
X004137Y013700D02*
X004137Y018550D01*
X004037Y018550D02*
X004037Y013700D01*
X003937Y013700D02*
X003937Y018550D01*
X003837Y018550D02*
X003837Y013700D01*
X003822Y013700D02*
X005037Y013700D01*
X004937Y013700D02*
X004937Y014814D01*
X004903Y014800D02*
X005037Y014800D01*
X005031Y014900D02*
X005037Y014900D01*
X004837Y014773D02*
X004837Y013700D01*
X004737Y013700D02*
X004737Y014748D01*
X004637Y014748D02*
X004637Y013700D01*
X004537Y013700D02*
X004537Y014770D01*
X004224Y015100D02*
X003637Y015100D01*
X003637Y015200D02*
X004213Y015200D01*
X004250Y015400D02*
X003637Y015400D01*
X003737Y015788D02*
X003737Y014062D01*
X003699Y014100D02*
X005037Y014100D01*
X005037Y014000D02*
X003799Y014000D01*
X003822Y013900D02*
X005037Y013900D01*
X005037Y013800D02*
X003822Y013800D01*
X005437Y013800D02*
X005665Y013800D01*
X005665Y013900D02*
X005437Y013900D01*
X005437Y014000D02*
X005665Y014000D01*
X005665Y014100D02*
X005437Y014100D01*
X005437Y014200D02*
X005665Y014200D01*
X005665Y014300D02*
X005437Y014300D01*
X005437Y014400D02*
X005665Y014400D01*
X005665Y014500D02*
X005437Y014500D01*
X005437Y014600D02*
X005665Y014600D01*
X005665Y014700D02*
X005437Y014700D01*
X005437Y014800D02*
X005646Y014800D01*
X005637Y014804D02*
X005637Y013700D01*
X005665Y013700D02*
X005437Y013700D01*
X005665Y013700D01*
X005665Y014792D01*
X005599Y014820D01*
X005466Y014952D01*
X005437Y015023D01*
X005437Y013700D01*
X005437Y015023D01*
X005437Y015000D02*
X005446Y015000D01*
X005437Y014900D02*
X005518Y014900D01*
X005537Y014881D02*
X005537Y013700D01*
X006437Y013700D02*
X006437Y014327D01*
X006437Y011512D01*
X006437Y013700D01*
X006837Y013700D01*
X006837Y013600D02*
X006437Y013600D01*
X006437Y013700D02*
X006437Y013700D01*
X006437Y013800D02*
X006837Y013800D01*
X006837Y013900D02*
X006437Y013900D01*
X006437Y014000D02*
X006837Y014000D01*
X006837Y014100D02*
X006437Y014100D01*
X006437Y014200D02*
X006837Y014200D01*
X006837Y014300D02*
X006437Y014300D01*
X006437Y014327D02*
X006886Y014776D01*
X006953Y014748D01*
X007140Y014748D01*
X007246Y014792D01*
X006837Y014383D01*
X006837Y014727D01*
X006810Y014700D02*
X007154Y014700D01*
X007137Y014683D02*
X007137Y014748D01*
X007037Y014748D02*
X007037Y014583D01*
X007054Y014600D02*
X006710Y014600D01*
X006737Y014627D02*
X006737Y011912D01*
X006732Y011900D02*
X006437Y011900D01*
X006437Y012000D02*
X006784Y012000D01*
X006766Y011981D02*
X006717Y011864D01*
X006717Y011736D01*
X006724Y011720D01*
X006673Y011720D01*
X006556Y011671D01*
X006466Y011581D01*
X006437Y011512D01*
X006437Y011600D02*
X006484Y011600D01*
X006537Y011653D02*
X006537Y014427D01*
X006510Y014400D02*
X006854Y014400D01*
X006837Y014383D02*
X006837Y012053D01*
X006766Y011981D01*
X006837Y012100D02*
X006437Y012100D01*
X006437Y012200D02*
X006837Y012200D01*
X006837Y012300D02*
X006437Y012300D01*
X006437Y012400D02*
X006837Y012400D01*
X006837Y012500D02*
X006437Y012500D01*
X006437Y012600D02*
X006837Y012600D01*
X006837Y012700D02*
X006437Y012700D01*
X006437Y012800D02*
X006837Y012800D01*
X006837Y012900D02*
X006437Y012900D01*
X006437Y013000D02*
X006837Y013000D01*
X006837Y013100D02*
X006437Y013100D01*
X006437Y013200D02*
X006837Y013200D01*
X006837Y013300D02*
X006437Y013300D01*
X006437Y013400D02*
X006837Y013400D01*
X006837Y013500D02*
X006437Y013500D01*
X007237Y013500D02*
X007237Y013500D01*
X007237Y013400D02*
X007237Y013400D01*
X007237Y013300D02*
X007237Y013300D01*
X007237Y013200D02*
X007237Y013200D01*
X007237Y013100D02*
X007237Y013100D01*
X007237Y013000D02*
X007237Y013000D01*
X007237Y012900D02*
X007237Y012900D01*
X007237Y012800D02*
X007237Y012800D01*
X007237Y012700D02*
X007237Y012700D01*
X007237Y012600D02*
X007237Y012600D01*
X007237Y012500D02*
X007237Y012500D01*
X007237Y012400D02*
X007237Y012400D01*
X007237Y012300D02*
X007237Y012300D01*
X007237Y012200D02*
X007237Y012200D01*
X007237Y012100D02*
X007237Y012100D01*
X007237Y012053D02*
X007237Y012053D01*
X007237Y014217D01*
X007237Y014217D01*
X007237Y012053D01*
X007037Y011800D02*
X007037Y014300D01*
X007637Y014900D01*
X007637Y017000D01*
X007537Y017100D01*
X007537Y017200D01*
X007217Y017200D02*
X005743Y017200D01*
X005737Y017194D02*
X005737Y016856D01*
X005772Y016871D02*
X005599Y016799D01*
X005466Y016667D01*
X005395Y016494D01*
X005395Y016306D01*
X005466Y016133D01*
X005599Y016001D01*
X005772Y015929D01*
X005959Y015929D01*
X006132Y016001D01*
X006264Y016133D01*
X006336Y016306D01*
X006336Y016494D01*
X006264Y016667D01*
X006132Y016799D01*
X005959Y016871D01*
X005772Y016871D01*
X005837Y016871D02*
X005837Y017352D01*
X005857Y017400D02*
X007284Y017400D01*
X007337Y017453D02*
X007337Y018550D01*
X007237Y018550D02*
X007237Y017312D01*
X007232Y017300D02*
X005815Y017300D01*
X005796Y017253D02*
X005889Y017479D01*
X005889Y017723D01*
X005796Y017949D01*
X005623Y018122D01*
X005397Y018215D01*
X005153Y018215D01*
X004927Y018122D01*
X004754Y017949D01*
X004660Y017723D01*
X004660Y017479D01*
X004754Y017253D01*
X004927Y017080D01*
X005153Y016986D01*
X005397Y016986D01*
X005623Y017080D01*
X005796Y017253D01*
X005643Y017100D02*
X007232Y017100D01*
X007237Y017088D02*
X007237Y016831D01*
X007311Y016800D02*
X007437Y016800D01*
X007437Y016700D02*
X007412Y016700D01*
X007337Y016775D02*
X007337Y016947D01*
X007284Y017000D02*
X005430Y017000D01*
X005437Y017003D02*
X005437Y016596D01*
X005439Y016600D02*
X005111Y016600D01*
X005137Y016537D02*
X005137Y016993D01*
X005119Y017000D02*
X003787Y017000D01*
X003787Y017100D02*
X004906Y017100D01*
X004937Y017076D02*
X004937Y016805D01*
X004949Y016800D02*
X005601Y016800D01*
X005637Y016815D02*
X005637Y017094D01*
X005537Y017044D02*
X005537Y016737D01*
X005500Y016700D02*
X005050Y016700D01*
X005037Y016713D02*
X005037Y017034D01*
X005237Y016986D02*
X005237Y016130D01*
X005267Y016100D02*
X005500Y016100D01*
X005537Y016063D02*
X005537Y015556D01*
X005581Y015600D02*
X005437Y015600D01*
X005437Y015500D02*
X005481Y015500D01*
X005437Y015415D02*
X005437Y016204D01*
X005439Y016200D02*
X005167Y016200D01*
X005137Y016230D02*
X005137Y016263D01*
X005152Y016300D02*
X005397Y016300D01*
X005395Y016400D02*
X005155Y016400D01*
X005152Y016500D02*
X005397Y016500D01*
X005337Y016030D02*
X005337Y016986D01*
X005889Y017500D02*
X007425Y017500D01*
X007437Y017505D02*
X007437Y018550D01*
X007537Y018550D02*
X007537Y017520D01*
X007637Y017505D02*
X007637Y018550D01*
X007737Y018550D02*
X007737Y017453D01*
X007790Y017400D02*
X009417Y017400D01*
X009437Y017352D02*
X009437Y016871D01*
X009337Y016871D02*
X009337Y018550D01*
X009237Y018550D02*
X009237Y016838D01*
X009144Y016800D02*
X008413Y016800D01*
X008397Y016808D02*
X008331Y016830D01*
X008278Y016838D01*
X008278Y016450D01*
X008666Y016450D01*
X008657Y016503D01*
X008636Y016569D01*
X008605Y016631D01*
X008564Y016687D01*
X008515Y016736D01*
X008459Y016777D01*
X008397Y016808D01*
X008437Y016788D02*
X008437Y018550D01*
X008337Y018550D02*
X008337Y016828D01*
X008278Y016800D02*
X008178Y016800D01*
X008178Y016838D02*
X008124Y016830D01*
X008058Y016808D01*
X007997Y016777D01*
X007940Y016736D01*
X007891Y016687D01*
X007851Y016631D01*
X007837Y016604D01*
X007837Y017083D01*
X007837Y017088D02*
X007837Y016604D01*
X007837Y016700D02*
X007904Y016700D01*
X007937Y016733D02*
X007937Y018550D01*
X007837Y018550D02*
X007837Y017312D01*
X007842Y017300D02*
X009459Y017300D01*
X009478Y017253D02*
X009651Y017080D01*
X009877Y016986D01*
X010121Y016986D01*
X010347Y017080D01*
X010520Y017253D01*
X010614Y017479D01*
X010614Y017723D01*
X010520Y017949D01*
X010347Y018122D01*
X010121Y018215D01*
X009877Y018215D01*
X009651Y018122D01*
X009478Y017949D01*
X009385Y017723D01*
X009385Y017479D01*
X009478Y017253D01*
X009531Y017200D02*
X007857Y017200D01*
X007842Y017100D02*
X009631Y017100D01*
X009637Y017094D02*
X009637Y016815D01*
X009673Y016800D02*
X010136Y016800D01*
X010137Y016801D02*
X010137Y016993D01*
X010155Y017000D02*
X020687Y017000D01*
X020687Y017100D02*
X010368Y017100D01*
X010337Y017076D02*
X010337Y016871D01*
X010237Y016871D02*
X010237Y017034D01*
X010037Y016986D02*
X010037Y016083D01*
X010054Y016100D02*
X009774Y016100D01*
X009737Y016063D02*
X009737Y015556D01*
X009693Y015600D02*
X009837Y015600D01*
X009837Y015500D02*
X009793Y015500D01*
X009808Y015486D02*
X009675Y015618D01*
X009502Y015690D01*
X009315Y015690D01*
X009142Y015618D01*
X009010Y015486D01*
X008938Y015313D01*
X008938Y015125D01*
X008965Y015059D01*
X008737Y014830D01*
X008737Y018550D01*
X008637Y018550D02*
X008637Y016566D01*
X008620Y016600D02*
X008982Y016600D01*
X008941Y016500D02*
X008658Y016500D01*
X008637Y016450D02*
X008637Y016350D01*
X008666Y016350D02*
X008278Y016350D01*
X008278Y016450D01*
X008178Y016450D01*
X008178Y016838D01*
X008137Y016832D02*
X008137Y018550D01*
X008037Y018550D02*
X008037Y016798D01*
X008042Y016800D02*
X007837Y016800D01*
X007837Y016900D02*
X020687Y016900D01*
X020687Y016800D02*
X011043Y016800D01*
X011037Y016806D02*
X011037Y018550D01*
X010937Y018550D02*
X010937Y016871D01*
X010837Y016871D02*
X010837Y018550D01*
X010737Y018550D02*
X010737Y016871D01*
X010637Y016871D02*
X010637Y018550D01*
X010537Y018550D02*
X010537Y017908D01*
X010540Y017900D02*
X020687Y017900D01*
X020687Y017800D02*
X010582Y017800D01*
X010614Y017700D02*
X020687Y017700D01*
X020687Y017600D02*
X010614Y017600D01*
X010614Y017500D02*
X020687Y017500D01*
X020687Y017400D02*
X010581Y017400D01*
X010540Y017300D02*
X020687Y017300D01*
X020687Y017200D02*
X010468Y017200D01*
X010437Y017169D02*
X010437Y016871D01*
X010537Y016871D02*
X010537Y017293D01*
X009937Y016986D02*
X009937Y015983D01*
X009954Y016000D02*
X009673Y016000D01*
X009637Y015985D02*
X009637Y015634D01*
X009537Y015675D02*
X009537Y015944D01*
X009437Y015929D02*
X009437Y015690D01*
X009337Y015690D02*
X009337Y015929D01*
X009237Y015962D02*
X009237Y015657D01*
X009137Y015613D02*
X009137Y016006D01*
X009144Y016000D02*
X008413Y016000D01*
X008397Y015992D02*
X008459Y016023D01*
X008515Y016064D01*
X008564Y016113D01*
X008605Y016169D01*
X008636Y016231D01*
X008657Y016297D01*
X008666Y016350D01*
X008658Y016300D02*
X008941Y016300D01*
X008938Y016400D02*
X008278Y016400D01*
X008278Y016350D02*
X008178Y016350D01*
X008178Y015962D01*
X008124Y015970D01*
X008058Y015992D01*
X007997Y016023D01*
X007940Y016064D01*
X007891Y016113D01*
X007851Y016169D01*
X007837Y016196D01*
X007837Y015494D01*
X007961Y015618D01*
X008134Y015690D01*
X008321Y015690D01*
X008494Y015618D01*
X008627Y015486D01*
X008698Y015313D01*
X008698Y015125D01*
X008627Y014952D01*
X008494Y014820D01*
X008321Y014748D01*
X008168Y014748D01*
X007637Y014217D01*
X007637Y011317D01*
X007557Y011237D01*
X007557Y011136D01*
X007508Y011019D01*
X007418Y010929D01*
X007301Y010880D01*
X007173Y010880D01*
X007056Y010929D01*
X006966Y011019D01*
X006937Y011088D01*
X006937Y001850D01*
X006837Y001850D02*
X006837Y005517D01*
X006820Y005500D02*
X008525Y005500D01*
X008537Y005495D02*
X008537Y002983D01*
X008454Y002900D01*
X008290Y002900D01*
X008218Y002971D01*
X008101Y003020D01*
X007973Y003020D01*
X007856Y002971D01*
X007766Y002881D01*
X007717Y002764D01*
X007717Y002636D01*
X007766Y002519D01*
X007856Y002429D01*
X007973Y002380D01*
X008101Y002380D01*
X008218Y002429D01*
X008290Y002500D01*
X008620Y002500D01*
X008637Y002517D02*
X008637Y001850D01*
X008537Y001850D02*
X008537Y002500D01*
X008437Y002500D02*
X008437Y001850D01*
X008337Y001850D02*
X008337Y002500D01*
X008237Y002447D02*
X008237Y001850D01*
X008137Y001850D02*
X008137Y002395D01*
X008149Y002400D02*
X020687Y002400D01*
X020687Y002300D02*
X006437Y002300D01*
X006437Y002400D02*
X007925Y002400D01*
X007937Y002395D02*
X007937Y001850D01*
X007837Y001850D02*
X007837Y002447D01*
X007784Y002500D02*
X006437Y002500D01*
X006437Y002600D02*
X007732Y002600D01*
X007737Y002588D02*
X007737Y001850D01*
X007637Y001850D02*
X007637Y014217D01*
X007637Y014200D02*
X008737Y014200D01*
X008737Y014300D02*
X007720Y014300D01*
X007737Y014317D02*
X007737Y002812D01*
X007732Y002800D02*
X006437Y002800D01*
X006437Y002700D02*
X007717Y002700D01*
X007784Y002900D02*
X006437Y002900D01*
X006437Y003000D02*
X007925Y003000D01*
X007937Y003005D02*
X007937Y014517D01*
X007920Y014500D02*
X008737Y014500D01*
X008737Y014400D02*
X007820Y014400D01*
X007837Y014417D02*
X007837Y002953D01*
X008037Y003020D02*
X008037Y014617D01*
X008020Y014600D02*
X008737Y014600D01*
X008737Y014700D02*
X008120Y014700D01*
X008137Y014717D02*
X008137Y003005D01*
X008149Y003000D02*
X008537Y003000D01*
X008537Y003100D02*
X006437Y003100D01*
X006437Y003200D02*
X008537Y003200D01*
X008537Y003300D02*
X006437Y003300D01*
X006437Y003400D02*
X008537Y003400D01*
X008537Y003500D02*
X006437Y003500D01*
X006437Y003600D02*
X008537Y003600D01*
X008537Y003700D02*
X006437Y003700D01*
X006437Y003800D02*
X008537Y003800D01*
X008537Y003900D02*
X006437Y003900D01*
X006437Y004000D02*
X008537Y004000D01*
X008537Y004100D02*
X006437Y004100D01*
X006437Y004200D02*
X008537Y004200D01*
X008537Y004300D02*
X006437Y004300D01*
X006437Y004400D02*
X008537Y004400D01*
X008537Y004500D02*
X006437Y004500D01*
X006437Y004600D02*
X008537Y004600D01*
X008537Y004700D02*
X006437Y004700D01*
X006437Y004800D02*
X008537Y004800D01*
X008537Y004900D02*
X006437Y004900D01*
X006437Y004947D02*
X006437Y001850D01*
X006437Y004947D01*
X006508Y005019D01*
X006557Y005136D01*
X006557Y005237D01*
X006937Y005617D01*
X006937Y011088D01*
X006937Y011000D02*
X006984Y011000D01*
X007037Y010947D02*
X007037Y001850D01*
X007137Y001850D02*
X007137Y010895D01*
X007125Y010900D02*
X006937Y010900D01*
X006937Y010800D02*
X008737Y010800D01*
X008737Y010900D02*
X007349Y010900D01*
X007337Y010895D02*
X007337Y001850D01*
X007237Y001850D02*
X007237Y010880D01*
X007437Y010947D02*
X007437Y001850D01*
X007537Y001850D02*
X007537Y011088D01*
X007542Y011100D02*
X008737Y011100D01*
X008737Y011000D02*
X007490Y011000D01*
X007557Y011200D02*
X008737Y011200D01*
X008737Y011300D02*
X007620Y011300D01*
X007637Y011400D02*
X008737Y011400D01*
X008737Y011500D02*
X007637Y011500D01*
X007637Y011600D02*
X008737Y011600D01*
X008737Y011700D02*
X007637Y011700D01*
X007637Y011800D02*
X008737Y011800D01*
X008737Y011900D02*
X007637Y011900D01*
X007637Y012000D02*
X008737Y012000D01*
X008737Y012100D02*
X007637Y012100D01*
X007637Y012200D02*
X008737Y012200D01*
X008737Y012300D02*
X007637Y012300D01*
X007637Y012400D02*
X008737Y012400D01*
X008737Y012500D02*
X007637Y012500D01*
X007637Y012600D02*
X008737Y012600D01*
X008737Y012700D02*
X007637Y012700D01*
X007637Y012800D02*
X008737Y012800D01*
X008737Y012900D02*
X007637Y012900D01*
X007637Y013000D02*
X008737Y013000D01*
X008737Y013100D02*
X007637Y013100D01*
X007637Y013200D02*
X008737Y013200D01*
X008737Y013300D02*
X007637Y013300D01*
X007637Y013400D02*
X008737Y013400D01*
X008737Y013500D02*
X007637Y013500D01*
X007637Y013600D02*
X008737Y013600D01*
X008737Y013700D02*
X007637Y013700D01*
X007637Y013800D02*
X008737Y013800D01*
X008737Y013900D02*
X007637Y013900D01*
X007637Y014000D02*
X008737Y014000D01*
X008737Y014100D02*
X007637Y014100D01*
X007437Y014300D02*
X007437Y011400D01*
X007237Y011200D01*
X007237Y011520D02*
X007197Y011520D01*
X007218Y011529D01*
X007237Y011547D01*
X007237Y011520D01*
X006737Y011400D02*
X006737Y005700D01*
X006237Y005200D01*
X006490Y005000D02*
X008537Y005000D01*
X008537Y005100D02*
X006542Y005100D01*
X006537Y005088D02*
X006537Y001850D01*
X006437Y001850D02*
X020687Y001850D01*
X020687Y004347D01*
X020685Y004341D01*
X020638Y004243D01*
X020580Y004150D01*
X020512Y004065D01*
X020435Y003988D01*
X020350Y003920D01*
X020257Y003862D01*
X020159Y003815D01*
X020056Y003779D01*
X019950Y003755D01*
X019842Y003743D01*
X019837Y003743D01*
X019837Y004663D01*
X019837Y001850D01*
X019937Y001850D02*
X019937Y003753D01*
X020037Y003775D02*
X020037Y001850D01*
X020137Y001850D02*
X020137Y003807D01*
X020116Y003800D02*
X020687Y003800D01*
X020687Y003900D02*
X020317Y003900D01*
X020337Y003912D02*
X020337Y001850D01*
X020237Y001850D02*
X020237Y003852D01*
X020437Y003990D02*
X020437Y001850D01*
X020537Y001850D02*
X020537Y004097D01*
X020540Y004100D02*
X020687Y004100D01*
X020687Y004000D02*
X020447Y004000D01*
X020611Y004200D02*
X020687Y004200D01*
X020637Y004242D02*
X020637Y001850D01*
X020687Y001900D02*
X006437Y001900D01*
X006437Y002000D02*
X020687Y002000D01*
X020687Y002100D02*
X006437Y002100D01*
X006437Y002200D02*
X020687Y002200D01*
X020687Y003300D02*
X018879Y003300D01*
X018898Y003400D02*
X020687Y003400D01*
X020687Y003500D02*
X017987Y003500D01*
X017937Y003481D02*
X017937Y001850D01*
X017837Y001850D02*
X017837Y002567D01*
X017887Y002600D02*
X017987Y002600D01*
X018037Y002567D02*
X018037Y001850D01*
X017737Y001850D02*
X017737Y002582D01*
X017662Y002600D02*
X008720Y002600D01*
X008737Y002617D02*
X008737Y001850D01*
X008837Y001850D02*
X008837Y002717D01*
X008820Y002700D02*
X008937Y002817D01*
X008937Y005688D01*
X008957Y005736D01*
X008957Y005864D01*
X008908Y005981D01*
X008818Y006071D01*
X008701Y006120D01*
X008573Y006120D01*
X008456Y006071D01*
X008366Y005981D01*
X008317Y005864D01*
X008317Y005736D01*
X008366Y005619D01*
X008456Y005529D01*
X008537Y005495D01*
X008537Y005400D02*
X006720Y005400D01*
X006737Y005417D02*
X006737Y001850D01*
X006637Y001850D02*
X006637Y005317D01*
X006620Y005300D02*
X008537Y005300D01*
X008537Y005200D02*
X006557Y005200D01*
X006920Y005600D02*
X008384Y005600D01*
X008437Y005547D02*
X008437Y002900D01*
X008454Y002900D02*
X008290Y002900D01*
X008337Y002900D02*
X008337Y005688D01*
X008332Y005700D02*
X006937Y005700D01*
X006937Y005800D02*
X008317Y005800D01*
X008332Y005900D02*
X006937Y005900D01*
X006937Y006000D02*
X008384Y006000D01*
X008437Y006053D02*
X008437Y014796D01*
X008446Y014800D02*
X008737Y014800D01*
X008737Y014830D02*
X008737Y009953D01*
X008666Y009881D01*
X008617Y009764D01*
X008617Y009636D01*
X008666Y009519D01*
X008756Y009429D01*
X008873Y009380D01*
X009001Y009380D01*
X009118Y009429D01*
X009208Y009519D01*
X009137Y009447D02*
X009137Y001850D01*
X009037Y001850D02*
X009037Y009395D01*
X009049Y009400D02*
X009837Y009400D01*
X009837Y009300D02*
X006937Y009300D01*
X006937Y009400D02*
X008825Y009400D01*
X008837Y009395D02*
X008837Y006053D01*
X008890Y006000D02*
X011254Y006000D01*
X011237Y006017D02*
X011237Y004954D01*
X011218Y005000D02*
X014456Y005000D01*
X014437Y004954D02*
X014437Y018550D01*
X014337Y018550D02*
X014337Y001850D01*
X014237Y001850D02*
X014237Y018550D01*
X014137Y018550D02*
X014137Y001850D01*
X014037Y001850D02*
X014037Y018550D01*
X013937Y018550D02*
X013937Y001850D01*
X013837Y001850D02*
X013837Y018550D01*
X013737Y018550D02*
X013737Y006961D01*
X013698Y007000D02*
X020687Y007000D01*
X020687Y007100D02*
X015687Y007100D01*
X015637Y007079D02*
X015637Y005397D01*
X015630Y005400D02*
X017059Y005400D01*
X017037Y005453D02*
X017037Y003896D01*
X017038Y003900D02*
X015389Y003900D01*
X015437Y003920D02*
X015437Y001850D01*
X015337Y001850D02*
X015337Y003891D01*
X015237Y003891D02*
X015237Y001850D01*
X015137Y001850D02*
X015137Y003891D01*
X015037Y003895D02*
X015037Y001850D01*
X014937Y001850D02*
X014937Y003937D01*
X015025Y003900D02*
X010649Y003900D01*
X010637Y003895D02*
X010637Y001850D01*
X010537Y001850D02*
X010537Y003891D01*
X010437Y003891D02*
X010437Y001850D01*
X010737Y001850D02*
X010737Y003937D01*
X010837Y003978D02*
X010837Y001850D01*
X010937Y001850D02*
X010937Y004026D01*
X010890Y004000D02*
X014784Y004000D01*
X014737Y004026D02*
X014737Y001850D01*
X014637Y001850D02*
X014637Y004126D01*
X014663Y004100D02*
X011011Y004100D01*
X011037Y004126D02*
X011037Y001850D01*
X011137Y001850D02*
X011137Y004226D01*
X011111Y004200D02*
X014563Y004200D01*
X014537Y004226D02*
X014537Y001850D01*
X014437Y001850D02*
X014437Y004446D01*
X014456Y004400D02*
X011218Y004400D01*
X011237Y004446D02*
X011237Y001850D01*
X011337Y001850D02*
X011337Y005917D01*
X011354Y005900D02*
X008942Y005900D01*
X008937Y005912D02*
X008937Y009380D01*
X008737Y009447D02*
X008737Y006105D01*
X008749Y006100D02*
X011154Y006100D01*
X011137Y006117D02*
X011137Y005174D01*
X011111Y005200D02*
X014563Y005200D01*
X014537Y005174D02*
X014537Y018550D01*
X014637Y018550D02*
X014637Y005274D01*
X014663Y005300D02*
X011011Y005300D01*
X011037Y005274D02*
X011037Y006217D01*
X011054Y006200D02*
X006937Y006200D01*
X006937Y006100D02*
X008525Y006100D01*
X008537Y006105D02*
X008537Y014863D01*
X008574Y014900D02*
X008807Y014900D01*
X008837Y014930D02*
X008837Y018550D01*
X008937Y018550D02*
X008937Y015030D01*
X008907Y015000D02*
X008646Y015000D01*
X008637Y014977D02*
X008637Y009812D01*
X008632Y009800D02*
X006937Y009800D01*
X006937Y009700D02*
X008617Y009700D01*
X008632Y009600D02*
X006937Y009600D01*
X006937Y009500D02*
X008684Y009500D01*
X008637Y009588D02*
X008637Y006120D01*
X008337Y005912D02*
X008337Y014755D01*
X008237Y014748D02*
X008237Y002953D01*
X008037Y002700D02*
X008537Y002700D01*
X008737Y002900D01*
X008737Y005700D01*
X008637Y005800D01*
X008957Y005800D02*
X011454Y005800D01*
X011437Y005817D02*
X011437Y001850D01*
X011537Y001850D02*
X011537Y005717D01*
X011654Y005600D01*
X008937Y005600D01*
X008937Y005688D02*
X008937Y001850D01*
X008037Y001850D02*
X008037Y002380D01*
X008920Y002800D02*
X017299Y002800D01*
X017290Y002807D02*
X017375Y002739D01*
X017290Y002807D02*
X017213Y002884D01*
X017145Y002969D01*
X017087Y003062D01*
X017039Y003160D01*
X017003Y003263D01*
X016979Y003369D01*
X016967Y003477D01*
X016967Y003481D01*
X017887Y003481D01*
X017887Y003581D01*
X016967Y003581D01*
X016967Y003586D01*
X016979Y003694D01*
X017003Y003800D01*
X016981Y003700D02*
X008937Y003700D01*
X008937Y003600D02*
X016969Y003600D01*
X017037Y003581D02*
X017037Y003481D01*
X017137Y003481D02*
X017137Y003581D01*
X017237Y003581D02*
X017237Y003481D01*
X017337Y003481D02*
X017337Y003581D01*
X017437Y003581D02*
X017437Y003481D01*
X017537Y003481D02*
X017537Y003581D01*
X017637Y003581D02*
X017637Y003481D01*
X017737Y003481D02*
X017737Y003581D01*
X017837Y003581D02*
X017837Y003481D01*
X017887Y003500D02*
X008937Y003500D01*
X008937Y003400D02*
X016976Y003400D01*
X016995Y003300D02*
X008937Y003300D01*
X008937Y003200D02*
X017025Y003200D01*
X017037Y003167D02*
X017037Y001850D01*
X016937Y001850D02*
X016937Y005695D01*
X017089Y005327D01*
X017371Y005046D01*
X017738Y004894D01*
X018136Y004894D01*
X018503Y005046D01*
X018785Y005327D01*
X018937Y005695D01*
X018937Y006093D01*
X018785Y006460D01*
X018503Y006741D01*
X018136Y006894D01*
X017738Y006894D01*
X017371Y006741D01*
X017089Y006460D01*
X016937Y006093D01*
X016937Y018550D01*
X016837Y018550D02*
X016837Y001850D01*
X016737Y001850D02*
X016737Y018550D01*
X016637Y018550D02*
X016637Y001850D01*
X016537Y001850D02*
X016537Y018550D01*
X016437Y018550D02*
X016437Y001850D01*
X016337Y001850D02*
X016337Y018550D01*
X016237Y018550D02*
X016237Y001850D01*
X016137Y001850D02*
X016137Y018550D01*
X016037Y018550D02*
X016037Y015950D01*
X016016Y016000D02*
X020687Y016000D01*
X020687Y015900D02*
X016058Y015900D01*
X016087Y015829D02*
X015988Y016068D01*
X015805Y016251D01*
X015566Y016350D01*
X015308Y016350D01*
X015069Y016251D01*
X014886Y016068D01*
X014787Y015829D01*
X014787Y015571D01*
X014886Y015332D01*
X015069Y015149D01*
X015308Y015050D01*
X015566Y015050D01*
X015805Y015149D01*
X015988Y015332D01*
X016087Y015571D01*
X016087Y015829D01*
X016087Y015800D02*
X020687Y015800D01*
X020687Y015700D02*
X016087Y015700D01*
X016087Y015600D02*
X020687Y015600D01*
X020687Y015500D02*
X016058Y015500D01*
X016037Y015450D02*
X016037Y007950D01*
X016016Y008000D02*
X020687Y008000D01*
X020687Y008100D02*
X015956Y008100D01*
X015937Y008119D02*
X015937Y015281D01*
X015956Y015300D02*
X020687Y015300D01*
X020687Y015400D02*
X016016Y015400D01*
X015856Y015200D02*
X020687Y015200D01*
X020687Y015100D02*
X015687Y015100D01*
X015637Y015079D02*
X015637Y008321D01*
X015687Y008300D02*
X020687Y008300D01*
X020687Y008400D02*
X010790Y008400D01*
X010790Y008300D02*
X015187Y008300D01*
X015137Y008279D02*
X015137Y015121D01*
X015187Y015100D02*
X011050Y015100D01*
X011037Y015068D02*
X011037Y007583D01*
X011020Y007600D02*
X014787Y007600D01*
X014787Y007571D02*
X014886Y007332D01*
X015069Y007149D01*
X015308Y007050D01*
X015566Y007050D01*
X015805Y007149D01*
X015988Y007332D01*
X016087Y007571D01*
X016087Y007829D01*
X015988Y008068D01*
X015805Y008251D01*
X015566Y008350D01*
X015308Y008350D01*
X015069Y008251D01*
X014886Y008068D01*
X014787Y007829D01*
X014787Y007571D01*
X014816Y007500D02*
X011120Y007500D01*
X011137Y007483D02*
X011137Y018550D01*
X011237Y018550D02*
X011237Y007383D01*
X011220Y007400D02*
X014858Y007400D01*
X014837Y007450D02*
X014837Y005422D01*
X014784Y005400D02*
X013537Y005400D01*
X013537Y001850D01*
X013437Y001850D02*
X013437Y005359D01*
X013428Y005356D02*
X013491Y005377D01*
X013550Y005407D01*
X013603Y005446D01*
X013650Y005493D01*
X013689Y005546D01*
X013719Y005605D01*
X013740Y005668D01*
X013749Y005726D01*
X013370Y005726D01*
X013370Y005807D01*
X013749Y005807D01*
X013740Y005866D01*
X013719Y005929D01*
X013689Y005988D01*
X013650Y006041D01*
X013603Y006088D01*
X013583Y006103D01*
X013692Y006103D01*
X013780Y006191D01*
X013780Y006918D01*
X013692Y007005D01*
X012966Y007005D01*
X012878Y006918D01*
X012878Y006191D01*
X012966Y006103D01*
X013076Y006103D01*
X013055Y006088D01*
X013008Y006041D01*
X012969Y005988D01*
X012939Y005929D01*
X012918Y005866D01*
X012909Y005807D01*
X013289Y005807D01*
X013289Y005726D01*
X013370Y005726D01*
X013370Y005347D01*
X013428Y005356D01*
X013370Y005400D02*
X013289Y005400D01*
X013289Y005347D02*
X013289Y005726D01*
X012909Y005726D01*
X012918Y005668D01*
X012939Y005605D01*
X012969Y005546D01*
X013008Y005493D01*
X013055Y005446D01*
X013108Y005407D01*
X013167Y005377D01*
X013231Y005356D01*
X013289Y005347D01*
X013237Y005355D02*
X013237Y001850D01*
X013137Y001850D02*
X013137Y005392D01*
X013122Y005400D02*
X012616Y005400D01*
X012600Y005385D02*
X012727Y005511D01*
X012796Y005677D01*
X012796Y005857D01*
X012727Y006022D01*
X012600Y006149D01*
X012573Y006161D01*
X012600Y006172D01*
X012727Y006299D01*
X012737Y006322D02*
X012737Y005999D01*
X012737Y006000D02*
X012978Y006000D01*
X012937Y005923D02*
X012937Y006132D01*
X012878Y006200D02*
X012629Y006200D01*
X012637Y006209D02*
X012637Y006113D01*
X012650Y006100D02*
X013071Y006100D01*
X013037Y006103D02*
X013037Y006070D01*
X012930Y005900D02*
X012778Y005900D01*
X012796Y005800D02*
X013289Y005800D01*
X013237Y005807D02*
X013237Y005726D01*
X013289Y005700D02*
X013370Y005700D01*
X013337Y005726D02*
X013337Y001850D01*
X013637Y001850D02*
X013637Y005479D01*
X013656Y005500D02*
X015025Y005500D01*
X015037Y005505D02*
X015037Y007181D01*
X015018Y007200D02*
X011420Y007200D01*
X011437Y007183D02*
X011437Y018550D01*
X011337Y018550D02*
X011337Y007283D01*
X011320Y007300D02*
X014918Y007300D01*
X014937Y007281D02*
X014937Y005463D01*
X015137Y005509D02*
X015137Y007121D01*
X015187Y007100D02*
X011520Y007100D01*
X011537Y007083D02*
X011537Y018550D01*
X011637Y018550D02*
X011637Y006983D01*
X011620Y007000D02*
X012242Y007000D01*
X012237Y006998D02*
X012237Y018550D01*
X012137Y018550D02*
X012137Y006956D01*
X012053Y006900D02*
X011720Y006900D01*
X011737Y006883D02*
X011737Y018550D01*
X011837Y018550D02*
X011837Y006783D01*
X011820Y006800D02*
X011958Y006800D01*
X011937Y006754D02*
X011937Y018550D01*
X012037Y018550D02*
X012037Y006884D01*
X012337Y007005D02*
X012337Y018550D01*
X012437Y018550D02*
X012437Y007004D01*
X012448Y007000D02*
X012960Y007000D01*
X012937Y006977D02*
X012937Y018550D01*
X012837Y018550D02*
X012837Y001850D01*
X012737Y001850D02*
X012737Y005535D01*
X012716Y005500D02*
X013003Y005500D01*
X013037Y005464D02*
X013037Y001850D01*
X012937Y001850D02*
X012937Y005611D01*
X012942Y005600D02*
X012764Y005600D01*
X012796Y005700D02*
X012913Y005700D01*
X012937Y005726D02*
X012937Y005807D01*
X013037Y005807D02*
X013037Y005726D01*
X013137Y005726D02*
X013137Y005807D01*
X013370Y005800D02*
X016937Y005800D01*
X016937Y005700D02*
X013745Y005700D01*
X013737Y005726D02*
X013737Y005807D01*
X013737Y005874D02*
X013737Y006148D01*
X013780Y006200D02*
X016981Y006200D01*
X016940Y006100D02*
X013587Y006100D01*
X013637Y006103D02*
X013637Y006055D01*
X013680Y006000D02*
X016937Y006000D01*
X016937Y006093D02*
X016937Y005695D01*
X016976Y005600D02*
X013717Y005600D01*
X013737Y005660D02*
X013737Y001850D01*
X014837Y001850D02*
X014837Y003978D01*
X014497Y004300D02*
X011177Y004300D01*
X011259Y004500D02*
X014415Y004500D01*
X014398Y004600D02*
X011276Y004600D01*
X011276Y004700D02*
X014398Y004700D01*
X014398Y004800D02*
X011276Y004800D01*
X011259Y004900D02*
X014415Y004900D01*
X014497Y005100D02*
X011177Y005100D01*
X010937Y005374D02*
X010937Y006317D01*
X010954Y006300D02*
X006937Y006300D01*
X006937Y006400D02*
X010854Y006400D01*
X010837Y006417D02*
X010837Y005422D01*
X010890Y005400D02*
X012074Y005400D01*
X012089Y005385D02*
X012255Y005316D01*
X012435Y005316D01*
X012600Y005385D01*
X012637Y005421D02*
X012637Y001850D01*
X012537Y001850D02*
X012537Y005358D01*
X012437Y005317D02*
X012437Y001850D01*
X012337Y001850D02*
X012337Y005316D01*
X012237Y005323D02*
X012237Y001850D01*
X012137Y001850D02*
X012137Y005365D01*
X012089Y005385D02*
X011962Y005511D01*
X011926Y005600D01*
X011654Y005600D01*
X011637Y005617D02*
X011637Y001850D01*
X011737Y001850D02*
X011737Y005600D01*
X011837Y005600D02*
X011837Y001850D01*
X011937Y001850D02*
X011937Y005573D01*
X011974Y005500D02*
X010649Y005500D01*
X010637Y005505D02*
X010637Y006617D01*
X010654Y006600D02*
X006937Y006600D01*
X006937Y006700D02*
X010554Y006700D01*
X010537Y006717D02*
X010537Y005509D01*
X010437Y005509D02*
X010437Y006817D01*
X010454Y006800D02*
X006937Y006800D01*
X006937Y006900D02*
X010354Y006900D01*
X010337Y006917D02*
X010337Y005509D01*
X010285Y005500D02*
X008937Y005500D01*
X008937Y005400D02*
X010044Y005400D01*
X010037Y005397D02*
X010037Y007217D01*
X010054Y007200D02*
X006937Y007200D01*
X006937Y007300D02*
X009954Y007300D01*
X009937Y007317D02*
X009937Y005314D01*
X009923Y005300D02*
X008937Y005300D01*
X008937Y005000D02*
X009716Y005000D01*
X009674Y004900D02*
X008937Y004900D01*
X008937Y004800D02*
X009658Y004800D01*
X009658Y004700D02*
X008937Y004700D01*
X008937Y004600D02*
X009658Y004600D01*
X009674Y004500D02*
X008937Y004500D01*
X008937Y004400D02*
X009716Y004400D01*
X010137Y005439D02*
X010137Y007117D01*
X010154Y007100D02*
X006937Y007100D01*
X006937Y007000D02*
X010254Y007000D01*
X010237Y007017D02*
X010237Y005480D01*
X010737Y005463D02*
X010737Y006517D01*
X010754Y006500D02*
X006937Y006500D01*
X006537Y006500D02*
X006437Y006500D01*
X006437Y006400D02*
X006537Y006400D01*
X006537Y006300D02*
X006437Y006300D01*
X006437Y006200D02*
X006537Y006200D01*
X006537Y006100D02*
X006437Y006100D01*
X006437Y006000D02*
X006537Y006000D01*
X006537Y005900D02*
X006437Y005900D01*
X006437Y005800D02*
X006537Y005800D01*
X006537Y005783D02*
X006437Y005683D01*
X006437Y011288D01*
X006437Y005683D01*
X006437Y005700D02*
X006454Y005700D01*
X006537Y005783D02*
X006537Y011147D01*
X006466Y011219D01*
X006437Y011288D01*
X006437Y011200D02*
X006484Y011200D01*
X006437Y011100D02*
X006537Y011100D01*
X006537Y011000D02*
X006437Y011000D01*
X006437Y010900D02*
X006537Y010900D01*
X006537Y010800D02*
X006437Y010800D01*
X006437Y010700D02*
X006537Y010700D01*
X006537Y010600D02*
X006437Y010600D01*
X006437Y010500D02*
X006537Y010500D01*
X006537Y010400D02*
X006437Y010400D01*
X006437Y010300D02*
X006537Y010300D01*
X006537Y010200D02*
X006437Y010200D01*
X006437Y010100D02*
X006537Y010100D01*
X006537Y010000D02*
X006437Y010000D01*
X006437Y009900D02*
X006537Y009900D01*
X006537Y009800D02*
X006437Y009800D01*
X006437Y009700D02*
X006537Y009700D01*
X006537Y009600D02*
X006437Y009600D01*
X006437Y009500D02*
X006537Y009500D01*
X006537Y009400D02*
X006437Y009400D01*
X006437Y009300D02*
X006537Y009300D01*
X006537Y009200D02*
X006437Y009200D01*
X006437Y009100D02*
X006537Y009100D01*
X006537Y009000D02*
X006437Y009000D01*
X006437Y008900D02*
X006537Y008900D01*
X006537Y008800D02*
X006437Y008800D01*
X006437Y008700D02*
X006537Y008700D01*
X006537Y008600D02*
X006437Y008600D01*
X006437Y008500D02*
X006537Y008500D01*
X006537Y008400D02*
X006437Y008400D01*
X006437Y008300D02*
X006537Y008300D01*
X006537Y008200D02*
X006437Y008200D01*
X006437Y008100D02*
X006537Y008100D01*
X006537Y008000D02*
X006437Y008000D01*
X006437Y007900D02*
X006537Y007900D01*
X006537Y007800D02*
X006437Y007800D01*
X006437Y007700D02*
X006537Y007700D01*
X006537Y007600D02*
X006437Y007600D01*
X006437Y007500D02*
X006537Y007500D01*
X006537Y007400D02*
X006437Y007400D01*
X006437Y007300D02*
X006537Y007300D01*
X006537Y007200D02*
X006437Y007200D01*
X006437Y007100D02*
X006537Y007100D01*
X006537Y007000D02*
X006437Y007000D01*
X006437Y006900D02*
X006537Y006900D01*
X006537Y006800D02*
X006437Y006800D01*
X006437Y006700D02*
X006537Y006700D01*
X006537Y006600D02*
X006437Y006600D01*
X006237Y007100D02*
X006237Y014409D01*
X007046Y015219D01*
X006612Y015400D02*
X006300Y015400D01*
X006336Y015300D02*
X006576Y015300D01*
X006576Y015200D02*
X006336Y015200D01*
X006326Y015100D02*
X006586Y015100D01*
X006545Y015000D02*
X006284Y015000D01*
X006237Y014925D02*
X006237Y014692D01*
X006245Y014700D02*
X006065Y014700D01*
X006065Y014600D02*
X006145Y014600D01*
X006137Y014592D02*
X006137Y014825D01*
X006084Y014800D02*
X006345Y014800D01*
X006337Y014792D02*
X006337Y018550D01*
X006237Y018550D02*
X006237Y016694D01*
X006231Y016700D02*
X006681Y016700D01*
X006637Y016642D02*
X006637Y018550D01*
X006537Y018550D02*
X006537Y014992D01*
X006445Y014900D02*
X006212Y014900D01*
X006437Y014892D02*
X006437Y018550D01*
X006137Y018550D02*
X006137Y016794D01*
X006130Y016800D02*
X006782Y016800D01*
X006837Y016823D02*
X006837Y018550D01*
X006737Y018550D02*
X006737Y016756D01*
X006620Y016600D02*
X006292Y016600D01*
X006334Y016500D02*
X006578Y016500D01*
X006576Y016400D02*
X006336Y016400D01*
X006334Y016300D02*
X006578Y016300D01*
X006620Y016200D02*
X006292Y016200D01*
X006237Y016106D02*
X006237Y015513D01*
X006250Y015500D02*
X006662Y015500D01*
X006637Y015461D02*
X006637Y016158D01*
X006681Y016100D02*
X006231Y016100D01*
X006137Y016006D02*
X006137Y015613D01*
X006150Y015600D02*
X006762Y015600D01*
X006737Y015575D02*
X006737Y016044D01*
X006782Y016000D02*
X006130Y016000D01*
X006037Y015962D02*
X006037Y015657D01*
X005937Y015690D02*
X005937Y015929D01*
X005837Y015929D02*
X005837Y015690D01*
X005737Y015675D02*
X005737Y015944D01*
X005637Y015985D02*
X005637Y015634D01*
X005437Y015700D02*
X007437Y015700D01*
X007437Y015800D02*
X005437Y015800D01*
X005437Y015900D02*
X007437Y015900D01*
X007437Y016000D02*
X007311Y016000D01*
X007337Y016025D02*
X007337Y015594D01*
X007331Y015600D02*
X007437Y015600D01*
X007431Y015500D02*
X007437Y015500D01*
X007237Y015650D02*
X007237Y015969D01*
X007137Y015929D02*
X007137Y015690D01*
X007037Y015690D02*
X007037Y015929D01*
X006937Y015936D02*
X006937Y015683D01*
X006837Y015642D02*
X006837Y015977D01*
X007412Y016100D02*
X007437Y016100D01*
X007837Y016100D02*
X007904Y016100D01*
X007937Y016067D02*
X007937Y015594D01*
X007943Y015600D02*
X007837Y015600D01*
X007837Y015500D02*
X007843Y015500D01*
X007837Y015494D02*
X007837Y016196D01*
X007837Y016000D02*
X008042Y016000D01*
X008037Y016002D02*
X008037Y015650D01*
X008137Y015690D02*
X008137Y015968D01*
X008178Y016000D02*
X008278Y016000D01*
X008278Y015962D02*
X008331Y015970D01*
X008397Y015992D01*
X008437Y016012D02*
X008437Y015642D01*
X008512Y015600D02*
X009124Y015600D01*
X009037Y015513D02*
X009037Y016106D01*
X009043Y016100D02*
X008551Y016100D01*
X008537Y016086D02*
X008537Y015575D01*
X008612Y015500D02*
X009024Y015500D01*
X008974Y015400D02*
X008662Y015400D01*
X008637Y015461D02*
X008637Y016234D01*
X008620Y016200D02*
X008982Y016200D01*
X008537Y016350D02*
X008537Y016450D01*
X008437Y016450D02*
X008437Y016350D01*
X008337Y016350D02*
X008337Y016450D01*
X008278Y016500D02*
X008178Y016500D01*
X008237Y016450D02*
X008237Y018550D01*
X008537Y018550D02*
X008537Y016714D01*
X008551Y016700D02*
X009043Y016700D01*
X009037Y016694D02*
X009037Y018550D01*
X009137Y018550D02*
X009137Y016794D01*
X009537Y016856D02*
X009537Y017194D01*
X009737Y017044D02*
X009737Y016737D01*
X009774Y016700D02*
X010119Y016700D01*
X010119Y016600D02*
X009835Y016600D01*
X009854Y015900D02*
X007837Y015900D01*
X007837Y015800D02*
X009837Y015800D01*
X009837Y015883D02*
X009837Y015415D01*
X009808Y015486D01*
X009837Y015700D02*
X007837Y015700D01*
X008237Y015690D02*
X008237Y016350D01*
X008278Y016350D02*
X008278Y015962D01*
X008337Y015972D02*
X008337Y015683D01*
X008278Y016100D02*
X008178Y016100D01*
X008178Y016200D02*
X008278Y016200D01*
X008278Y016300D02*
X008178Y016300D01*
X008178Y016600D02*
X008278Y016600D01*
X008278Y016700D02*
X008178Y016700D01*
X007425Y016900D02*
X003787Y016900D01*
X003787Y016800D02*
X004420Y016800D01*
X004437Y016807D02*
X004437Y018550D01*
X004337Y018550D02*
X004337Y016719D01*
X004318Y016700D02*
X003787Y016700D01*
X003787Y016600D02*
X004258Y016600D01*
X004237Y016550D02*
X004237Y018550D01*
X004537Y018550D02*
X004537Y016849D01*
X004637Y016871D02*
X004637Y018550D01*
X004737Y018550D02*
X004737Y017908D01*
X004734Y017900D02*
X003787Y017900D01*
X003787Y017800D02*
X004692Y017800D01*
X004660Y017700D02*
X003787Y017700D01*
X003787Y017600D02*
X004660Y017600D01*
X004660Y017500D02*
X003787Y017500D01*
X003787Y017400D02*
X004693Y017400D01*
X004734Y017300D02*
X003787Y017300D01*
X003787Y017200D02*
X004806Y017200D01*
X004837Y017169D02*
X004837Y016846D01*
X004737Y016871D02*
X004737Y017293D01*
X004805Y018000D02*
X003787Y018000D01*
X003787Y018100D02*
X004905Y018100D01*
X004937Y018126D02*
X004937Y018550D01*
X004837Y018550D02*
X004837Y018032D01*
X005037Y018167D02*
X005037Y018550D01*
X005137Y018550D02*
X005137Y018209D01*
X005115Y018200D02*
X003787Y018200D01*
X003787Y018300D02*
X020687Y018300D01*
X020687Y018400D02*
X003787Y018400D01*
X003787Y018500D02*
X020687Y018500D01*
X020637Y018550D02*
X020637Y005184D01*
X020627Y005200D02*
X020687Y005200D01*
X020677Y005100D02*
X020687Y005100D01*
X020687Y005300D02*
X020560Y005300D01*
X020537Y005328D02*
X020537Y018550D01*
X020437Y018550D02*
X020437Y005435D01*
X020472Y005400D02*
X020687Y005400D01*
X020687Y005500D02*
X020356Y005500D01*
X020337Y005513D02*
X020337Y018550D01*
X020237Y018550D02*
X020237Y005573D01*
X020180Y005600D02*
X020687Y005600D01*
X020687Y005700D02*
X018937Y005700D01*
X018937Y005800D02*
X020687Y005800D01*
X020687Y005900D02*
X018937Y005900D01*
X018937Y006000D02*
X020687Y006000D01*
X020687Y006100D02*
X018934Y006100D01*
X018893Y006200D02*
X020687Y006200D01*
X020687Y006300D02*
X018851Y006300D01*
X018837Y006334D02*
X018837Y018550D01*
X018737Y018550D02*
X018737Y006508D01*
X018745Y006500D02*
X020687Y006500D01*
X020687Y006400D02*
X018810Y006400D01*
X018645Y006600D02*
X020687Y006600D01*
X020687Y006700D02*
X018545Y006700D01*
X018537Y006708D02*
X018537Y018550D01*
X018437Y018550D02*
X018437Y006769D01*
X018362Y006800D02*
X020687Y006800D01*
X020687Y006900D02*
X013780Y006900D01*
X013780Y006800D02*
X017512Y006800D01*
X017537Y006810D02*
X017537Y018550D01*
X017437Y018550D02*
X017437Y006769D01*
X017337Y006708D02*
X017337Y018550D01*
X017237Y018550D02*
X017237Y006608D01*
X017229Y006600D02*
X013780Y006600D01*
X013780Y006700D02*
X017329Y006700D01*
X017137Y006508D02*
X017137Y018550D01*
X017037Y018550D02*
X017037Y006334D01*
X017023Y006300D02*
X013780Y006300D01*
X013780Y006400D02*
X017064Y006400D01*
X017129Y006500D02*
X013780Y006500D01*
X013637Y007005D02*
X013637Y018550D01*
X013537Y018550D02*
X013537Y007005D01*
X013437Y007005D02*
X013437Y018550D01*
X013337Y018550D02*
X013337Y007005D01*
X013237Y007005D02*
X013237Y018550D01*
X013137Y018550D02*
X013137Y007005D01*
X013037Y007005D02*
X013037Y018550D01*
X012737Y018550D02*
X012737Y006786D01*
X012731Y006800D02*
X012878Y006800D01*
X012878Y006900D02*
X012637Y006900D01*
X012637Y018550D01*
X012537Y018550D02*
X012537Y006963D01*
X012773Y006700D02*
X012878Y006700D01*
X012878Y006600D02*
X012796Y006600D01*
X012796Y006500D02*
X012878Y006500D01*
X013437Y005807D02*
X013437Y005726D01*
X013537Y005726D02*
X013537Y005807D01*
X013637Y005807D02*
X013637Y005726D01*
X013729Y005900D02*
X016937Y005900D01*
X017018Y005500D02*
X015389Y005500D01*
X015437Y005480D02*
X015437Y007050D01*
X015337Y007050D02*
X015337Y005509D01*
X015237Y005509D02*
X015237Y007079D01*
X015537Y007050D02*
X015537Y005439D01*
X015737Y005314D02*
X015737Y007121D01*
X015837Y007181D02*
X015837Y005214D01*
X015851Y005200D02*
X017216Y005200D01*
X017237Y005179D02*
X017237Y004203D01*
X017234Y004200D02*
X015851Y004200D01*
X015837Y004186D02*
X015837Y001850D01*
X015737Y001850D02*
X015737Y004086D01*
X015751Y004100D02*
X017150Y004100D01*
X017137Y004082D02*
X017137Y005279D01*
X017116Y005300D02*
X015751Y005300D01*
X015917Y005100D02*
X017316Y005100D01*
X017337Y005079D02*
X017337Y004294D01*
X017345Y004300D02*
X015917Y004300D01*
X015937Y004349D02*
X015937Y001850D01*
X016037Y001850D02*
X016037Y007450D01*
X016016Y007400D02*
X020687Y007400D01*
X020687Y007500D02*
X016058Y007500D01*
X016087Y007600D02*
X020687Y007600D01*
X020687Y007700D02*
X016087Y007700D01*
X016087Y007800D02*
X020687Y007800D01*
X020687Y007900D02*
X016058Y007900D01*
X015856Y008200D02*
X020687Y008200D01*
X020687Y008500D02*
X010790Y008500D01*
X010790Y008600D02*
X020687Y008600D01*
X020687Y008700D02*
X010790Y008700D01*
X010790Y008800D02*
X020687Y008800D01*
X020687Y008900D02*
X010790Y008900D01*
X010790Y009000D02*
X020687Y009000D01*
X020687Y009100D02*
X010790Y009100D01*
X010790Y009200D02*
X020687Y009200D01*
X020687Y009300D02*
X019559Y009300D01*
X019537Y009278D02*
X019537Y005650D01*
X019637Y005672D02*
X019637Y009378D01*
X019659Y009400D02*
X020687Y009400D01*
X020687Y009700D02*
X019387Y009700D01*
X019337Y009750D02*
X019337Y011230D01*
X019237Y011230D02*
X019237Y010140D01*
X019287Y010140D02*
X019155Y010140D01*
X018897Y009882D01*
X018897Y009750D01*
X019287Y009750D01*
X019287Y010140D01*
X019287Y010100D02*
X019387Y010100D01*
X019437Y010140D02*
X019437Y011230D01*
X019537Y011235D02*
X019537Y010122D01*
X019559Y010100D02*
X020687Y010100D01*
X020687Y010000D02*
X019659Y010000D01*
X019637Y010022D02*
X019637Y011335D01*
X019602Y011300D02*
X020687Y011300D01*
X020687Y011200D02*
X010790Y011200D01*
X010790Y011300D02*
X019072Y011300D01*
X019037Y011335D02*
X019037Y010022D01*
X019015Y010000D02*
X010790Y010000D01*
X010790Y010100D02*
X019115Y010100D01*
X019137Y010122D02*
X019137Y011235D01*
X018972Y011400D02*
X010790Y011400D01*
X010790Y011500D02*
X018872Y011500D01*
X018937Y011435D02*
X018937Y009922D01*
X018915Y009900D02*
X010790Y009900D01*
X010790Y009800D02*
X018897Y009800D01*
X018937Y009750D02*
X018937Y009650D01*
X018897Y009600D02*
X010790Y009600D01*
X010790Y009500D02*
X018915Y009500D01*
X018937Y009478D02*
X018937Y005182D01*
X018948Y005200D02*
X018658Y005200D01*
X018637Y005179D02*
X018637Y004203D01*
X018640Y004200D02*
X018964Y004200D01*
X018937Y004243D02*
X018995Y004150D01*
X019063Y004065D01*
X019140Y003988D01*
X019225Y003920D01*
X019317Y003862D01*
X019257Y003900D02*
X018836Y003900D01*
X018835Y003903D02*
X018787Y004001D01*
X018729Y004094D01*
X018661Y004179D01*
X018584Y004256D01*
X018499Y004324D01*
X018407Y004382D01*
X018309Y004429D01*
X018206Y004465D01*
X018100Y004489D01*
X017991Y004501D01*
X017987Y004501D01*
X017987Y003582D01*
X017887Y003582D01*
X017887Y004501D01*
X017883Y004501D01*
X017774Y004489D01*
X017837Y004496D02*
X017837Y004894D01*
X017937Y004894D02*
X017937Y003582D01*
X017887Y003600D02*
X017987Y003600D01*
X018037Y003581D02*
X018037Y003481D01*
X017987Y003400D02*
X017887Y003400D01*
X017887Y003300D02*
X017987Y003300D01*
X017987Y003200D02*
X017887Y003200D01*
X017887Y003100D02*
X017987Y003100D01*
X017987Y003000D02*
X017887Y003000D01*
X017887Y002900D02*
X017987Y002900D01*
X017987Y002800D02*
X017887Y002800D01*
X017887Y002700D02*
X017987Y002700D01*
X017637Y002609D02*
X017637Y001850D01*
X017537Y001850D02*
X017537Y002648D01*
X017237Y002860D02*
X017237Y001850D01*
X017137Y001850D02*
X017137Y002981D01*
X017125Y003000D02*
X008937Y003000D01*
X008937Y002900D02*
X017200Y002900D01*
X017068Y003100D02*
X008937Y003100D01*
X008942Y005700D02*
X011554Y005700D01*
X011537Y005717D02*
X009837Y007417D01*
X009854Y007400D02*
X006937Y007400D01*
X006937Y007500D02*
X009837Y007500D01*
X009837Y007600D02*
X006937Y007600D01*
X006937Y007700D02*
X009837Y007700D01*
X009837Y007800D02*
X006937Y007800D01*
X006937Y007900D02*
X009837Y007900D01*
X009837Y008000D02*
X006937Y008000D01*
X006937Y008100D02*
X009837Y008100D01*
X009837Y008200D02*
X006937Y008200D01*
X006937Y008300D02*
X009837Y008300D01*
X009837Y008400D02*
X006937Y008400D01*
X006937Y008500D02*
X009837Y008500D01*
X009837Y008600D02*
X006937Y008600D01*
X006937Y008700D02*
X009837Y008700D01*
X009837Y008800D02*
X006937Y008800D01*
X006937Y008900D02*
X009837Y008900D01*
X009837Y009000D02*
X006937Y009000D01*
X006937Y009100D02*
X009837Y009100D01*
X009837Y009200D02*
X006937Y009200D01*
X006937Y009900D02*
X008684Y009900D01*
X008737Y010000D02*
X006937Y010000D01*
X006937Y010100D02*
X008737Y010100D01*
X008737Y010200D02*
X006937Y010200D01*
X006937Y010300D02*
X008737Y010300D01*
X008737Y010400D02*
X006937Y010400D01*
X006937Y010500D02*
X008737Y010500D01*
X008737Y010600D02*
X006937Y010600D01*
X006937Y010700D02*
X008737Y010700D01*
X009190Y009900D02*
X009837Y009900D01*
X009837Y009800D02*
X009242Y009800D01*
X009237Y009812D02*
X009237Y014764D01*
X008937Y014747D02*
X009409Y015219D01*
X008938Y015200D02*
X008698Y015200D01*
X008698Y015300D02*
X008938Y015300D01*
X008948Y015100D02*
X008688Y015100D01*
X008937Y014747D02*
X008937Y009700D01*
X009257Y009700D02*
X009837Y009700D01*
X010237Y009700D02*
X010390Y009700D01*
X010390Y009800D02*
X010237Y009800D01*
X010237Y009900D02*
X010390Y009900D01*
X010390Y010000D02*
X010237Y010000D01*
X010237Y010100D02*
X010390Y010100D01*
X010390Y010200D02*
X010237Y010200D01*
X010237Y010300D02*
X010390Y010300D01*
X010390Y010400D02*
X010237Y010400D01*
X010237Y010500D02*
X010390Y010500D01*
X010390Y010600D02*
X010237Y010600D01*
X010237Y010700D02*
X010390Y010700D01*
X010390Y010800D02*
X010237Y010800D01*
X010237Y010900D02*
X010390Y010900D01*
X010390Y011000D02*
X010237Y011000D01*
X010237Y011100D02*
X010390Y011100D01*
X010390Y011200D02*
X010237Y011200D01*
X010237Y011300D02*
X010390Y011300D01*
X010390Y011400D02*
X010237Y011400D01*
X010237Y011500D02*
X010390Y011500D01*
X010390Y011600D02*
X010237Y011600D01*
X010237Y011700D02*
X010390Y011700D01*
X010390Y011800D02*
X010237Y011800D01*
X010237Y011900D02*
X010390Y011900D01*
X010390Y012000D02*
X010237Y012000D01*
X010237Y012100D02*
X010390Y012100D01*
X010390Y012200D02*
X010237Y012200D01*
X010237Y012300D02*
X010390Y012300D01*
X010390Y012400D02*
X010237Y012400D01*
X010237Y012500D02*
X010390Y012500D01*
X010390Y012600D02*
X010237Y012600D01*
X010237Y012700D02*
X010390Y012700D01*
X010390Y012800D02*
X010237Y012800D01*
X010237Y012900D02*
X010390Y012900D01*
X010390Y013000D02*
X010237Y013000D01*
X010237Y013100D02*
X010390Y013100D01*
X010390Y013200D02*
X010237Y013200D01*
X010237Y013300D02*
X010390Y013300D01*
X010390Y013400D02*
X010237Y013400D01*
X010237Y013500D02*
X010390Y013500D01*
X010390Y013600D02*
X010237Y013600D01*
X010237Y013700D02*
X010390Y013700D01*
X010390Y013800D02*
X010237Y013800D01*
X010237Y013900D02*
X010390Y013900D01*
X010390Y014000D02*
X010237Y014000D01*
X010237Y014100D02*
X010390Y014100D01*
X010390Y014200D02*
X010237Y014200D01*
X010237Y014300D02*
X010390Y014300D01*
X010390Y014400D02*
X010237Y014400D01*
X010237Y014500D02*
X010390Y014500D01*
X010790Y014500D02*
X020687Y014500D01*
X020687Y014400D02*
X010790Y014400D01*
X010790Y014300D02*
X020687Y014300D01*
X020687Y014200D02*
X010790Y014200D01*
X010790Y014100D02*
X020687Y014100D01*
X020687Y014000D02*
X010790Y014000D01*
X010790Y013900D02*
X020687Y013900D01*
X020687Y013800D02*
X010790Y013800D01*
X010790Y013700D02*
X020687Y013700D01*
X020687Y013600D02*
X010790Y013600D01*
X010790Y013500D02*
X020687Y013500D01*
X020687Y013400D02*
X010790Y013400D01*
X010790Y013300D02*
X020687Y013300D01*
X020687Y013200D02*
X010790Y013200D01*
X010790Y013100D02*
X020687Y013100D01*
X020687Y013000D02*
X010790Y013000D01*
X010790Y012900D02*
X020687Y012900D01*
X020687Y012800D02*
X010790Y012800D01*
X010790Y012700D02*
X020687Y012700D01*
X020687Y012600D02*
X010790Y012600D01*
X010790Y012500D02*
X020687Y012500D01*
X020687Y012400D02*
X010790Y012400D01*
X010790Y012300D02*
X020687Y012300D01*
X020687Y012200D02*
X010790Y012200D01*
X010790Y012100D02*
X019072Y012100D01*
X019037Y012065D02*
X019037Y018550D01*
X018937Y018550D02*
X018937Y011965D01*
X018972Y012000D02*
X010790Y012000D01*
X010790Y011900D02*
X018872Y011900D01*
X018867Y011800D02*
X010790Y011800D01*
X010790Y011700D02*
X018867Y011700D01*
X018867Y011600D02*
X010790Y011600D01*
X010790Y011100D02*
X020687Y011100D01*
X020687Y011000D02*
X010790Y011000D01*
X010790Y010900D02*
X020687Y010900D01*
X020687Y010800D02*
X010790Y010800D01*
X010790Y010700D02*
X020687Y010700D01*
X020687Y010600D02*
X010790Y010600D01*
X010790Y010500D02*
X020687Y010500D01*
X020687Y010400D02*
X010790Y010400D01*
X010790Y010300D02*
X020687Y010300D01*
X020687Y010200D02*
X010790Y010200D01*
X010790Y009700D02*
X019287Y009700D01*
X019237Y009650D02*
X019237Y009750D01*
X019287Y009800D02*
X019387Y009800D01*
X019437Y009750D02*
X019437Y009650D01*
X019387Y009600D02*
X019287Y009600D01*
X019337Y009650D02*
X019337Y005572D01*
X019394Y005600D02*
X018898Y005600D01*
X018856Y005500D02*
X019219Y005500D01*
X019237Y005512D02*
X019237Y009260D01*
X019287Y009300D02*
X019387Y009300D01*
X019437Y009260D02*
X019437Y005618D01*
X019137Y005434D02*
X019137Y009278D01*
X019115Y009300D02*
X010790Y009300D01*
X010790Y009400D02*
X019015Y009400D01*
X019037Y009378D02*
X019037Y005327D01*
X019015Y005300D02*
X018758Y005300D01*
X018737Y005279D02*
X018737Y004081D01*
X018724Y004100D02*
X019035Y004100D01*
X019037Y004098D02*
X019037Y001850D01*
X019137Y001850D02*
X019137Y003991D01*
X019128Y004000D02*
X018788Y004000D01*
X018835Y003903D02*
X018871Y003800D01*
X018837Y003896D02*
X018837Y004517D01*
X018841Y004500D02*
X018005Y004500D01*
X017987Y004500D02*
X017887Y004500D01*
X017869Y004500D02*
X016000Y004500D01*
X015958Y004400D02*
X017505Y004400D01*
X017537Y004415D02*
X017537Y004977D01*
X017481Y005000D02*
X015958Y005000D01*
X015937Y005051D02*
X015937Y007281D01*
X015956Y007300D02*
X020687Y007300D01*
X020687Y007200D02*
X015856Y007200D01*
X015837Y008219D02*
X015837Y015181D01*
X015737Y015121D02*
X015737Y008279D01*
X015537Y008350D02*
X015537Y015050D01*
X015437Y015050D02*
X015437Y008350D01*
X015337Y008350D02*
X015337Y015050D01*
X015237Y015079D02*
X015237Y008321D01*
X015037Y008219D02*
X015037Y015181D01*
X015018Y015200D02*
X011061Y015200D01*
X011061Y015300D02*
X014918Y015300D01*
X014937Y015281D02*
X014937Y008119D01*
X014918Y008100D02*
X010790Y008100D01*
X010790Y008000D02*
X014858Y008000D01*
X014837Y007950D02*
X014837Y015450D01*
X014816Y015500D02*
X010974Y015500D01*
X010937Y015537D02*
X010937Y015929D01*
X010837Y015929D02*
X010837Y015626D01*
X010874Y015600D02*
X014787Y015600D01*
X014787Y015700D02*
X010237Y015700D01*
X010237Y015717D02*
X010237Y015532D01*
X010237Y015600D02*
X010305Y015600D01*
X010337Y015624D02*
X010337Y015817D01*
X010320Y015800D02*
X014787Y015800D01*
X014816Y015900D02*
X010420Y015900D01*
X010437Y015917D02*
X010437Y015665D01*
X010537Y015690D02*
X010537Y015929D01*
X010637Y015929D02*
X010637Y015690D01*
X010737Y015667D02*
X010737Y015929D01*
X011037Y015994D02*
X011037Y015369D01*
X011024Y015400D02*
X014858Y015400D01*
X014837Y015950D02*
X014837Y018550D01*
X014737Y018550D02*
X014737Y005374D01*
X013370Y005500D02*
X013289Y005500D01*
X013289Y005600D02*
X013370Y005600D01*
X012345Y005767D02*
X012312Y005800D01*
X011737Y005800D01*
X010037Y007500D01*
X010037Y015800D01*
X010590Y016353D01*
X010590Y016400D01*
X011061Y016400D02*
X020687Y016400D01*
X020687Y016500D02*
X011061Y016500D01*
X011061Y016600D02*
X020687Y016600D01*
X020687Y016700D02*
X011061Y016700D01*
X011061Y016300D02*
X015187Y016300D01*
X015137Y016279D02*
X015137Y018550D01*
X015037Y018550D02*
X015037Y016219D01*
X015018Y016200D02*
X011061Y016200D01*
X011061Y016100D02*
X014918Y016100D01*
X014937Y016119D02*
X014937Y018550D01*
X015237Y018550D02*
X015237Y016321D01*
X015337Y016350D02*
X015337Y018550D01*
X015437Y018550D02*
X015437Y016350D01*
X015537Y016350D02*
X015537Y018550D01*
X015637Y018550D02*
X015637Y016321D01*
X015687Y016300D02*
X020687Y016300D01*
X020687Y016200D02*
X015856Y016200D01*
X015837Y016219D02*
X015837Y018550D01*
X015737Y018550D02*
X015737Y016279D01*
X015937Y016119D02*
X015937Y018550D01*
X017637Y018550D02*
X017637Y006852D01*
X017737Y006893D02*
X017737Y018550D01*
X017837Y018550D02*
X017837Y006894D01*
X017937Y006894D02*
X017937Y018550D01*
X018037Y018550D02*
X018037Y006894D01*
X018137Y006893D02*
X018137Y018550D01*
X018237Y018550D02*
X018237Y006852D01*
X018337Y006810D02*
X018337Y018550D01*
X018637Y018550D02*
X018637Y006608D01*
X019937Y005672D02*
X019937Y018550D01*
X020037Y018550D02*
X020037Y005651D01*
X020137Y005618D02*
X020137Y018550D01*
X019637Y018550D02*
X019637Y012065D01*
X019602Y012100D02*
X020687Y012100D01*
X020687Y011400D02*
X019702Y011400D01*
X019537Y012165D02*
X019537Y018550D01*
X019437Y018550D02*
X019437Y012170D01*
X019337Y012170D02*
X019337Y018550D01*
X019237Y018550D02*
X019237Y012170D01*
X019137Y012165D02*
X019137Y018550D01*
X020687Y018200D02*
X010159Y018200D01*
X010137Y018209D02*
X010137Y018550D01*
X010037Y018550D02*
X010037Y018215D01*
X009937Y018215D02*
X009937Y018550D01*
X009837Y018550D02*
X009837Y018199D01*
X009840Y018200D02*
X005434Y018200D01*
X005437Y018199D02*
X005437Y018550D01*
X005337Y018550D02*
X005337Y018215D01*
X005237Y018215D02*
X005237Y018550D01*
X005537Y018550D02*
X005537Y018157D01*
X005637Y018108D02*
X005637Y018550D01*
X005737Y018550D02*
X005737Y018008D01*
X005745Y018000D02*
X009529Y018000D01*
X009537Y018008D02*
X009537Y018550D01*
X009437Y018550D02*
X009437Y017849D01*
X009417Y017800D02*
X005857Y017800D01*
X005837Y017849D02*
X005837Y018550D01*
X005937Y018550D02*
X005937Y016871D01*
X006037Y016838D02*
X006037Y018550D01*
X005645Y018100D02*
X009629Y018100D01*
X009637Y018108D02*
X009637Y018550D01*
X009737Y018550D02*
X009737Y018157D01*
X009458Y017900D02*
X005816Y017900D01*
X005889Y017700D02*
X009385Y017700D01*
X009385Y017600D02*
X005889Y017600D01*
X006937Y016864D02*
X006937Y018550D01*
X007037Y018550D02*
X007037Y016871D01*
X007137Y016871D02*
X007137Y018550D01*
X007649Y017500D02*
X009385Y017500D01*
X010237Y018167D02*
X010237Y018550D01*
X010337Y018550D02*
X010337Y018126D01*
X010369Y018100D02*
X020687Y018100D01*
X020687Y018000D02*
X010469Y018000D01*
X010437Y018032D02*
X010437Y018550D01*
X011043Y016000D02*
X014858Y016000D01*
X015956Y016100D02*
X020687Y016100D01*
X020687Y015000D02*
X011009Y015000D01*
X010937Y014900D02*
X010937Y007683D01*
X010920Y007700D02*
X014787Y007700D01*
X014787Y007800D02*
X010820Y007800D01*
X010837Y007783D02*
X010837Y014812D01*
X010809Y014800D02*
X020687Y014800D01*
X020687Y014700D02*
X010790Y014700D01*
X010790Y014600D02*
X020687Y014600D01*
X020687Y014900D02*
X010937Y014900D01*
X008228Y015091D02*
X007437Y014300D01*
X007237Y014200D02*
X007237Y014200D01*
X007237Y014100D02*
X007237Y014100D01*
X007237Y014000D02*
X007237Y014000D01*
X007237Y013900D02*
X007237Y013900D01*
X007237Y013800D02*
X007237Y013800D01*
X007237Y013700D02*
X007237Y013700D01*
X007237Y013600D02*
X007237Y013600D01*
X006937Y014483D02*
X006937Y014755D01*
X006637Y014527D02*
X006637Y011705D01*
X006625Y011700D02*
X006437Y011700D01*
X006437Y011800D02*
X006717Y011800D01*
X005237Y011200D02*
X005237Y015847D01*
X004684Y016400D01*
X004216Y016500D02*
X003787Y016500D01*
X003787Y016400D02*
X004213Y016400D01*
X004216Y016300D02*
X003787Y016300D01*
X003749Y015800D02*
X005001Y015800D01*
X004837Y015665D02*
X004837Y015954D01*
X004737Y015929D02*
X004737Y015690D01*
X004637Y015690D02*
X004637Y015929D01*
X004537Y015951D02*
X004537Y015667D01*
X005367Y016000D02*
X005601Y016000D01*
X005865Y015219D02*
X005865Y007228D01*
X005437Y006800D01*
X004837Y006800D01*
X004537Y006500D01*
X004537Y004400D01*
X005137Y004500D02*
X005137Y006000D01*
X006237Y007100D01*
X010237Y007700D02*
X010390Y007700D01*
X010390Y007800D02*
X010237Y007800D01*
X010237Y007900D02*
X010390Y007900D01*
X010390Y008000D02*
X010237Y008000D01*
X010237Y008100D02*
X010390Y008100D01*
X010390Y008200D02*
X010237Y008200D01*
X010237Y008300D02*
X010390Y008300D01*
X010390Y008400D02*
X010237Y008400D01*
X010237Y008500D02*
X010390Y008500D01*
X010390Y008600D02*
X010237Y008600D01*
X010237Y008700D02*
X010390Y008700D01*
X010390Y008800D02*
X010237Y008800D01*
X010237Y008900D02*
X010390Y008900D01*
X010390Y009000D02*
X010237Y009000D01*
X010237Y009100D02*
X010390Y009100D01*
X010390Y009200D02*
X010237Y009200D01*
X010237Y009300D02*
X010390Y009300D01*
X010390Y009400D02*
X010237Y009400D01*
X010237Y009500D02*
X010390Y009500D01*
X010390Y009600D02*
X010237Y009600D01*
X010790Y008200D02*
X015018Y008200D01*
X014816Y007900D02*
X010790Y007900D01*
X012037Y005437D02*
X012037Y001850D01*
X015537Y001850D02*
X015537Y003961D01*
X015630Y004000D02*
X017086Y004000D01*
X017437Y004363D02*
X017437Y005018D01*
X017637Y004936D02*
X017637Y004454D01*
X017887Y004400D02*
X017987Y004400D01*
X017987Y004300D02*
X017887Y004300D01*
X017887Y004200D02*
X017987Y004200D01*
X017987Y004100D02*
X017887Y004100D01*
X017887Y004000D02*
X017987Y004000D01*
X017987Y003900D02*
X017887Y003900D01*
X017887Y003800D02*
X017987Y003800D01*
X017987Y003700D02*
X017887Y003700D01*
X018137Y003581D02*
X018137Y003481D01*
X018237Y003481D02*
X018237Y003581D01*
X018337Y003581D02*
X018337Y003481D01*
X018437Y003481D02*
X018437Y003581D01*
X018537Y003581D02*
X018537Y003481D01*
X018637Y003481D02*
X018637Y003581D01*
X018737Y003581D02*
X018737Y003481D01*
X018837Y003481D02*
X018837Y003581D01*
X018905Y003600D02*
X020687Y003600D01*
X020687Y003700D02*
X018893Y003700D01*
X019237Y003913D02*
X019237Y001850D01*
X019537Y001850D02*
X019537Y003775D01*
X019737Y003800D02*
X019837Y003800D01*
X019837Y003900D02*
X019737Y003900D01*
X019737Y004000D02*
X019837Y004000D01*
X019837Y004100D02*
X019737Y004100D01*
X019737Y004200D02*
X019837Y004200D01*
X019837Y004300D02*
X019737Y004300D01*
X019737Y004400D02*
X019837Y004400D01*
X019837Y004500D02*
X019737Y004500D01*
X019737Y004600D02*
X019837Y004600D01*
X019837Y004663D02*
X019737Y004663D01*
X019637Y004663D02*
X019637Y004763D01*
X019537Y004763D02*
X019537Y004663D01*
X019437Y004663D02*
X019437Y004763D01*
X019337Y004763D02*
X019337Y004663D01*
X019237Y004663D02*
X019237Y004763D01*
X019137Y004763D02*
X019137Y004663D01*
X019037Y004663D02*
X019037Y004763D01*
X018937Y004763D02*
X018937Y004663D01*
X018835Y004900D02*
X018151Y004900D01*
X018137Y004894D02*
X018137Y004481D01*
X018037Y004496D02*
X018037Y004894D01*
X018237Y004936D02*
X018237Y004454D01*
X018337Y004415D02*
X018337Y004977D01*
X018393Y005000D02*
X018860Y005000D01*
X018837Y004908D02*
X018837Y005453D01*
X018815Y005400D02*
X019103Y005400D01*
X018897Y005100D02*
X018558Y005100D01*
X018537Y005079D02*
X018537Y004294D01*
X018529Y004300D02*
X018909Y004300D01*
X018869Y004400D02*
X018369Y004400D01*
X018437Y004363D02*
X018437Y005018D01*
X018737Y002981D02*
X018737Y001850D01*
X020665Y004300D02*
X020687Y004300D01*
X015637Y004003D02*
X015637Y001850D01*
X019287Y009400D02*
X019387Y009400D01*
X019387Y009500D02*
X019287Y009500D01*
X019137Y009650D02*
X019137Y009750D01*
X019037Y009750D02*
X019037Y009650D01*
X019287Y009900D02*
X019387Y009900D01*
X019387Y010000D02*
X019287Y010000D01*
X019537Y009750D02*
X019537Y009650D01*
X019637Y009650D02*
X019637Y009750D01*
X008228Y015091D02*
X008228Y015219D01*
X007237Y014788D02*
X007237Y014783D01*
X006954Y014500D02*
X006610Y014500D01*
D19*
X008228Y016400D02*
X008228Y018391D01*
X008237Y018400D01*
X012137Y018400D01*
X020337Y018400D01*
X020437Y018300D01*
X020437Y005562D01*
X019787Y004713D01*
X002937Y015300D02*
X001937Y015300D01*
D20*
X002737Y002200D03*
X003337Y004500D03*
X004537Y004400D03*
X005137Y004500D03*
X006237Y005200D03*
X005837Y006200D03*
X003937Y005800D03*
X008037Y002700D03*
X010037Y002200D03*
X008637Y005800D03*
X008937Y009700D03*
X007237Y011200D03*
X006737Y011400D03*
X007037Y011800D03*
X005237Y011200D03*
X003537Y011800D03*
X003137Y012200D03*
X007537Y017200D03*
X012137Y012900D03*
X012137Y011200D03*
D21*
X013737Y011200D01*
X014037Y010900D01*
X014037Y005700D01*
X013970Y005767D01*
X013329Y005767D01*
X014037Y005700D02*
X014037Y002300D01*
X014137Y002200D01*
X017637Y002200D01*
X017937Y002500D01*
X017937Y003531D01*
X014137Y002200D02*
X010037Y002200D01*
X005937Y002200D01*
X005837Y002300D01*
X005837Y006200D01*
X005937Y002200D02*
X002737Y002200D01*
X012137Y012900D02*
X012137Y018400D01*
D22*
X008237Y018400D02*
X004337Y018400D01*
X004037Y018100D01*
X004037Y015500D01*
X003837Y015300D01*
X002937Y015300D01*
X003137Y012200D02*
X003037Y012100D01*
X003037Y011300D01*
X003337Y011000D01*
X003337Y004500D01*
D23*
X003937Y005800D02*
X003937Y012900D01*
X003637Y013200D01*
X003637Y013900D01*
X003237Y014300D01*
X002937Y014300D01*
X003037Y013400D02*
X002337Y013400D01*
X001937Y013800D01*
X001937Y014300D01*
X003037Y013400D02*
X003537Y012900D01*
X003537Y011800D01*
M02*
