%
M48
M72
T01C0.0140
T02C0.0362
T03C0.0400
T04C0.0402
T05C0.0917
T06C0.0929
T07C0.1000
T08C0.1180
%
T01
X2737Y2200
X3337Y4500
X4537Y4400
X5137Y4500
X6237Y5200
X5837Y6200
X3937Y5800
X8037Y2700
X10037Y2200
X8637Y5800
X8937Y9700
X7237Y11200
X6737Y11400
X7037Y11800
X5237Y11200
X3537Y11800
X3137Y12200
X7537Y17200
X12137Y12900
X12137Y11200
T02
X12345Y6554
X12345Y5767
X13329Y5767
X13329Y6554
T03
X19337Y9700
X19337Y11700
X2937Y14300
X1937Y14300
X1937Y15300
X2937Y15300
T04
X4684Y15219
X5865Y15219
X7046Y15219
X8228Y15219
X9409Y15219
X10590Y15219
X10590Y16400
X9409Y16400
X8228Y16400
X7046Y16400
X5865Y16400
X4684Y16400
T05
X10467Y4700
X15207Y4700
T06
X9999Y17601
X5275Y17601
T07
X2437Y12700
X15437Y15700
X15437Y7700
T08
X17937Y5894
X19787Y4713
X17937Y3531
M30
