G75*
%MOIN*%
%OFA0B0*%
%FSLAX24Y24*%
%IPPOS*%
%LPD*%
%AMOC8*
5,1,8,0,0,1.08239X$1,22.5*
%
%ADD10R,0.0335X0.0354*%
%ADD11R,0.0700X0.0480*%
%ADD12R,0.1080X0.0850*%
%ADD13R,0.0354X0.0335*%
%ADD14R,0.0236X0.0236*%
%ADD15C,0.0079*%
%ADD16R,0.0630X0.0630*%
%ADD17R,0.0315X0.0315*%
%ADD18R,0.1181X0.0551*%
D10*
X011109Y012200D03*
X011565Y012200D03*
X011565Y012900D03*
X011109Y012900D03*
X019569Y007240D03*
X020025Y007240D03*
X019809Y014100D03*
X020265Y014100D03*
D11*
X013337Y008990D03*
X013337Y007810D03*
D12*
X017437Y015730D03*
X017437Y017470D03*
X019337Y017470D03*
X019337Y015730D03*
D13*
X003237Y002272D03*
X003237Y002728D03*
D14*
X003937Y002700D03*
X003937Y002300D03*
X006537Y002300D03*
X006537Y002700D03*
X007137Y002700D03*
X007137Y002300D03*
X007637Y002300D03*
X007637Y002700D03*
X008437Y002700D03*
X008437Y002300D03*
X006237Y011400D03*
X006237Y011800D03*
X005737Y011800D03*
X005737Y011400D03*
X004537Y011400D03*
X004537Y011800D03*
X003937Y011800D03*
X003937Y011400D03*
X003137Y011400D03*
X003137Y011800D03*
X004737Y012500D03*
X004737Y012900D03*
D15*
X004628Y010840D02*
X004628Y010132D01*
X004312Y010132D01*
X004312Y010840D01*
X004628Y010840D01*
X004628Y010210D02*
X004312Y010210D01*
X004312Y010288D02*
X004628Y010288D01*
X004628Y010366D02*
X004312Y010366D01*
X004312Y010444D02*
X004628Y010444D01*
X004628Y010522D02*
X004312Y010522D01*
X004312Y010600D02*
X004628Y010600D01*
X004628Y010678D02*
X004312Y010678D01*
X004312Y010756D02*
X004628Y010756D01*
X004628Y010834D02*
X004312Y010834D01*
X004038Y010840D02*
X004038Y010132D01*
X003722Y010132D01*
X003722Y010840D01*
X004038Y010840D01*
X004038Y010210D02*
X003722Y010210D01*
X003722Y010288D02*
X004038Y010288D01*
X004038Y010366D02*
X003722Y010366D01*
X003722Y010444D02*
X004038Y010444D01*
X004038Y010522D02*
X003722Y010522D01*
X003722Y010600D02*
X004038Y010600D01*
X004038Y010678D02*
X003722Y010678D01*
X003722Y010756D02*
X004038Y010756D01*
X004038Y010834D02*
X003722Y010834D01*
X003447Y010840D02*
X003447Y010132D01*
X003131Y010132D01*
X003131Y010840D01*
X003447Y010840D01*
X003447Y010210D02*
X003131Y010210D01*
X003131Y010288D02*
X003447Y010288D01*
X003447Y010366D02*
X003131Y010366D01*
X003131Y010444D02*
X003447Y010444D01*
X003447Y010522D02*
X003131Y010522D01*
X003131Y010600D02*
X003447Y010600D01*
X003447Y010678D02*
X003131Y010678D01*
X003131Y010756D02*
X003447Y010756D01*
X003447Y010834D02*
X003131Y010834D01*
X005219Y010840D02*
X005219Y010132D01*
X004903Y010132D01*
X004903Y010840D01*
X005219Y010840D01*
X005219Y010210D02*
X004903Y010210D01*
X004903Y010288D02*
X005219Y010288D01*
X005219Y010366D02*
X004903Y010366D01*
X004903Y010444D02*
X005219Y010444D01*
X005219Y010522D02*
X004903Y010522D01*
X004903Y010600D02*
X005219Y010600D01*
X005219Y010678D02*
X004903Y010678D01*
X004903Y010756D02*
X005219Y010756D01*
X005219Y010834D02*
X004903Y010834D01*
X005809Y010840D02*
X005809Y010132D01*
X005493Y010132D01*
X005493Y010840D01*
X005809Y010840D01*
X005809Y010210D02*
X005493Y010210D01*
X005493Y010288D02*
X005809Y010288D01*
X005809Y010366D02*
X005493Y010366D01*
X005493Y010444D02*
X005809Y010444D01*
X005809Y010522D02*
X005493Y010522D01*
X005493Y010600D02*
X005809Y010600D01*
X005809Y010678D02*
X005493Y010678D01*
X005493Y010756D02*
X005809Y010756D01*
X005809Y010834D02*
X005493Y010834D01*
X006400Y010840D02*
X006400Y010132D01*
X006084Y010132D01*
X006084Y010840D01*
X006400Y010840D01*
X006400Y010210D02*
X006084Y010210D01*
X006084Y010288D02*
X006400Y010288D01*
X006400Y010366D02*
X006084Y010366D01*
X006084Y010444D02*
X006400Y010444D01*
X006400Y010522D02*
X006084Y010522D01*
X006084Y010600D02*
X006400Y010600D01*
X006400Y010678D02*
X006084Y010678D01*
X006084Y010756D02*
X006400Y010756D01*
X006400Y010834D02*
X006084Y010834D01*
X006990Y010840D02*
X006990Y010132D01*
X006674Y010132D01*
X006674Y010840D01*
X006990Y010840D01*
X006990Y010210D02*
X006674Y010210D01*
X006674Y010288D02*
X006990Y010288D01*
X006990Y010366D02*
X006674Y010366D01*
X006674Y010444D02*
X006990Y010444D01*
X006990Y010522D02*
X006674Y010522D01*
X006674Y010600D02*
X006990Y010600D01*
X006990Y010678D02*
X006674Y010678D01*
X006674Y010756D02*
X006990Y010756D01*
X006990Y010834D02*
X006674Y010834D01*
X007581Y010840D02*
X007581Y010132D01*
X007265Y010132D01*
X007265Y010840D01*
X007581Y010840D01*
X007581Y010210D02*
X007265Y010210D01*
X007265Y010288D02*
X007581Y010288D01*
X007581Y010366D02*
X007265Y010366D01*
X007265Y010444D02*
X007581Y010444D01*
X007581Y010522D02*
X007265Y010522D01*
X007265Y010600D02*
X007581Y010600D01*
X007581Y010678D02*
X007265Y010678D01*
X007265Y010756D02*
X007581Y010756D01*
X007581Y010834D02*
X007265Y010834D01*
X008171Y010840D02*
X008171Y010132D01*
X007855Y010132D01*
X007855Y010840D01*
X008171Y010840D01*
X008171Y010210D02*
X007855Y010210D01*
X007855Y010288D02*
X008171Y010288D01*
X008171Y010366D02*
X007855Y010366D01*
X007855Y010444D02*
X008171Y010444D01*
X008171Y010522D02*
X007855Y010522D01*
X007855Y010600D02*
X008171Y010600D01*
X008171Y010678D02*
X007855Y010678D01*
X007855Y010756D02*
X008171Y010756D01*
X008171Y010834D02*
X007855Y010834D01*
X008171Y004068D02*
X008171Y003360D01*
X007855Y003360D01*
X007855Y004068D01*
X008171Y004068D01*
X008171Y003438D02*
X007855Y003438D01*
X007855Y003516D02*
X008171Y003516D01*
X008171Y003594D02*
X007855Y003594D01*
X007855Y003672D02*
X008171Y003672D01*
X008171Y003750D02*
X007855Y003750D01*
X007855Y003828D02*
X008171Y003828D01*
X008171Y003906D02*
X007855Y003906D01*
X007855Y003984D02*
X008171Y003984D01*
X008171Y004062D02*
X007855Y004062D01*
X007581Y004068D02*
X007581Y003360D01*
X007265Y003360D01*
X007265Y004068D01*
X007581Y004068D01*
X007581Y003438D02*
X007265Y003438D01*
X007265Y003516D02*
X007581Y003516D01*
X007581Y003594D02*
X007265Y003594D01*
X007265Y003672D02*
X007581Y003672D01*
X007581Y003750D02*
X007265Y003750D01*
X007265Y003828D02*
X007581Y003828D01*
X007581Y003906D02*
X007265Y003906D01*
X007265Y003984D02*
X007581Y003984D01*
X007581Y004062D02*
X007265Y004062D01*
X006990Y004068D02*
X006990Y003360D01*
X006674Y003360D01*
X006674Y004068D01*
X006990Y004068D01*
X006990Y003438D02*
X006674Y003438D01*
X006674Y003516D02*
X006990Y003516D01*
X006990Y003594D02*
X006674Y003594D01*
X006674Y003672D02*
X006990Y003672D01*
X006990Y003750D02*
X006674Y003750D01*
X006674Y003828D02*
X006990Y003828D01*
X006990Y003906D02*
X006674Y003906D01*
X006674Y003984D02*
X006990Y003984D01*
X006990Y004062D02*
X006674Y004062D01*
X006400Y004068D02*
X006400Y003360D01*
X006084Y003360D01*
X006084Y004068D01*
X006400Y004068D01*
X006400Y003438D02*
X006084Y003438D01*
X006084Y003516D02*
X006400Y003516D01*
X006400Y003594D02*
X006084Y003594D01*
X006084Y003672D02*
X006400Y003672D01*
X006400Y003750D02*
X006084Y003750D01*
X006084Y003828D02*
X006400Y003828D01*
X006400Y003906D02*
X006084Y003906D01*
X006084Y003984D02*
X006400Y003984D01*
X006400Y004062D02*
X006084Y004062D01*
X005809Y004068D02*
X005809Y003360D01*
X005493Y003360D01*
X005493Y004068D01*
X005809Y004068D01*
X005809Y003438D02*
X005493Y003438D01*
X005493Y003516D02*
X005809Y003516D01*
X005809Y003594D02*
X005493Y003594D01*
X005493Y003672D02*
X005809Y003672D01*
X005809Y003750D02*
X005493Y003750D01*
X005493Y003828D02*
X005809Y003828D01*
X005809Y003906D02*
X005493Y003906D01*
X005493Y003984D02*
X005809Y003984D01*
X005809Y004062D02*
X005493Y004062D01*
X005219Y004068D02*
X005219Y003360D01*
X004903Y003360D01*
X004903Y004068D01*
X005219Y004068D01*
X005219Y003438D02*
X004903Y003438D01*
X004903Y003516D02*
X005219Y003516D01*
X005219Y003594D02*
X004903Y003594D01*
X004903Y003672D02*
X005219Y003672D01*
X005219Y003750D02*
X004903Y003750D01*
X004903Y003828D02*
X005219Y003828D01*
X005219Y003906D02*
X004903Y003906D01*
X004903Y003984D02*
X005219Y003984D01*
X005219Y004062D02*
X004903Y004062D01*
X004628Y004068D02*
X004628Y003360D01*
X004312Y003360D01*
X004312Y004068D01*
X004628Y004068D01*
X004628Y003438D02*
X004312Y003438D01*
X004312Y003516D02*
X004628Y003516D01*
X004628Y003594D02*
X004312Y003594D01*
X004312Y003672D02*
X004628Y003672D01*
X004628Y003750D02*
X004312Y003750D01*
X004312Y003828D02*
X004628Y003828D01*
X004628Y003906D02*
X004312Y003906D01*
X004312Y003984D02*
X004628Y003984D01*
X004628Y004062D02*
X004312Y004062D01*
X004038Y004068D02*
X004038Y003360D01*
X003722Y003360D01*
X003722Y004068D01*
X004038Y004068D01*
X004038Y003438D02*
X003722Y003438D01*
X003722Y003516D02*
X004038Y003516D01*
X004038Y003594D02*
X003722Y003594D01*
X003722Y003672D02*
X004038Y003672D01*
X004038Y003750D02*
X003722Y003750D01*
X003722Y003828D02*
X004038Y003828D01*
X004038Y003906D02*
X003722Y003906D01*
X003722Y003984D02*
X004038Y003984D01*
X004038Y004062D02*
X003722Y004062D01*
X003447Y004068D02*
X003447Y003360D01*
X003131Y003360D01*
X003131Y004068D01*
X003447Y004068D01*
X003447Y003438D02*
X003131Y003438D01*
X003131Y003516D02*
X003447Y003516D01*
X003447Y003594D02*
X003131Y003594D01*
X003131Y003672D02*
X003447Y003672D01*
X003447Y003750D02*
X003131Y003750D01*
X003131Y003828D02*
X003447Y003828D01*
X003447Y003906D02*
X003131Y003906D01*
X003131Y003984D02*
X003447Y003984D01*
X003447Y004062D02*
X003131Y004062D01*
D16*
X005880Y007541D03*
D17*
X009042Y002200D03*
X009632Y002200D03*
D18*
X010192Y010400D03*
X012082Y010400D03*
M02*
