G75*
%MOIN*%
%OFA0B0*%
%FSLAX24Y24*%
%IPPOS*%
%LPD*%
%AMOC8*
5,1,8,0,0,1.08239X$1,22.5*
%
%ADD10C,0.0000*%
%ADD11C,0.0080*%
%ADD12C,0.0050*%
%ADD13C,0.0030*%
%ADD14C,0.0060*%
%ADD15C,0.0160*%
%ADD16C,0.0220*%
%ADD17C,0.0100*%
%ADD18R,0.0118X0.0059*%
%ADD19R,0.0118X0.0118*%
D10*
X000291Y001005D02*
X012009Y001005D01*
X012009Y001006D02*
X012031Y001008D01*
X012053Y001013D01*
X012073Y001021D01*
X012092Y001033D01*
X012109Y001047D01*
X012123Y001064D01*
X012135Y001083D01*
X012143Y001103D01*
X012148Y001125D01*
X012150Y001147D01*
X012150Y014864D01*
X012148Y014886D01*
X012143Y014908D01*
X012135Y014928D01*
X012123Y014947D01*
X012109Y014964D01*
X012092Y014978D01*
X012073Y014990D01*
X012053Y014998D01*
X012031Y015003D01*
X012009Y015005D01*
X000291Y015005D01*
X000269Y015003D01*
X000247Y014998D01*
X000227Y014990D01*
X000208Y014978D01*
X000191Y014964D01*
X000177Y014947D01*
X000165Y014928D01*
X000157Y014908D01*
X000152Y014886D01*
X000150Y014864D01*
X000150Y001147D01*
X000152Y001125D01*
X000157Y001103D01*
X000165Y001083D01*
X000177Y001064D01*
X000191Y001047D01*
X000208Y001033D01*
X000227Y001021D01*
X000247Y001013D01*
X000269Y001008D01*
X000291Y001006D01*
X003457Y003241D02*
X003459Y003289D01*
X003465Y003337D01*
X003475Y003384D01*
X003488Y003430D01*
X003506Y003475D01*
X003526Y003519D01*
X003551Y003561D01*
X003579Y003600D01*
X003609Y003637D01*
X003643Y003671D01*
X003680Y003703D01*
X003718Y003732D01*
X003759Y003757D01*
X003802Y003779D01*
X003847Y003797D01*
X003893Y003811D01*
X003940Y003822D01*
X003988Y003829D01*
X004036Y003832D01*
X004084Y003831D01*
X004132Y003826D01*
X004180Y003817D01*
X004226Y003805D01*
X004271Y003788D01*
X004315Y003768D01*
X004357Y003745D01*
X004397Y003718D01*
X004435Y003688D01*
X004470Y003655D01*
X004502Y003619D01*
X004532Y003581D01*
X004558Y003540D01*
X004580Y003497D01*
X004600Y003453D01*
X004615Y003408D01*
X004627Y003361D01*
X004635Y003313D01*
X004639Y003265D01*
X004639Y003217D01*
X004635Y003169D01*
X004627Y003121D01*
X004615Y003074D01*
X004600Y003029D01*
X004580Y002985D01*
X004558Y002942D01*
X004532Y002901D01*
X004502Y002863D01*
X004470Y002827D01*
X004435Y002794D01*
X004397Y002764D01*
X004357Y002737D01*
X004315Y002714D01*
X004271Y002694D01*
X004226Y002677D01*
X004180Y002665D01*
X004132Y002656D01*
X004084Y002651D01*
X004036Y002650D01*
X003988Y002653D01*
X003940Y002660D01*
X003893Y002671D01*
X003847Y002685D01*
X003802Y002703D01*
X003759Y002725D01*
X003718Y002750D01*
X003680Y002779D01*
X003643Y002811D01*
X003609Y002845D01*
X003579Y002882D01*
X003551Y002921D01*
X003526Y002963D01*
X003506Y003007D01*
X003488Y003052D01*
X003475Y003098D01*
X003465Y003145D01*
X003459Y003193D01*
X003457Y003241D01*
X007661Y003241D02*
X007663Y003289D01*
X007669Y003337D01*
X007679Y003384D01*
X007692Y003430D01*
X007710Y003475D01*
X007730Y003519D01*
X007755Y003561D01*
X007783Y003600D01*
X007813Y003637D01*
X007847Y003671D01*
X007884Y003703D01*
X007922Y003732D01*
X007963Y003757D01*
X008006Y003779D01*
X008051Y003797D01*
X008097Y003811D01*
X008144Y003822D01*
X008192Y003829D01*
X008240Y003832D01*
X008288Y003831D01*
X008336Y003826D01*
X008384Y003817D01*
X008430Y003805D01*
X008475Y003788D01*
X008519Y003768D01*
X008561Y003745D01*
X008601Y003718D01*
X008639Y003688D01*
X008674Y003655D01*
X008706Y003619D01*
X008736Y003581D01*
X008762Y003540D01*
X008784Y003497D01*
X008804Y003453D01*
X008819Y003408D01*
X008831Y003361D01*
X008839Y003313D01*
X008843Y003265D01*
X008843Y003217D01*
X008839Y003169D01*
X008831Y003121D01*
X008819Y003074D01*
X008804Y003029D01*
X008784Y002985D01*
X008762Y002942D01*
X008736Y002901D01*
X008706Y002863D01*
X008674Y002827D01*
X008639Y002794D01*
X008601Y002764D01*
X008561Y002737D01*
X008519Y002714D01*
X008475Y002694D01*
X008430Y002677D01*
X008384Y002665D01*
X008336Y002656D01*
X008288Y002651D01*
X008240Y002650D01*
X008192Y002653D01*
X008144Y002660D01*
X008097Y002671D01*
X008051Y002685D01*
X008006Y002703D01*
X007963Y002725D01*
X007922Y002750D01*
X007884Y002779D01*
X007847Y002811D01*
X007813Y002845D01*
X007783Y002882D01*
X007755Y002921D01*
X007730Y002963D01*
X007710Y003007D01*
X007692Y003052D01*
X007679Y003098D01*
X007669Y003145D01*
X007663Y003193D01*
X007661Y003241D01*
D11*
X010581Y009805D02*
X010919Y009805D01*
X010471Y010199D02*
X010471Y010411D01*
X010581Y010805D02*
X010919Y010805D01*
X004018Y012598D02*
X003965Y012545D01*
X003858Y012545D01*
X003805Y012598D01*
X003805Y012652D01*
X003858Y012705D01*
X003965Y012705D01*
X004018Y012652D01*
X004018Y012598D01*
X003965Y012705D02*
X004018Y012759D01*
X004018Y012812D01*
X003965Y012865D01*
X003858Y012865D01*
X003805Y012812D01*
X003805Y012759D01*
X003858Y012705D01*
X003650Y012545D02*
X003437Y012545D01*
X003543Y012545D02*
X003543Y012865D01*
X003437Y012759D01*
X003282Y012812D02*
X003282Y012598D01*
X003228Y012545D01*
X003122Y012545D01*
X003068Y012598D01*
X003282Y012812D01*
X003228Y012865D01*
X003122Y012865D01*
X003068Y012812D01*
X003068Y012598D01*
X002913Y012545D02*
X002700Y012545D01*
X002913Y012759D01*
X002913Y012812D01*
X002860Y012865D01*
X002753Y012865D01*
X002700Y012812D01*
X002545Y012865D02*
X002332Y012545D01*
X002177Y012545D02*
X001963Y012545D01*
X002070Y012545D02*
X002070Y012865D01*
X001963Y012759D01*
X001808Y012545D02*
X001595Y012545D01*
X001702Y012545D02*
X001702Y012865D01*
X001595Y012759D01*
X001440Y012865D02*
X001227Y012545D01*
X001072Y012545D02*
X000858Y012545D01*
X000965Y012545D02*
X000965Y012865D01*
X000858Y012759D01*
X000704Y012812D02*
X000704Y012598D01*
X000650Y012545D01*
X000543Y012545D01*
X000490Y012598D01*
X000704Y012812D01*
X000650Y012865D01*
X000543Y012865D01*
X000490Y012812D01*
X000490Y012598D01*
X000490Y013145D02*
X000490Y013465D01*
X000650Y013465D01*
X000704Y013412D01*
X000704Y013305D01*
X000650Y013252D01*
X000490Y013252D01*
X000597Y013252D02*
X000704Y013145D01*
X000858Y013198D02*
X000858Y013305D01*
X000912Y013359D01*
X001018Y013359D01*
X001072Y013305D01*
X001072Y013252D01*
X000858Y013252D01*
X000858Y013198D02*
X000912Y013145D01*
X001018Y013145D01*
X001227Y013359D02*
X001333Y013145D01*
X001440Y013359D01*
X001595Y013198D02*
X001648Y013198D01*
X001648Y013145D01*
X001595Y013145D01*
X001595Y013198D01*
X001702Y013745D02*
X001702Y014065D01*
X001808Y014065D02*
X001595Y014065D01*
X001440Y014012D02*
X001440Y013905D01*
X001387Y013852D01*
X001227Y013852D01*
X001333Y013852D02*
X001440Y013745D01*
X001227Y013745D02*
X001227Y014065D01*
X001387Y014065D01*
X001440Y014012D01*
X001333Y014345D02*
X001440Y014452D01*
X001440Y014665D01*
X001595Y014665D02*
X001755Y014665D01*
X001808Y014612D01*
X001808Y014505D01*
X001755Y014452D01*
X001595Y014452D01*
X001702Y014452D02*
X001808Y014345D01*
X001595Y014345D02*
X001595Y014665D01*
X001333Y014345D02*
X001227Y014452D01*
X001227Y014665D01*
X001072Y014612D02*
X001018Y014665D01*
X000912Y014665D01*
X000858Y014612D01*
X000858Y014559D01*
X000912Y014505D01*
X001018Y014505D01*
X001072Y014452D01*
X001072Y014398D01*
X001018Y014345D01*
X000912Y014345D01*
X000858Y014398D01*
X000704Y014345D02*
X000704Y014665D01*
X000490Y014665D02*
X000490Y014345D01*
X000704Y014345D02*
X000490Y014665D01*
X000490Y014065D02*
X000490Y013798D01*
X000543Y013745D01*
X000650Y013745D01*
X000704Y013798D01*
X000704Y014065D01*
X000858Y013959D02*
X000965Y014065D01*
X001072Y013959D01*
X001072Y013745D01*
X001072Y013905D02*
X000858Y013905D01*
X000858Y013959D02*
X000858Y013745D01*
X002147Y013359D02*
X002254Y013465D01*
X002254Y013145D01*
X002147Y013145D02*
X002361Y013145D01*
X002516Y013145D02*
X002516Y013198D01*
X002569Y013198D01*
X002569Y013145D01*
X002516Y013145D01*
X002700Y013198D02*
X002913Y013412D01*
X002913Y013198D01*
X002860Y013145D01*
X002753Y013145D01*
X002700Y013198D01*
X002700Y013412D01*
X002753Y013465D01*
X002860Y013465D01*
X002913Y013412D01*
X003068Y013198D02*
X003122Y013198D01*
X003122Y013145D01*
X003068Y013145D01*
X003068Y013198D01*
X003252Y013145D02*
X003466Y013145D01*
X003359Y013145D02*
X003359Y013465D01*
X003252Y013359D01*
X003282Y013745D02*
X003122Y013745D01*
X003068Y013798D01*
X003122Y013852D01*
X003282Y013852D01*
X003282Y013905D02*
X003282Y013745D01*
X003437Y013745D02*
X003437Y013959D01*
X003543Y013959D02*
X003437Y013852D01*
X003543Y013959D02*
X003597Y013959D01*
X003743Y013905D02*
X003797Y013959D01*
X003957Y013959D01*
X003957Y014065D02*
X003957Y013745D01*
X003797Y013745D01*
X003743Y013798D01*
X003743Y013905D01*
X003421Y014345D02*
X003314Y014345D01*
X003367Y014345D02*
X003367Y014559D01*
X003314Y014559D01*
X003367Y014665D02*
X003367Y014719D01*
X003159Y014665D02*
X002945Y014665D01*
X002945Y014345D01*
X002807Y014345D02*
X002700Y014345D01*
X002753Y014345D02*
X002753Y014559D01*
X002700Y014559D01*
X002753Y014665D02*
X002753Y014719D01*
X002545Y014665D02*
X002545Y014345D01*
X002438Y014452D01*
X002332Y014345D01*
X002332Y014665D01*
X002332Y014065D02*
X002492Y014065D01*
X002545Y014012D01*
X002545Y013959D01*
X002492Y013905D01*
X002332Y013905D01*
X002332Y013745D02*
X002492Y013745D01*
X002545Y013798D01*
X002545Y013852D01*
X002492Y013905D01*
X002700Y013905D02*
X002700Y013798D01*
X002753Y013745D01*
X002860Y013745D01*
X002913Y013798D01*
X002913Y013905D01*
X002860Y013959D01*
X002753Y013959D01*
X002700Y013905D01*
X002332Y013745D02*
X002332Y014065D01*
X002945Y014505D02*
X003052Y014505D01*
X003122Y013959D02*
X003228Y013959D01*
X003282Y013905D01*
D12*
X005638Y013670D02*
X005638Y013512D01*
X005670Y013480D01*
X005733Y013480D01*
X005765Y013512D01*
X005765Y013670D01*
X005859Y013639D02*
X005891Y013670D01*
X005954Y013670D01*
X005986Y013639D01*
X005986Y013607D01*
X005859Y013480D01*
X005986Y013480D01*
X009675Y012289D02*
X009675Y012162D01*
X009707Y012130D01*
X009770Y012130D01*
X009802Y012162D01*
X009896Y012162D02*
X009928Y012130D01*
X009991Y012130D01*
X010023Y012162D01*
X010023Y012194D01*
X009991Y012225D01*
X009959Y012225D01*
X009991Y012225D02*
X010023Y012257D01*
X010023Y012289D01*
X009991Y012320D01*
X009928Y012320D01*
X009896Y012289D01*
X009802Y012289D02*
X009770Y012320D01*
X009707Y012320D01*
X009675Y012289D01*
X009957Y012705D02*
X010020Y012705D01*
X010052Y012737D01*
X009957Y012705D02*
X009925Y012737D01*
X009925Y012864D01*
X009957Y012895D01*
X010020Y012895D01*
X010052Y012864D01*
X010146Y012800D02*
X010273Y012800D01*
X010241Y012705D02*
X010241Y012895D01*
X010146Y012800D01*
X010179Y013310D02*
X010116Y013374D01*
X010147Y013374D02*
X010052Y013374D01*
X010052Y013310D02*
X010052Y013500D01*
X010147Y013500D01*
X010179Y013469D01*
X010179Y013405D01*
X010147Y013374D01*
X010273Y013437D02*
X010337Y013500D01*
X010337Y013310D01*
X010400Y013310D02*
X010273Y013310D01*
X010525Y014080D02*
X010652Y014080D01*
X010746Y014080D02*
X010873Y014080D01*
X010967Y014080D02*
X011062Y014080D01*
X011094Y014112D01*
X011094Y014239D01*
X011062Y014270D01*
X010967Y014270D01*
X010967Y014080D01*
X011188Y014080D02*
X011315Y014080D01*
X011251Y014080D02*
X011251Y014270D01*
X011188Y014207D01*
X010873Y014270D02*
X010746Y014270D01*
X010746Y014080D01*
X010746Y014175D02*
X010809Y014175D01*
X010525Y014270D02*
X010525Y014080D01*
X010241Y011295D02*
X010178Y011295D01*
X010146Y011264D01*
X010052Y011264D02*
X010020Y011295D01*
X009957Y011295D01*
X009925Y011264D01*
X009925Y011137D01*
X009957Y011105D01*
X010020Y011105D01*
X010052Y011137D01*
X010146Y011105D02*
X010273Y011232D01*
X010273Y011264D01*
X010241Y011295D01*
X010273Y011105D02*
X010146Y011105D01*
X011685Y009964D02*
X011875Y009964D01*
X011875Y009901D02*
X011875Y010028D01*
X011748Y009901D02*
X011685Y009964D01*
X011685Y009807D02*
X011843Y009807D01*
X011875Y009775D01*
X011875Y009712D01*
X011843Y009680D01*
X011685Y009680D01*
X010023Y008930D02*
X009896Y008930D01*
X009959Y008930D02*
X009959Y009120D01*
X009896Y009057D01*
X009802Y009089D02*
X009770Y009120D01*
X009707Y009120D01*
X009675Y009089D01*
X009675Y008962D01*
X009707Y008930D01*
X009770Y008930D01*
X009802Y008962D01*
X009615Y008292D02*
X009615Y006087D01*
X002685Y006087D01*
X002685Y008292D01*
X009615Y008292D01*
X011071Y005493D02*
X011071Y000942D01*
X001229Y000942D01*
X001229Y005493D01*
X011071Y005493D01*
D13*
X009862Y006417D02*
X009669Y006417D01*
X009766Y006417D02*
X009766Y006708D01*
X009669Y006611D01*
X009669Y007638D02*
X009669Y007686D01*
X009862Y007880D01*
X009862Y007928D01*
X009669Y007928D01*
X002637Y007840D02*
X002589Y007889D01*
X002492Y007889D01*
X002444Y007840D01*
X002637Y007792D02*
X002444Y007598D01*
X002637Y007598D01*
X002637Y007792D02*
X002637Y007840D01*
X002343Y007598D02*
X002149Y007598D01*
X002246Y007598D02*
X002246Y007889D01*
X002149Y007792D01*
X002579Y006708D02*
X002482Y006659D01*
X002385Y006562D01*
X002531Y006562D01*
X002579Y006514D01*
X002579Y006466D01*
X002531Y006417D01*
X002434Y006417D01*
X002385Y006466D01*
X002385Y006562D01*
D14*
X005101Y013269D02*
X005103Y013295D01*
X005109Y013321D01*
X005118Y013346D01*
X005131Y013369D01*
X005147Y013390D01*
X005166Y013408D01*
X005188Y013424D01*
X005211Y013436D01*
X005236Y013444D01*
X005262Y013449D01*
X005289Y013450D01*
X005315Y013447D01*
X005340Y013440D01*
X005365Y013430D01*
X005387Y013416D01*
X005408Y013399D01*
X005425Y013380D01*
X005440Y013358D01*
X005451Y013334D01*
X005459Y013308D01*
X005463Y013282D01*
X005463Y013256D01*
X005459Y013230D01*
X005451Y013204D01*
X005440Y013180D01*
X005425Y013158D01*
X005408Y013139D01*
X005387Y013122D01*
X005365Y013108D01*
X005340Y013098D01*
X005315Y013091D01*
X005289Y013088D01*
X005262Y013089D01*
X005236Y013094D01*
X005211Y013102D01*
X005188Y013114D01*
X005166Y013130D01*
X005147Y013148D01*
X005131Y013169D01*
X005118Y013192D01*
X005109Y013217D01*
X005103Y013243D01*
X005101Y013269D01*
X010060Y006461D02*
X010190Y006461D01*
X010234Y006418D01*
X010234Y006331D01*
X010190Y006288D01*
X010060Y006288D01*
X010060Y006201D02*
X010060Y006461D01*
X010355Y006374D02*
X010442Y006461D01*
X010442Y006201D01*
X010528Y006201D02*
X010355Y006201D01*
D15*
X010850Y011193D02*
X010850Y011217D01*
X010850Y012693D02*
X010850Y012717D01*
D16*
X010750Y011917D02*
X010750Y011893D01*
X010750Y009017D02*
X010750Y008993D01*
D17*
X011150Y009675D03*
D18*
X011009Y013657D03*
X011009Y013953D03*
D19*
X011009Y013805D03*
M02*
