G75*
%MOIN*%
%OFA0B0*%
%FSLAX24Y24*%
%IPPOS*%
%LPD*%
%AMOC8*
5,1,8,0,0,1.08239X$1,22.5*
%
%ADD10R,0.0642X0.0642*%
%ADD11C,0.0642*%
%ADD12C,0.0100*%
%ADD13C,0.0400*%
%ADD14C,0.0340*%
%ADD15C,0.0320*%
%ADD16C,0.0120*%
D10*
X009103Y006599D03*
D11*
X009103Y007780D03*
X007922Y007780D03*
X007922Y006599D03*
X006741Y006599D03*
X006741Y007780D03*
X005559Y007780D03*
X005559Y006599D03*
X004378Y006599D03*
X004378Y007780D03*
X003197Y007780D03*
X003197Y006599D03*
D12*
X000300Y001155D02*
X000300Y014855D01*
X000354Y014855D01*
X011946Y014855D01*
X012000Y014855D01*
X012000Y001155D01*
X000300Y001155D01*
X000350Y001155D02*
X000350Y014855D01*
X000300Y014805D02*
X012000Y014805D01*
X011950Y014855D02*
X011950Y001155D01*
X012000Y001205D02*
X000300Y001205D01*
X000300Y001305D02*
X012000Y001305D01*
X012000Y001405D02*
X000300Y001405D01*
X000300Y001505D02*
X012000Y001505D01*
X012000Y001605D02*
X000300Y001605D01*
X000300Y001705D02*
X012000Y001705D01*
X012000Y001805D02*
X000300Y001805D01*
X000300Y001905D02*
X012000Y001905D01*
X012000Y002005D02*
X000300Y002005D01*
X000300Y002105D02*
X012000Y002105D01*
X012000Y002205D02*
X000300Y002205D01*
X000300Y002305D02*
X012000Y002305D01*
X012000Y002405D02*
X000300Y002405D01*
X000300Y002505D02*
X003889Y002505D01*
X003900Y002500D02*
X004195Y002500D01*
X004467Y002613D01*
X004675Y002821D01*
X004788Y003094D01*
X004788Y003388D01*
X004675Y003660D01*
X004467Y003869D01*
X004195Y003981D01*
X003900Y003981D01*
X003628Y003869D01*
X003420Y003660D01*
X003307Y003388D01*
X003307Y003094D01*
X003420Y002821D01*
X003628Y002613D01*
X003900Y002500D01*
X003950Y002500D02*
X003950Y001155D01*
X004050Y001155D02*
X004050Y002500D01*
X004150Y002500D02*
X004150Y001155D01*
X004250Y001155D02*
X004250Y002523D01*
X004206Y002505D02*
X008094Y002505D01*
X008105Y002500D02*
X008400Y002500D01*
X008672Y002613D01*
X008880Y002821D01*
X008993Y003094D01*
X008993Y003388D01*
X008880Y003660D01*
X008672Y003869D01*
X008400Y003981D01*
X008105Y003981D01*
X007833Y003869D01*
X007625Y003660D01*
X007512Y003388D01*
X007512Y003094D01*
X007625Y002821D01*
X007833Y002613D01*
X008105Y002500D01*
X008150Y002500D02*
X008150Y001155D01*
X008050Y001155D02*
X008050Y002523D01*
X007950Y002565D02*
X007950Y001155D01*
X007850Y001155D02*
X007850Y002606D01*
X007852Y002605D02*
X004448Y002605D01*
X004450Y002606D02*
X004450Y001155D01*
X004550Y001155D02*
X004550Y002696D01*
X004559Y002705D02*
X007741Y002705D01*
X007750Y002696D02*
X007750Y001155D01*
X007650Y001155D02*
X007650Y002796D01*
X007641Y002805D02*
X004659Y002805D01*
X004650Y002796D02*
X004650Y001155D01*
X004750Y001155D02*
X004750Y003001D01*
X004752Y003005D02*
X007548Y003005D01*
X007550Y003001D02*
X007550Y001155D01*
X007450Y001155D02*
X007450Y013895D01*
X007350Y013895D02*
X007350Y001155D01*
X007250Y001155D02*
X007250Y013895D01*
X007150Y013895D02*
X007150Y008022D01*
X007157Y008005D02*
X007505Y008005D01*
X007523Y008047D02*
X007451Y007874D01*
X007451Y007687D01*
X007523Y007514D01*
X007655Y007381D01*
X007828Y007310D01*
X008015Y007310D01*
X008188Y007381D01*
X008321Y007514D01*
X008392Y007687D01*
X008392Y007874D01*
X008321Y008047D01*
X008188Y008179D01*
X008060Y008233D01*
X008060Y013463D01*
X008121Y013524D01*
X008170Y013641D01*
X008170Y013769D01*
X008121Y013886D01*
X008113Y013895D01*
X009907Y013895D01*
X009969Y013834D01*
X010086Y013785D01*
X010214Y013785D01*
X010331Y013834D01*
X010421Y013924D01*
X010470Y014041D01*
X010470Y014169D01*
X010421Y014286D01*
X010331Y014376D01*
X010214Y014425D01*
X010086Y014425D01*
X009969Y014376D01*
X009907Y014315D01*
X004663Y014315D01*
X004540Y014192D01*
X004340Y013992D01*
X004340Y009848D01*
X004279Y009786D01*
X004230Y009669D01*
X004230Y009541D01*
X004279Y009424D01*
X004369Y009334D01*
X004486Y009285D01*
X004614Y009285D01*
X004731Y009334D01*
X004821Y009424D01*
X004870Y009541D01*
X004870Y009669D01*
X004821Y009786D01*
X004760Y009848D01*
X004760Y013818D01*
X004837Y013895D01*
X007587Y013895D01*
X007579Y013886D01*
X007530Y013769D01*
X007530Y013641D01*
X007579Y013524D01*
X007640Y013463D01*
X007640Y008164D01*
X007523Y008047D01*
X007550Y008074D02*
X007550Y013593D01*
X007545Y013605D02*
X004760Y013605D01*
X004760Y013505D02*
X007597Y013505D01*
X007640Y013405D02*
X004760Y013405D01*
X004760Y013305D02*
X007640Y013305D01*
X007640Y013205D02*
X004760Y013205D01*
X004760Y013105D02*
X007640Y013105D01*
X007640Y013005D02*
X004760Y013005D01*
X004760Y012905D02*
X007640Y012905D01*
X007640Y012805D02*
X004760Y012805D01*
X004760Y012705D02*
X007640Y012705D01*
X007640Y012605D02*
X004760Y012605D01*
X004760Y012505D02*
X005038Y012505D01*
X005050Y012510D02*
X005050Y013895D01*
X005150Y013895D02*
X005150Y012525D01*
X005214Y012525D02*
X005086Y012525D01*
X004969Y012476D01*
X004879Y012386D01*
X004830Y012269D01*
X004830Y012141D01*
X004879Y012024D01*
X004969Y011934D01*
X005086Y011885D01*
X005214Y011885D01*
X005331Y011934D01*
X005393Y011995D01*
X006463Y011995D01*
X006540Y011918D01*
X006540Y008207D01*
X006474Y008179D01*
X006341Y008047D01*
X006270Y007874D01*
X006270Y007687D01*
X006341Y007514D01*
X006474Y007381D01*
X006647Y007310D01*
X006834Y007310D01*
X007007Y007381D01*
X007140Y007514D01*
X007211Y007687D01*
X007211Y007874D01*
X007140Y008047D01*
X007007Y008179D01*
X006960Y008199D01*
X006960Y012092D01*
X006837Y012215D01*
X006637Y012415D01*
X005393Y012415D01*
X005331Y012476D01*
X005214Y012525D01*
X005250Y012510D02*
X005250Y013895D01*
X005350Y013895D02*
X005350Y012458D01*
X005262Y012505D02*
X007640Y012505D01*
X007640Y012405D02*
X006647Y012405D01*
X006650Y012402D02*
X006650Y013895D01*
X006750Y013895D02*
X006750Y012302D01*
X006747Y012305D02*
X007640Y012305D01*
X007640Y012205D02*
X006847Y012205D01*
X006850Y012202D02*
X006850Y013895D01*
X006950Y013895D02*
X006950Y012102D01*
X006947Y012105D02*
X007640Y012105D01*
X007640Y012005D02*
X006960Y012005D01*
X006960Y011905D02*
X007640Y011905D01*
X007640Y011805D02*
X006960Y011805D01*
X006960Y011705D02*
X007640Y011705D01*
X007640Y011605D02*
X006960Y011605D01*
X006960Y011505D02*
X007640Y011505D01*
X007640Y011405D02*
X006960Y011405D01*
X006960Y011305D02*
X007640Y011305D01*
X007640Y011205D02*
X006960Y011205D01*
X006960Y011105D02*
X007640Y011105D01*
X007640Y011005D02*
X006960Y011005D01*
X006960Y010905D02*
X007640Y010905D01*
X007640Y010805D02*
X006960Y010805D01*
X006960Y010705D02*
X007640Y010705D01*
X007640Y010605D02*
X006960Y010605D01*
X006960Y010505D02*
X007640Y010505D01*
X007640Y010405D02*
X006960Y010405D01*
X006960Y010305D02*
X007640Y010305D01*
X007640Y010205D02*
X006960Y010205D01*
X006960Y010105D02*
X007640Y010105D01*
X007640Y010005D02*
X006960Y010005D01*
X006960Y009905D02*
X007640Y009905D01*
X007640Y009805D02*
X006960Y009805D01*
X006960Y009705D02*
X007640Y009705D01*
X007640Y009605D02*
X006960Y009605D01*
X006960Y009505D02*
X007640Y009505D01*
X007640Y009405D02*
X006960Y009405D01*
X006960Y009305D02*
X007640Y009305D01*
X007640Y009205D02*
X006960Y009205D01*
X006960Y009105D02*
X007640Y009105D01*
X007640Y009005D02*
X006960Y009005D01*
X006960Y008905D02*
X007640Y008905D01*
X007640Y008805D02*
X006960Y008805D01*
X006960Y008705D02*
X007640Y008705D01*
X007640Y008605D02*
X006960Y008605D01*
X006960Y008505D02*
X007640Y008505D01*
X007640Y008405D02*
X006960Y008405D01*
X006960Y008305D02*
X007640Y008305D01*
X007640Y008205D02*
X006960Y008205D01*
X007050Y008137D02*
X007050Y013895D01*
X007050Y014315D02*
X007050Y014855D01*
X006950Y014855D02*
X006950Y014315D01*
X006850Y014315D02*
X006850Y014855D01*
X006750Y014855D02*
X006750Y014315D01*
X006650Y014315D02*
X006650Y014855D01*
X006550Y014855D02*
X006550Y014315D01*
X006450Y014315D02*
X006450Y014855D01*
X006350Y014855D02*
X006350Y014315D01*
X006250Y014315D02*
X006250Y014855D01*
X006150Y014855D02*
X006150Y014315D01*
X006050Y014315D02*
X006050Y014855D01*
X005950Y014855D02*
X005950Y014315D01*
X005850Y014315D02*
X005850Y014855D01*
X005750Y014855D02*
X005750Y014315D01*
X005650Y014315D02*
X005650Y014855D01*
X005550Y014855D02*
X005550Y014315D01*
X005450Y014315D02*
X005450Y014855D01*
X005350Y014855D02*
X005350Y014315D01*
X005250Y014315D02*
X005250Y014855D01*
X005150Y014855D02*
X005150Y014315D01*
X005050Y014315D02*
X005050Y014855D01*
X004950Y014855D02*
X004950Y014315D01*
X004850Y014315D02*
X004850Y014855D01*
X004750Y014855D02*
X004750Y014315D01*
X004653Y014305D02*
X000300Y014305D01*
X000300Y014205D02*
X004553Y014205D01*
X004550Y014202D02*
X004550Y014855D01*
X004450Y014855D02*
X004450Y014102D01*
X004453Y014105D02*
X000300Y014105D01*
X000300Y014005D02*
X004353Y014005D01*
X004350Y014002D02*
X004350Y014855D01*
X004250Y014855D02*
X004250Y009717D01*
X004245Y009705D02*
X000300Y009705D01*
X000300Y009605D02*
X004230Y009605D01*
X004245Y009505D02*
X000300Y009505D01*
X000300Y009405D02*
X004297Y009405D01*
X004350Y009353D02*
X004350Y008251D01*
X004285Y008251D02*
X004112Y008179D01*
X003979Y008047D01*
X003908Y007874D01*
X003908Y007687D01*
X003979Y007514D01*
X004112Y007381D01*
X004285Y007310D01*
X004472Y007310D01*
X004645Y007381D01*
X004777Y007514D01*
X004849Y007687D01*
X004849Y007874D01*
X004777Y008047D01*
X004645Y008179D01*
X004472Y008251D01*
X004285Y008251D01*
X004250Y008237D02*
X004250Y009493D01*
X004438Y009305D02*
X000300Y009305D01*
X000300Y009205D02*
X006540Y009205D01*
X006540Y009105D02*
X000300Y009105D01*
X000300Y009005D02*
X006540Y009005D01*
X006540Y008905D02*
X000300Y008905D01*
X000300Y008805D02*
X006540Y008805D01*
X006540Y008705D02*
X000300Y008705D01*
X000300Y008605D02*
X006540Y008605D01*
X006540Y008505D02*
X000300Y008505D01*
X000300Y008405D02*
X006540Y008405D01*
X006540Y008305D02*
X000300Y008305D01*
X000300Y008205D02*
X002993Y008205D01*
X002950Y008187D02*
X002950Y014855D01*
X002850Y014855D02*
X002850Y008099D01*
X002856Y008105D02*
X000300Y008105D01*
X000300Y008005D02*
X002781Y008005D01*
X002798Y008047D02*
X002726Y007874D01*
X002726Y007687D01*
X002798Y007514D01*
X002931Y007381D01*
X003104Y007310D01*
X003291Y007310D01*
X003464Y007381D01*
X003596Y007514D01*
X003668Y007687D01*
X003668Y007874D01*
X003596Y008047D01*
X003464Y008179D01*
X003291Y008251D01*
X003104Y008251D01*
X002931Y008179D01*
X002798Y008047D01*
X002750Y007931D02*
X002750Y014855D01*
X002650Y014855D02*
X002650Y001155D01*
X002550Y001155D02*
X002550Y014855D01*
X002450Y014855D02*
X002450Y001155D01*
X002350Y001155D02*
X002350Y014855D01*
X002250Y014855D02*
X002250Y001155D01*
X002150Y001155D02*
X002150Y014855D01*
X002050Y014855D02*
X002050Y001155D01*
X001950Y001155D02*
X001950Y014855D01*
X001850Y014855D02*
X001850Y001155D01*
X001750Y001155D02*
X001750Y014855D01*
X001650Y014855D02*
X001650Y001155D01*
X001550Y001155D02*
X001550Y014855D01*
X001450Y014855D02*
X001450Y001155D01*
X001350Y001155D02*
X001350Y014855D01*
X001250Y014855D02*
X001250Y001155D01*
X001150Y001155D02*
X001150Y014855D01*
X001050Y014855D02*
X001050Y001155D01*
X000950Y001155D02*
X000950Y014855D01*
X000850Y014855D02*
X000850Y001155D01*
X000750Y001155D02*
X000750Y014855D01*
X000650Y014855D02*
X000650Y001155D01*
X000550Y001155D02*
X000550Y014855D01*
X000450Y014855D02*
X000450Y001155D01*
X000300Y002605D02*
X003648Y002605D01*
X003650Y002604D02*
X003650Y001155D01*
X003550Y001155D02*
X003550Y002691D01*
X003536Y002705D02*
X000300Y002705D01*
X000300Y002805D02*
X003436Y002805D01*
X003450Y002791D02*
X003450Y001155D01*
X003350Y001155D02*
X003350Y002990D01*
X003344Y003005D02*
X000300Y003005D01*
X000300Y002905D02*
X003385Y002905D01*
X003307Y003105D02*
X000300Y003105D01*
X000300Y003205D02*
X003307Y003205D01*
X003307Y003305D02*
X000300Y003305D01*
X000300Y003405D02*
X003314Y003405D01*
X003350Y003492D02*
X003350Y006153D01*
X003291Y006128D02*
X003464Y006200D01*
X003596Y006333D01*
X003668Y006506D01*
X003668Y006693D01*
X003596Y006866D01*
X003464Y006998D01*
X003291Y007070D01*
X003104Y007070D01*
X002931Y006998D01*
X002798Y006866D01*
X002726Y006693D01*
X002726Y006506D01*
X002798Y006333D01*
X002931Y006200D01*
X003104Y006128D01*
X003291Y006128D01*
X003250Y006128D02*
X003250Y001155D01*
X003150Y001155D02*
X003150Y006128D01*
X003050Y006151D02*
X003050Y001155D01*
X002950Y001155D02*
X002950Y006192D01*
X002926Y006205D02*
X000300Y006205D01*
X000300Y006105D02*
X009440Y006105D01*
X009440Y006128D02*
X009440Y005448D01*
X009379Y005386D01*
X009330Y005269D01*
X009330Y005141D01*
X009379Y005024D01*
X009469Y004934D01*
X009586Y004885D01*
X009714Y004885D01*
X009831Y004934D01*
X009921Y005024D01*
X009931Y005048D01*
X010013Y005130D01*
X010060Y005243D01*
X010060Y009817D01*
X010070Y009841D01*
X010070Y009969D01*
X010060Y009993D01*
X010060Y011817D01*
X010070Y011841D01*
X010070Y011969D01*
X010021Y012086D01*
X009931Y012176D01*
X009814Y012225D01*
X009686Y012225D01*
X009569Y012176D01*
X009479Y012086D01*
X009430Y011969D01*
X009430Y011841D01*
X009440Y011817D01*
X009440Y009993D01*
X009430Y009969D01*
X009430Y009841D01*
X009440Y009817D01*
X009440Y008109D01*
X009369Y008179D01*
X009196Y008251D01*
X009009Y008251D01*
X008836Y008179D01*
X008704Y008047D01*
X008632Y007874D01*
X008632Y007687D01*
X008704Y007514D01*
X008836Y007381D01*
X009009Y007310D01*
X009196Y007310D01*
X009369Y007381D01*
X009440Y007452D01*
X009440Y007070D01*
X008720Y007070D01*
X008632Y006982D01*
X008632Y006216D01*
X008720Y006128D01*
X009440Y006128D01*
X009350Y006128D02*
X009350Y005317D01*
X009345Y005305D02*
X000300Y005305D01*
X000300Y005205D02*
X009330Y005205D01*
X009345Y005105D02*
X000300Y005105D01*
X000300Y005005D02*
X009397Y005005D01*
X009450Y004953D02*
X009450Y001155D01*
X009350Y001155D02*
X009350Y005093D01*
X009538Y004905D02*
X000300Y004905D01*
X000300Y004805D02*
X012000Y004805D01*
X012000Y004705D02*
X000300Y004705D01*
X000300Y004605D02*
X012000Y004605D01*
X012000Y004505D02*
X000300Y004505D01*
X000300Y004405D02*
X012000Y004405D01*
X012000Y004305D02*
X000300Y004305D01*
X000300Y004205D02*
X012000Y004205D01*
X012000Y004105D02*
X000300Y004105D01*
X000300Y004005D02*
X012000Y004005D01*
X012000Y003905D02*
X008584Y003905D01*
X008550Y003919D02*
X008550Y013895D01*
X008450Y013895D02*
X008450Y003961D01*
X008350Y003981D02*
X008350Y006403D01*
X008351Y006405D02*
X008632Y006405D01*
X008632Y006305D02*
X008293Y006305D01*
X008321Y006333D02*
X008392Y006506D01*
X008392Y006693D01*
X008321Y006866D01*
X008188Y006998D01*
X008015Y007070D01*
X007828Y007070D01*
X007655Y006998D01*
X007523Y006866D01*
X007451Y006693D01*
X007451Y006506D01*
X007523Y006333D01*
X007655Y006200D01*
X007828Y006128D01*
X008015Y006128D01*
X008188Y006200D01*
X008321Y006333D01*
X008250Y006262D02*
X008250Y003981D01*
X008150Y003981D02*
X008150Y006184D01*
X008193Y006205D02*
X008643Y006205D01*
X008650Y006198D02*
X008650Y003878D01*
X008735Y003805D02*
X012000Y003805D01*
X012000Y003705D02*
X008835Y003705D01*
X008850Y003691D02*
X008850Y006128D01*
X008750Y006128D02*
X008750Y003791D01*
X008903Y003605D02*
X012000Y003605D01*
X012000Y003505D02*
X008945Y003505D01*
X008950Y003492D02*
X008950Y006128D01*
X009050Y006128D02*
X009050Y001155D01*
X008950Y001155D02*
X008950Y002990D01*
X008956Y003005D02*
X012000Y003005D01*
X012000Y002905D02*
X008915Y002905D01*
X008864Y002805D02*
X012000Y002805D01*
X012000Y002705D02*
X008764Y002705D01*
X008750Y002691D02*
X008750Y001155D01*
X008850Y001155D02*
X008850Y002791D01*
X008652Y002605D02*
X012000Y002605D01*
X012000Y002505D02*
X008411Y002505D01*
X008450Y002521D02*
X008450Y001155D01*
X008350Y001155D02*
X008350Y002500D01*
X008250Y002500D02*
X008250Y001155D01*
X008550Y001155D02*
X008550Y002563D01*
X008650Y002604D02*
X008650Y001155D01*
X009150Y001155D02*
X009150Y006128D01*
X009250Y006128D02*
X009250Y001155D01*
X009550Y001155D02*
X009550Y004900D01*
X009650Y004885D02*
X009650Y001155D01*
X009750Y001155D02*
X009750Y004900D01*
X009762Y004905D02*
X012000Y004905D01*
X012000Y005005D02*
X009903Y005005D01*
X009850Y004953D02*
X009850Y001155D01*
X009950Y001155D02*
X009950Y005067D01*
X009988Y005105D02*
X012000Y005105D01*
X012000Y005205D02*
X010044Y005205D01*
X010050Y005219D02*
X010050Y001155D01*
X010150Y001155D02*
X010150Y013785D01*
X010050Y013800D02*
X010050Y012017D01*
X010055Y012005D02*
X012000Y012005D01*
X012000Y011905D02*
X010070Y011905D01*
X010060Y011805D02*
X012000Y011805D01*
X012000Y011705D02*
X010060Y011705D01*
X010060Y011605D02*
X012000Y011605D01*
X012000Y011505D02*
X010060Y011505D01*
X010060Y011405D02*
X012000Y011405D01*
X012000Y011305D02*
X010060Y011305D01*
X010060Y011205D02*
X012000Y011205D01*
X012000Y011105D02*
X010060Y011105D01*
X010060Y011005D02*
X012000Y011005D01*
X012000Y010905D02*
X010060Y010905D01*
X010060Y010805D02*
X012000Y010805D01*
X012000Y010705D02*
X010060Y010705D01*
X010060Y010605D02*
X012000Y010605D01*
X012000Y010505D02*
X010060Y010505D01*
X010060Y010405D02*
X012000Y010405D01*
X012000Y010305D02*
X010060Y010305D01*
X010060Y010205D02*
X012000Y010205D01*
X012000Y010105D02*
X010060Y010105D01*
X010060Y010005D02*
X012000Y010005D01*
X012000Y009905D02*
X010070Y009905D01*
X010060Y009805D02*
X012000Y009805D01*
X012000Y009705D02*
X010060Y009705D01*
X010060Y009605D02*
X012000Y009605D01*
X012000Y009505D02*
X010060Y009505D01*
X010060Y009405D02*
X012000Y009405D01*
X012000Y009305D02*
X010060Y009305D01*
X010060Y009205D02*
X012000Y009205D01*
X012000Y009105D02*
X010060Y009105D01*
X010060Y009005D02*
X012000Y009005D01*
X012000Y008905D02*
X010060Y008905D01*
X010060Y008805D02*
X012000Y008805D01*
X012000Y008705D02*
X010060Y008705D01*
X010060Y008605D02*
X012000Y008605D01*
X012000Y008505D02*
X010060Y008505D01*
X010060Y008405D02*
X012000Y008405D01*
X012000Y008305D02*
X010060Y008305D01*
X010060Y008205D02*
X012000Y008205D01*
X012000Y008105D02*
X010060Y008105D01*
X010060Y008005D02*
X012000Y008005D01*
X012000Y007905D02*
X010060Y007905D01*
X010060Y007805D02*
X012000Y007805D01*
X012000Y007705D02*
X010060Y007705D01*
X010060Y007605D02*
X012000Y007605D01*
X012000Y007505D02*
X010060Y007505D01*
X010060Y007405D02*
X012000Y007405D01*
X012000Y007305D02*
X010060Y007305D01*
X010060Y007205D02*
X012000Y007205D01*
X012000Y007105D02*
X010060Y007105D01*
X010060Y007005D02*
X012000Y007005D01*
X012000Y006905D02*
X010060Y006905D01*
X010060Y006805D02*
X012000Y006805D01*
X012000Y006705D02*
X010060Y006705D01*
X010060Y006605D02*
X012000Y006605D01*
X012000Y006505D02*
X010060Y006505D01*
X010060Y006405D02*
X012000Y006405D01*
X012000Y006305D02*
X010060Y006305D01*
X010060Y006205D02*
X012000Y006205D01*
X012000Y006105D02*
X010060Y006105D01*
X010060Y006005D02*
X012000Y006005D01*
X012000Y005905D02*
X010060Y005905D01*
X010060Y005805D02*
X012000Y005805D01*
X012000Y005705D02*
X010060Y005705D01*
X010060Y005605D02*
X012000Y005605D01*
X012000Y005505D02*
X010060Y005505D01*
X010060Y005405D02*
X012000Y005405D01*
X012000Y005305D02*
X010060Y005305D01*
X009440Y005505D02*
X000300Y005505D01*
X000300Y005405D02*
X009397Y005405D01*
X009440Y005605D02*
X000300Y005605D01*
X000300Y005705D02*
X009440Y005705D01*
X009440Y005805D02*
X000300Y005805D01*
X000300Y005905D02*
X009440Y005905D01*
X009440Y006005D02*
X000300Y006005D01*
X000300Y006305D02*
X002826Y006305D01*
X002850Y006281D02*
X002850Y001155D01*
X002750Y001155D02*
X002750Y006449D01*
X002768Y006405D02*
X000300Y006405D01*
X000300Y006505D02*
X002727Y006505D01*
X002726Y006605D02*
X000300Y006605D01*
X000300Y006705D02*
X002732Y006705D01*
X002750Y006750D02*
X002750Y007630D01*
X002760Y007605D02*
X000300Y007605D01*
X000300Y007505D02*
X002807Y007505D01*
X002850Y007462D02*
X002850Y006918D01*
X002837Y006905D02*
X000300Y006905D01*
X000300Y006805D02*
X002773Y006805D01*
X002947Y007005D02*
X000300Y007005D01*
X000300Y007105D02*
X009440Y007105D01*
X009350Y007070D02*
X009350Y007373D01*
X009393Y007405D02*
X009440Y007405D01*
X009440Y007305D02*
X000300Y007305D01*
X000300Y007205D02*
X009440Y007205D01*
X009250Y007332D02*
X009250Y007070D01*
X009150Y007070D02*
X009150Y007310D01*
X009050Y007310D02*
X009050Y007070D01*
X008950Y007070D02*
X008950Y007334D01*
X008850Y007375D02*
X008850Y007070D01*
X008750Y007070D02*
X008750Y007467D01*
X008712Y007505D02*
X008312Y007505D01*
X008250Y007443D02*
X008250Y006937D01*
X008282Y006905D02*
X008632Y006905D01*
X008650Y007000D02*
X008650Y007643D01*
X008666Y007605D02*
X008359Y007605D01*
X008350Y007584D02*
X008350Y006795D01*
X008346Y006805D02*
X008632Y006805D01*
X008632Y006705D02*
X008387Y006705D01*
X008392Y006605D02*
X008632Y006605D01*
X008632Y006505D02*
X008392Y006505D01*
X008050Y006143D02*
X008050Y003959D01*
X007950Y003917D02*
X007950Y006128D01*
X007850Y006128D02*
X007850Y003876D01*
X007921Y003905D02*
X004379Y003905D01*
X004350Y003917D02*
X004350Y006128D01*
X004285Y006128D02*
X004472Y006128D01*
X004645Y006200D01*
X004777Y006333D01*
X004849Y006506D01*
X004849Y006693D01*
X004777Y006866D01*
X004645Y006998D01*
X004472Y007070D01*
X004285Y007070D01*
X004112Y006998D01*
X003979Y006866D01*
X003908Y006693D01*
X003908Y006506D01*
X003979Y006333D01*
X004112Y006200D01*
X004285Y006128D01*
X004250Y006143D02*
X004250Y003959D01*
X004150Y003981D02*
X004150Y006184D01*
X004107Y006205D02*
X003469Y006205D01*
X003450Y006194D02*
X003450Y003691D01*
X003465Y003705D02*
X000300Y003705D01*
X000300Y003605D02*
X003397Y003605D01*
X003355Y003505D02*
X000300Y003505D01*
X000300Y003805D02*
X003565Y003805D01*
X003550Y003791D02*
X003550Y006286D01*
X003569Y006305D02*
X004007Y006305D01*
X004050Y006262D02*
X004050Y003981D01*
X003950Y003981D02*
X003950Y006403D01*
X003949Y006405D02*
X003626Y006405D01*
X003650Y006462D02*
X003650Y003878D01*
X003716Y003905D02*
X000300Y003905D01*
X002950Y007006D02*
X002950Y007373D01*
X002907Y007405D02*
X000300Y007405D01*
X000300Y007705D02*
X002726Y007705D01*
X002726Y007805D02*
X000300Y007805D01*
X000300Y007905D02*
X002739Y007905D01*
X003050Y008229D02*
X003050Y014855D01*
X003150Y014855D02*
X003150Y008251D01*
X003250Y008251D02*
X003250Y014855D01*
X003350Y014855D02*
X003350Y008227D01*
X003402Y008205D02*
X004174Y008205D01*
X004150Y008195D02*
X004150Y014855D01*
X004050Y014855D02*
X004050Y008118D01*
X004037Y008105D02*
X003538Y008105D01*
X003550Y008093D02*
X003550Y014855D01*
X003450Y014855D02*
X003450Y008185D01*
X003614Y008005D02*
X003962Y008005D01*
X003950Y007976D02*
X003950Y014855D01*
X003850Y014855D02*
X003850Y003961D01*
X003750Y003919D02*
X003750Y014855D01*
X003650Y014855D02*
X003650Y007917D01*
X003655Y007905D02*
X003920Y007905D01*
X003908Y007805D02*
X003668Y007805D01*
X003668Y007705D02*
X003908Y007705D01*
X003941Y007605D02*
X003634Y007605D01*
X003650Y007643D02*
X003650Y006736D01*
X003663Y006705D02*
X003913Y006705D01*
X003950Y006795D02*
X003950Y007584D01*
X003988Y007505D02*
X003588Y007505D01*
X003550Y007467D02*
X003550Y006912D01*
X003557Y006905D02*
X004018Y006905D01*
X004050Y006937D02*
X004050Y007443D01*
X004088Y007405D02*
X003488Y007405D01*
X003450Y007375D02*
X003450Y007004D01*
X003448Y007005D02*
X004128Y007005D01*
X004150Y007014D02*
X004150Y007365D01*
X004250Y007324D02*
X004250Y007056D01*
X004350Y007070D02*
X004350Y007310D01*
X004450Y007310D02*
X004450Y007070D01*
X004550Y007038D02*
X004550Y007342D01*
X004650Y007386D02*
X004650Y006993D01*
X004629Y007005D02*
X005309Y007005D01*
X005293Y006998D02*
X005160Y006866D01*
X005089Y006693D01*
X005089Y006506D01*
X005160Y006333D01*
X005293Y006200D01*
X005466Y006128D01*
X005653Y006128D01*
X005826Y006200D01*
X005959Y006333D01*
X006030Y006506D01*
X006030Y006693D01*
X005959Y006866D01*
X005826Y006998D01*
X005653Y007070D01*
X005466Y007070D01*
X005293Y006998D01*
X005250Y006956D02*
X005250Y007424D01*
X005269Y007405D02*
X004669Y007405D01*
X004750Y007486D02*
X004750Y006893D01*
X004738Y006905D02*
X005200Y006905D01*
X005150Y006841D02*
X005150Y007539D01*
X005160Y007514D02*
X005293Y007381D01*
X005466Y007310D01*
X005653Y007310D01*
X005826Y007381D01*
X005959Y007514D01*
X006030Y007687D01*
X006030Y007874D01*
X005959Y008047D01*
X005826Y008179D01*
X005653Y008251D01*
X005466Y008251D01*
X005293Y008179D01*
X005160Y008047D01*
X005089Y007874D01*
X005089Y007687D01*
X005160Y007514D01*
X005169Y007505D02*
X004769Y007505D01*
X004815Y007605D02*
X005122Y007605D01*
X005089Y007705D02*
X004849Y007705D01*
X004849Y007805D02*
X005089Y007805D01*
X005102Y007905D02*
X004836Y007905D01*
X004795Y008005D02*
X005143Y008005D01*
X005150Y008022D02*
X005150Y011885D01*
X005050Y011900D02*
X005050Y001155D01*
X005150Y001155D02*
X005150Y006357D01*
X005130Y006405D02*
X004808Y006405D01*
X004849Y006505D02*
X005089Y006505D01*
X005089Y006605D02*
X004849Y006605D01*
X004844Y006705D02*
X005094Y006705D01*
X005135Y006805D02*
X004803Y006805D01*
X004750Y006305D02*
X005188Y006305D01*
X005250Y006243D02*
X005250Y001155D01*
X005350Y001155D02*
X005350Y006176D01*
X005288Y006205D02*
X004650Y006205D01*
X004650Y003686D01*
X004631Y003705D02*
X007669Y003705D01*
X007650Y003686D02*
X007650Y006205D01*
X006938Y006205D01*
X006950Y006211D02*
X006950Y001155D01*
X006850Y001155D02*
X006850Y006171D01*
X006844Y006169D02*
X006910Y006191D01*
X006972Y006222D01*
X007028Y006263D01*
X007077Y006312D01*
X007118Y006368D01*
X007149Y006430D01*
X007170Y006496D01*
X007179Y006549D01*
X006791Y006549D01*
X006791Y006649D01*
X007179Y006649D01*
X007170Y006702D01*
X007149Y006768D01*
X007118Y006830D01*
X007077Y006886D01*
X007028Y006935D01*
X006972Y006976D01*
X006910Y007008D01*
X006844Y007029D01*
X006791Y007038D01*
X006791Y006649D01*
X006691Y006649D01*
X006691Y007038D01*
X006637Y007029D01*
X006571Y007008D01*
X006510Y006976D01*
X006453Y006935D01*
X006404Y006886D01*
X006364Y006830D01*
X006332Y006768D01*
X006311Y006702D01*
X006302Y006649D01*
X006691Y006649D01*
X006691Y006549D01*
X006791Y006549D01*
X006791Y006161D01*
X006844Y006169D01*
X006791Y006205D02*
X006691Y006205D01*
X006691Y006161D02*
X006691Y006549D01*
X006302Y006549D01*
X006311Y006496D01*
X006332Y006430D01*
X006364Y006368D01*
X006404Y006312D01*
X006453Y006263D01*
X006510Y006222D01*
X006571Y006191D01*
X006637Y006169D01*
X006691Y006161D01*
X006650Y006167D02*
X006650Y001155D01*
X006750Y001155D02*
X006750Y006549D01*
X006791Y006505D02*
X006691Y006505D01*
X006650Y006549D02*
X006650Y006649D01*
X006691Y006605D02*
X006030Y006605D01*
X006030Y006505D02*
X006309Y006505D01*
X006350Y006549D02*
X006350Y006649D01*
X006311Y006705D02*
X006025Y006705D01*
X005984Y006805D02*
X006351Y006805D01*
X006350Y006804D02*
X006350Y007505D01*
X005950Y007505D01*
X005950Y006874D01*
X005919Y006905D02*
X006423Y006905D01*
X006450Y006932D02*
X006450Y007405D01*
X005850Y007405D01*
X005850Y006974D01*
X005810Y007005D02*
X006566Y007005D01*
X006550Y006997D02*
X006550Y007350D01*
X006650Y007310D02*
X006650Y007031D01*
X006691Y007005D02*
X006791Y007005D01*
X006850Y007027D02*
X006850Y007316D01*
X006750Y007310D02*
X006750Y006649D01*
X006791Y006605D02*
X007451Y006605D01*
X007451Y006505D02*
X007172Y006505D01*
X007150Y006549D02*
X007150Y006649D01*
X007170Y006705D02*
X007456Y006705D01*
X007497Y006805D02*
X007130Y006805D01*
X007150Y006765D02*
X007150Y007539D01*
X007131Y007505D02*
X007531Y007505D01*
X007550Y007486D02*
X007550Y006893D01*
X007562Y006905D02*
X007058Y006905D01*
X007050Y006913D02*
X007050Y007424D01*
X007031Y007405D02*
X007631Y007405D01*
X007650Y007386D02*
X007650Y006993D01*
X007671Y007005D02*
X006915Y007005D01*
X006950Y006987D02*
X006950Y007357D01*
X007178Y007605D02*
X007485Y007605D01*
X007451Y007705D02*
X007211Y007705D01*
X007211Y007805D02*
X007451Y007805D01*
X007464Y007905D02*
X007198Y007905D01*
X007082Y008105D02*
X007581Y008105D01*
X008060Y008305D02*
X009440Y008305D01*
X009440Y008205D02*
X009307Y008205D01*
X009350Y008187D02*
X009350Y013895D01*
X009450Y013895D02*
X009450Y012017D01*
X009445Y012005D02*
X008060Y012005D01*
X008060Y011905D02*
X009430Y011905D01*
X009440Y011805D02*
X008060Y011805D01*
X008060Y011705D02*
X009440Y011705D01*
X009440Y011605D02*
X008060Y011605D01*
X008060Y011505D02*
X009440Y011505D01*
X009440Y011405D02*
X008060Y011405D01*
X008060Y011305D02*
X009440Y011305D01*
X009440Y011205D02*
X008060Y011205D01*
X008060Y011105D02*
X009440Y011105D01*
X009440Y011005D02*
X008060Y011005D01*
X008060Y010905D02*
X009440Y010905D01*
X009440Y010805D02*
X008060Y010805D01*
X008060Y010705D02*
X009440Y010705D01*
X009440Y010605D02*
X008060Y010605D01*
X008060Y010505D02*
X009440Y010505D01*
X009440Y010405D02*
X008060Y010405D01*
X008060Y010305D02*
X009440Y010305D01*
X009440Y010205D02*
X008060Y010205D01*
X008060Y010105D02*
X009440Y010105D01*
X009440Y010005D02*
X008060Y010005D01*
X008060Y009905D02*
X009430Y009905D01*
X009440Y009805D02*
X008060Y009805D01*
X008060Y009705D02*
X009440Y009705D01*
X009440Y009605D02*
X008060Y009605D01*
X008060Y009505D02*
X009440Y009505D01*
X009440Y009405D02*
X008060Y009405D01*
X008060Y009305D02*
X009440Y009305D01*
X009440Y009205D02*
X008060Y009205D01*
X008060Y009105D02*
X009440Y009105D01*
X009440Y009005D02*
X008060Y009005D01*
X008060Y008905D02*
X009440Y008905D01*
X009440Y008805D02*
X008060Y008805D01*
X008060Y008705D02*
X009440Y008705D01*
X009440Y008605D02*
X008060Y008605D01*
X008060Y008505D02*
X009440Y008505D01*
X009440Y008405D02*
X008060Y008405D01*
X008126Y008205D02*
X008898Y008205D01*
X008850Y008185D02*
X008850Y013895D01*
X008750Y013895D02*
X008750Y008093D01*
X008762Y008105D02*
X008263Y008105D01*
X008250Y008118D02*
X008250Y013895D01*
X008350Y013895D02*
X008350Y007976D01*
X008338Y008005D02*
X008686Y008005D01*
X008650Y007917D02*
X008650Y013895D01*
X008950Y013895D02*
X008950Y008227D01*
X009050Y008251D02*
X009050Y013895D01*
X009150Y013895D02*
X009150Y008251D01*
X009250Y008229D02*
X009250Y013895D01*
X009550Y013895D02*
X009550Y012158D01*
X009497Y012105D02*
X008060Y012105D01*
X008060Y012205D02*
X009638Y012205D01*
X009650Y012210D02*
X009650Y013895D01*
X009750Y013895D02*
X009750Y012225D01*
X009850Y012210D02*
X009850Y013895D01*
X009950Y013853D02*
X009950Y012158D01*
X010003Y012105D02*
X012000Y012105D01*
X012000Y012205D02*
X009862Y012205D01*
X010038Y013805D02*
X008155Y013805D01*
X008150Y013817D02*
X008150Y013895D01*
X008170Y013705D02*
X012000Y013705D01*
X012000Y013605D02*
X008155Y013605D01*
X008150Y013593D02*
X008150Y008195D01*
X008380Y007905D02*
X008645Y007905D01*
X008632Y007805D02*
X008392Y007805D01*
X008392Y007705D02*
X008632Y007705D01*
X008812Y007405D02*
X008212Y007405D01*
X008150Y007365D02*
X008150Y007014D01*
X008172Y007005D02*
X008655Y007005D01*
X008050Y007056D02*
X008050Y007324D01*
X007950Y007310D02*
X007950Y007070D01*
X007850Y007070D02*
X007850Y007310D01*
X007750Y007342D02*
X007750Y007038D01*
X007492Y006405D02*
X007136Y006405D01*
X007150Y006433D02*
X007150Y001155D01*
X007050Y001155D02*
X007050Y006285D01*
X007070Y006305D02*
X007550Y006305D01*
X007550Y003480D01*
X007560Y003505D02*
X004740Y003505D01*
X004750Y003480D02*
X004750Y006305D01*
X004550Y006161D02*
X004550Y003786D01*
X004531Y003805D02*
X007769Y003805D01*
X007750Y003786D02*
X007750Y006161D01*
X007050Y006549D02*
X007050Y006649D01*
X006950Y006649D02*
X006950Y006549D01*
X006850Y006549D02*
X006850Y006649D01*
X006791Y006705D02*
X006691Y006705D01*
X006691Y006805D02*
X006791Y006805D01*
X006791Y006905D02*
X006691Y006905D01*
X006550Y006649D02*
X006550Y006549D01*
X006450Y006549D02*
X006450Y006649D01*
X006345Y006405D02*
X005989Y006405D01*
X005950Y006324D02*
X005950Y001155D01*
X005850Y001155D02*
X005850Y006224D01*
X005831Y006205D02*
X006543Y006205D01*
X006550Y006202D02*
X006550Y001155D01*
X006450Y001155D02*
X006450Y006266D01*
X006411Y006305D02*
X005931Y006305D01*
X005750Y006169D02*
X005750Y001155D01*
X005650Y001155D02*
X005650Y006128D01*
X005550Y006128D02*
X005550Y001155D01*
X005450Y001155D02*
X005450Y006135D01*
X005350Y007022D02*
X005350Y007357D01*
X005450Y007316D02*
X005450Y007063D01*
X005550Y007070D02*
X005550Y007310D01*
X005650Y007310D02*
X005650Y007070D01*
X005750Y007030D02*
X005750Y007350D01*
X005996Y007605D02*
X006304Y007605D01*
X006270Y007705D02*
X006030Y007705D01*
X006030Y007805D02*
X006270Y007805D01*
X006283Y007905D02*
X006017Y007905D01*
X005976Y008005D02*
X006324Y008005D01*
X006350Y008056D02*
X006350Y011995D01*
X006250Y011995D02*
X006250Y001155D01*
X006150Y001155D02*
X006150Y011995D01*
X006050Y011995D02*
X006050Y001155D01*
X006350Y001155D02*
X006350Y006395D01*
X006691Y006405D02*
X006791Y006405D01*
X006791Y006305D02*
X006691Y006305D01*
X006400Y008105D02*
X005900Y008105D01*
X005950Y008056D02*
X005950Y011995D01*
X005850Y011995D02*
X005850Y008156D01*
X005764Y008205D02*
X006536Y008205D01*
X006450Y008156D02*
X006450Y011995D01*
X006540Y011905D02*
X005262Y011905D01*
X005250Y011900D02*
X005250Y008137D01*
X005218Y008105D02*
X004719Y008105D01*
X004750Y008074D02*
X004750Y009353D01*
X004803Y009405D02*
X006540Y009405D01*
X006540Y009305D02*
X004662Y009305D01*
X004650Y009300D02*
X004650Y008174D01*
X004583Y008205D02*
X005355Y008205D01*
X005350Y008203D02*
X005350Y011953D01*
X005450Y011995D02*
X005450Y008245D01*
X005550Y008251D02*
X005550Y011995D01*
X005650Y011995D02*
X005650Y008251D01*
X005750Y008211D02*
X005750Y011995D01*
X005750Y012415D02*
X005750Y013895D01*
X005650Y013895D02*
X005650Y012415D01*
X005550Y012415D02*
X005550Y013895D01*
X005450Y013895D02*
X005450Y012415D01*
X005850Y012415D02*
X005850Y013895D01*
X005950Y013895D02*
X005950Y012415D01*
X006050Y012415D02*
X006050Y013895D01*
X006150Y013895D02*
X006150Y012415D01*
X006250Y012415D02*
X006250Y013895D01*
X006350Y013895D02*
X006350Y012415D01*
X006450Y012415D02*
X006450Y013895D01*
X006550Y013895D02*
X006550Y012415D01*
X006540Y011805D02*
X004760Y011805D01*
X004760Y011705D02*
X006540Y011705D01*
X006540Y011605D02*
X004760Y011605D01*
X004760Y011505D02*
X006540Y011505D01*
X006540Y011405D02*
X004760Y011405D01*
X004760Y011305D02*
X006540Y011305D01*
X006540Y011205D02*
X004760Y011205D01*
X004760Y011105D02*
X006540Y011105D01*
X006540Y011005D02*
X004760Y011005D01*
X004760Y010905D02*
X006540Y010905D01*
X006540Y010805D02*
X004760Y010805D01*
X004760Y010705D02*
X006540Y010705D01*
X006540Y010605D02*
X004760Y010605D01*
X004760Y010505D02*
X006540Y010505D01*
X006540Y010405D02*
X004760Y010405D01*
X004760Y010305D02*
X006540Y010305D01*
X006540Y010205D02*
X004760Y010205D01*
X004760Y010105D02*
X006540Y010105D01*
X006540Y010005D02*
X004760Y010005D01*
X004760Y009905D02*
X006540Y009905D01*
X006540Y009805D02*
X004803Y009805D01*
X004850Y009717D02*
X004850Y012093D01*
X004845Y012105D02*
X004760Y012105D01*
X004760Y012005D02*
X004897Y012005D01*
X004950Y011953D02*
X004950Y001155D01*
X004850Y001155D02*
X004850Y009493D01*
X004855Y009505D02*
X006540Y009505D01*
X006540Y009605D02*
X004870Y009605D01*
X004855Y009705D02*
X006540Y009705D01*
X005038Y011905D02*
X004760Y011905D01*
X004760Y012205D02*
X004830Y012205D01*
X004845Y012305D02*
X004760Y012305D01*
X004850Y012317D02*
X004850Y013895D01*
X004950Y013895D02*
X004950Y012458D01*
X004897Y012405D02*
X004760Y012405D01*
X004340Y012405D02*
X000300Y012405D01*
X000300Y012305D02*
X004340Y012305D01*
X004340Y012205D02*
X000300Y012205D01*
X000300Y012105D02*
X004340Y012105D01*
X004340Y012005D02*
X000300Y012005D01*
X000300Y011905D02*
X004340Y011905D01*
X004340Y011805D02*
X000300Y011805D01*
X000300Y011705D02*
X004340Y011705D01*
X004340Y011605D02*
X000300Y011605D01*
X000300Y011505D02*
X004340Y011505D01*
X004340Y011405D02*
X000300Y011405D01*
X000300Y011305D02*
X004340Y011305D01*
X004340Y011205D02*
X000300Y011205D01*
X000300Y011105D02*
X004340Y011105D01*
X004340Y011005D02*
X000300Y011005D01*
X000300Y010905D02*
X004340Y010905D01*
X004340Y010805D02*
X000300Y010805D01*
X000300Y010705D02*
X004340Y010705D01*
X004340Y010605D02*
X000300Y010605D01*
X000300Y010505D02*
X004340Y010505D01*
X004340Y010405D02*
X000300Y010405D01*
X000300Y010305D02*
X004340Y010305D01*
X004340Y010205D02*
X000300Y010205D01*
X000300Y010105D02*
X004340Y010105D01*
X004340Y010005D02*
X000300Y010005D01*
X000300Y009905D02*
X004340Y009905D01*
X004297Y009805D02*
X000300Y009805D01*
X000300Y012505D02*
X004340Y012505D01*
X004340Y012605D02*
X000300Y012605D01*
X000300Y012705D02*
X004340Y012705D01*
X004340Y012805D02*
X000300Y012805D01*
X000300Y012905D02*
X004340Y012905D01*
X004340Y013005D02*
X000300Y013005D01*
X000300Y013105D02*
X004340Y013105D01*
X004340Y013205D02*
X000300Y013205D01*
X000300Y013305D02*
X004340Y013305D01*
X004340Y013405D02*
X000300Y013405D01*
X000300Y013505D02*
X004340Y013505D01*
X004340Y013605D02*
X000300Y013605D01*
X000300Y013705D02*
X004340Y013705D01*
X004340Y013805D02*
X000300Y013805D01*
X000300Y013905D02*
X004340Y013905D01*
X004760Y013805D02*
X007545Y013805D01*
X007550Y013817D02*
X007550Y013895D01*
X007530Y013705D02*
X004760Y013705D01*
X004650Y014302D02*
X004650Y014855D01*
X007150Y014855D02*
X007150Y014315D01*
X007250Y014315D02*
X007250Y014855D01*
X007350Y014855D02*
X007350Y014315D01*
X007450Y014315D02*
X007450Y014855D01*
X007550Y014855D02*
X007550Y014315D01*
X007650Y014315D02*
X007650Y014855D01*
X007750Y014855D02*
X007750Y014315D01*
X007850Y014315D02*
X007850Y014855D01*
X007950Y014855D02*
X007950Y014315D01*
X008050Y014315D02*
X008050Y014855D01*
X008150Y014855D02*
X008150Y014315D01*
X008250Y014315D02*
X008250Y014855D01*
X008350Y014855D02*
X008350Y014315D01*
X008450Y014315D02*
X008450Y014855D01*
X008550Y014855D02*
X008550Y014315D01*
X008650Y014315D02*
X008650Y014855D01*
X008750Y014855D02*
X008750Y014315D01*
X008850Y014315D02*
X008850Y014855D01*
X008950Y014855D02*
X008950Y014315D01*
X009050Y014315D02*
X009050Y014855D01*
X009150Y014855D02*
X009150Y014315D01*
X009250Y014315D02*
X009250Y014855D01*
X009350Y014855D02*
X009350Y014315D01*
X009450Y014315D02*
X009450Y014855D01*
X009550Y014855D02*
X009550Y014315D01*
X009650Y014315D02*
X009650Y014855D01*
X009750Y014855D02*
X009750Y014315D01*
X009850Y014315D02*
X009850Y014855D01*
X009950Y014855D02*
X009950Y014358D01*
X010038Y014405D02*
X000300Y014405D01*
X000300Y014505D02*
X012000Y014505D01*
X012000Y014405D02*
X010262Y014405D01*
X010250Y014410D02*
X010250Y014855D01*
X010150Y014855D02*
X010150Y014425D01*
X010050Y014410D02*
X010050Y014855D01*
X010350Y014855D02*
X010350Y014358D01*
X010403Y014305D02*
X012000Y014305D01*
X012000Y014205D02*
X010455Y014205D01*
X010450Y014217D02*
X010450Y014855D01*
X010550Y014855D02*
X010550Y001155D01*
X010450Y001155D02*
X010450Y013993D01*
X010455Y014005D02*
X012000Y014005D01*
X012000Y013905D02*
X010403Y013905D01*
X010350Y013853D02*
X010350Y001155D01*
X010250Y001155D02*
X010250Y013800D01*
X010262Y013805D02*
X012000Y013805D01*
X012000Y013505D02*
X008103Y013505D01*
X008060Y013405D02*
X012000Y013405D01*
X012000Y013305D02*
X008060Y013305D01*
X008060Y013205D02*
X012000Y013205D01*
X012000Y013105D02*
X008060Y013105D01*
X008060Y013005D02*
X012000Y013005D01*
X012000Y012905D02*
X008060Y012905D01*
X008060Y012805D02*
X012000Y012805D01*
X012000Y012705D02*
X008060Y012705D01*
X008060Y012605D02*
X012000Y012605D01*
X012000Y012505D02*
X008060Y012505D01*
X008060Y012405D02*
X012000Y012405D01*
X012000Y012305D02*
X008060Y012305D01*
X010470Y014105D02*
X012000Y014105D01*
X012000Y014605D02*
X000300Y014605D01*
X000300Y014705D02*
X012000Y014705D01*
X011850Y014855D02*
X011850Y001155D01*
X011750Y001155D02*
X011750Y014855D01*
X011650Y014855D02*
X011650Y001155D01*
X011550Y001155D02*
X011550Y014855D01*
X011450Y014855D02*
X011450Y001155D01*
X011350Y001155D02*
X011350Y014855D01*
X011250Y014855D02*
X011250Y001155D01*
X011150Y001155D02*
X011150Y014855D01*
X011050Y014855D02*
X011050Y001155D01*
X010950Y001155D02*
X010950Y014855D01*
X010850Y014855D02*
X010850Y001155D01*
X010750Y001155D02*
X010750Y014855D01*
X010650Y014855D02*
X010650Y001155D01*
X012000Y003105D02*
X008993Y003105D01*
X008993Y003205D02*
X012000Y003205D01*
X012000Y003305D02*
X008993Y003305D01*
X008986Y003405D02*
X012000Y003405D01*
X007602Y003605D02*
X004698Y003605D01*
X004781Y003405D02*
X007519Y003405D01*
X007512Y003305D02*
X004788Y003305D01*
X004788Y003205D02*
X007512Y003205D01*
X007512Y003105D02*
X004788Y003105D01*
X004710Y002905D02*
X007590Y002905D01*
X004450Y003876D02*
X004450Y006128D01*
X003954Y006805D02*
X003622Y006805D01*
X003668Y006605D02*
X003908Y006605D01*
X003908Y006505D02*
X003668Y006505D01*
X003350Y007046D02*
X003350Y007334D01*
X003250Y007310D02*
X003250Y007070D01*
X003150Y007070D02*
X003150Y007310D01*
X003050Y007332D02*
X003050Y007048D01*
X004450Y008251D02*
X004450Y009300D01*
X004550Y009285D02*
X004550Y008219D01*
X004350Y002565D02*
X004350Y001155D01*
X003850Y001155D02*
X003850Y002521D01*
X003750Y002563D02*
X003750Y001155D01*
D13*
X006741Y001315D02*
X006750Y001305D01*
X011750Y001305D01*
X011750Y009005D01*
X011750Y010305D01*
X011750Y011205D01*
X011750Y011905D01*
X011750Y012705D01*
X011750Y014505D01*
X011650Y014605D01*
X009150Y014605D01*
X000550Y014605D01*
X000550Y011705D01*
X000550Y001405D01*
X000650Y001305D01*
X006750Y001305D01*
X006741Y001315D02*
X006741Y006599D01*
D14*
X004550Y009605D03*
X005150Y012205D03*
X007850Y013705D03*
X009150Y014605D03*
X010150Y014105D03*
X011750Y012705D03*
X011750Y011905D03*
X011750Y011205D03*
X011750Y010305D03*
X011750Y009005D03*
X009750Y009905D03*
X009750Y011905D03*
X009650Y005205D03*
X000550Y011705D03*
D15*
X009650Y005205D02*
X009750Y005305D01*
X009750Y009905D01*
X009750Y011905D01*
X011750Y012705D02*
X011750Y013505D01*
D16*
X010150Y014105D02*
X004750Y014105D01*
X004550Y013905D01*
X004550Y009605D01*
X005150Y012205D02*
X006550Y012205D01*
X006750Y012005D01*
X006750Y007790D01*
X006741Y007780D01*
X007850Y007852D02*
X007922Y007780D01*
X007850Y007852D02*
X007850Y013705D01*
M02*
