G75*
%MOIN*%
%OFA0B0*%
%FSLAX24Y24*%
%IPPOS*%
%LPD*%
%AMOC8*
5,1,8,0,0,1.08239X$1,22.5*
%
%ADD10R,0.0642X0.0642*%
%ADD11C,0.0642*%
%ADD12R,0.0550X0.0137*%
%ADD13R,0.0335X0.0354*%
%ADD14R,0.0236X0.0236*%
%ADD15R,0.0433X0.0394*%
%ADD16R,0.0472X0.0217*%
%ADD17R,0.0315X0.0315*%
%ADD18C,0.0100*%
%ADD19C,0.0400*%
%ADD20C,0.0340*%
%ADD21C,0.0160*%
%ADD22C,0.0320*%
%ADD23C,0.0120*%
D10*
X009103Y006599D03*
D11*
X009103Y007780D03*
X007922Y007780D03*
X007922Y006599D03*
X006741Y006599D03*
X006741Y007780D03*
X005559Y007780D03*
X005559Y006599D03*
X004378Y006599D03*
X004378Y007780D03*
X003197Y007780D03*
X003197Y006599D03*
D12*
X004611Y009942D03*
X004611Y010198D03*
X004611Y010454D03*
X004611Y010709D03*
X004611Y010965D03*
X004611Y011221D03*
X004611Y011477D03*
X004611Y011733D03*
X004611Y011989D03*
X004611Y012245D03*
X004611Y012501D03*
X004611Y012757D03*
X004611Y013013D03*
X004611Y013269D03*
X007489Y013269D03*
X007489Y013013D03*
X007489Y012757D03*
X007489Y012501D03*
X007489Y012245D03*
X007489Y011989D03*
X007489Y011733D03*
X007489Y011477D03*
X007489Y011221D03*
X007489Y010965D03*
X007489Y010709D03*
X007489Y010454D03*
X007489Y010198D03*
X007489Y009942D03*
D13*
X010622Y011205D03*
X011078Y011205D03*
X011078Y012705D03*
X010622Y012705D03*
D14*
X010650Y013405D03*
X011050Y013405D03*
D15*
X011085Y011905D03*
X010415Y011905D03*
X010415Y009005D03*
X011085Y009005D03*
D16*
X011262Y009931D03*
X011262Y010305D03*
X011262Y010679D03*
X010238Y010679D03*
X010238Y009931D03*
D17*
X010655Y013805D03*
X011245Y013805D03*
D18*
X000300Y014855D02*
X000300Y001155D01*
X012000Y001155D01*
X012000Y014855D01*
X011946Y014855D01*
X000354Y014855D01*
X000300Y014855D01*
X000300Y014805D02*
X012000Y014805D01*
X011950Y014855D02*
X011950Y001155D01*
X012000Y001205D02*
X000300Y001205D01*
X000350Y001155D02*
X000350Y014855D01*
X000450Y014855D02*
X000450Y001155D01*
X000550Y001155D02*
X000550Y014855D01*
X000650Y014855D02*
X000650Y001155D01*
X000750Y001155D02*
X000750Y014855D01*
X000850Y014855D02*
X000850Y001155D01*
X000950Y001155D02*
X000950Y014855D01*
X001050Y014855D02*
X001050Y001155D01*
X001150Y001155D02*
X001150Y014855D01*
X001250Y014855D02*
X001250Y001155D01*
X001350Y001155D02*
X001350Y014855D01*
X001450Y014855D02*
X001450Y001155D01*
X001550Y001155D02*
X001550Y014855D01*
X001650Y014855D02*
X001650Y001155D01*
X001750Y001155D02*
X001750Y014855D01*
X001850Y014855D02*
X001850Y001155D01*
X001950Y001155D02*
X001950Y014855D01*
X002050Y014855D02*
X002050Y001155D01*
X002150Y001155D02*
X002150Y014855D01*
X002250Y014855D02*
X002250Y001155D01*
X002350Y001155D02*
X002350Y014855D01*
X002450Y014855D02*
X002450Y001155D01*
X002550Y001155D02*
X002550Y014855D01*
X002650Y014855D02*
X002650Y001155D01*
X002750Y001155D02*
X002750Y006449D01*
X002768Y006405D02*
X000300Y006405D01*
X000300Y006305D02*
X002826Y006305D01*
X002850Y006281D02*
X002850Y001155D01*
X002950Y001155D02*
X002950Y006192D01*
X002931Y006200D02*
X003104Y006128D01*
X003291Y006128D01*
X003464Y006200D01*
X003596Y006333D01*
X003668Y006506D01*
X003668Y006693D01*
X003596Y006866D01*
X003464Y006998D01*
X003291Y007070D01*
X003104Y007070D01*
X002931Y006998D01*
X002798Y006866D01*
X002726Y006693D01*
X002726Y006506D01*
X002798Y006333D01*
X002931Y006200D01*
X002926Y006205D02*
X000300Y006205D01*
X000300Y006105D02*
X004040Y006105D01*
X004040Y006005D02*
X000300Y006005D01*
X000300Y005905D02*
X004040Y005905D01*
X004040Y005805D02*
X000300Y005805D01*
X000300Y005705D02*
X004040Y005705D01*
X004040Y005605D02*
X000300Y005605D01*
X000300Y005505D02*
X004040Y005505D01*
X004040Y005405D02*
X000300Y005405D01*
X000300Y005305D02*
X004040Y005305D01*
X004040Y005243D02*
X004087Y005130D01*
X004174Y005042D01*
X004274Y004942D01*
X004388Y004895D01*
X009562Y004895D01*
X009586Y004885D01*
X009714Y004885D01*
X009831Y004934D01*
X009921Y005024D01*
X009970Y005141D01*
X009970Y005269D01*
X009921Y005386D01*
X009853Y005455D01*
X010220Y005455D01*
X010348Y005508D01*
X010648Y005808D01*
X010747Y005907D01*
X010800Y006035D01*
X010800Y008709D01*
X010822Y008696D01*
X010852Y008688D01*
X011036Y008688D01*
X011036Y008957D01*
X011133Y008957D01*
X011133Y009054D01*
X011036Y009054D01*
X011036Y009322D01*
X010992Y009322D01*
X011080Y009410D01*
X011080Y009673D01*
X011560Y009673D01*
X011648Y009761D01*
X011648Y010102D01*
X011606Y010144D01*
X011610Y010151D01*
X011618Y010181D01*
X011618Y010301D01*
X011266Y010301D01*
X011266Y010309D01*
X011618Y010309D01*
X011618Y010429D01*
X011610Y010460D01*
X011606Y010467D01*
X011648Y010509D01*
X011648Y010850D01*
X011560Y010937D01*
X011325Y010937D01*
X011342Y010954D01*
X011357Y010982D01*
X011366Y011012D01*
X011366Y011171D01*
X011112Y011171D01*
X011112Y011239D01*
X011045Y011239D01*
X011045Y011502D01*
X010895Y011502D01*
X010884Y011499D01*
X010851Y011532D01*
X010392Y011532D01*
X010304Y011444D01*
X010304Y011385D01*
X010155Y011235D01*
X010020Y011100D01*
X010020Y010937D01*
X009940Y010937D01*
X009852Y010850D01*
X009852Y010509D01*
X009940Y010421D01*
X010537Y010421D01*
X010620Y010504D01*
X010620Y010106D01*
X010537Y010189D01*
X010418Y010189D01*
X010414Y010194D01*
X010300Y010241D01*
X009714Y010241D01*
X009600Y010194D01*
X009593Y010186D01*
X009569Y010176D01*
X009479Y010086D01*
X009430Y009969D01*
X009430Y009841D01*
X009479Y009724D01*
X009569Y009634D01*
X009686Y009585D01*
X009814Y009585D01*
X009901Y009621D01*
X010300Y009621D01*
X010414Y009668D01*
X010418Y009673D01*
X010537Y009673D01*
X010620Y009756D01*
X010620Y009635D01*
X010455Y009635D01*
X010320Y009500D01*
X010185Y009366D01*
X010185Y009352D01*
X010137Y009352D01*
X010049Y009264D01*
X010049Y008746D01*
X010100Y008695D01*
X010100Y006250D01*
X010005Y006155D01*
X009512Y006155D01*
X009574Y006216D01*
X009574Y006982D01*
X009486Y007070D01*
X008929Y007070D01*
X008760Y007239D01*
X008760Y007457D01*
X008836Y007381D01*
X009009Y007310D01*
X009196Y007310D01*
X009369Y007381D01*
X009502Y007514D01*
X009574Y007687D01*
X009574Y007874D01*
X009502Y008047D01*
X009369Y008179D01*
X009360Y008183D01*
X009360Y010092D01*
X009237Y010215D01*
X009229Y010224D01*
X009294Y010224D01*
X009445Y010375D01*
X009580Y010510D01*
X009580Y011629D01*
X009686Y011585D01*
X009814Y011585D01*
X009838Y011595D01*
X010100Y011595D01*
X010137Y011558D01*
X010694Y011558D01*
X010771Y011636D01*
X010772Y011635D01*
X010794Y011612D01*
X010822Y011596D01*
X010852Y011588D01*
X011036Y011588D01*
X011036Y011857D01*
X011133Y011857D01*
X011133Y011954D01*
X011036Y011954D01*
X011036Y012222D01*
X010852Y012222D01*
X010822Y012214D01*
X010794Y012198D01*
X010772Y012176D01*
X010771Y012175D01*
X010694Y012252D01*
X010137Y012252D01*
X010100Y012215D01*
X009838Y012215D01*
X009814Y012225D01*
X009686Y012225D01*
X009580Y012181D01*
X009580Y012310D01*
X009745Y012475D01*
X010304Y012475D01*
X010304Y012466D01*
X010392Y012378D01*
X010851Y012378D01*
X010884Y012411D01*
X010895Y012408D01*
X011045Y012408D01*
X011045Y012671D01*
X011112Y012671D01*
X011112Y012408D01*
X011261Y012408D01*
X011292Y012416D01*
X011319Y012432D01*
X011342Y012454D01*
X011357Y012482D01*
X011366Y012512D01*
X011366Y012671D01*
X011112Y012671D01*
X011112Y012739D01*
X011366Y012739D01*
X011366Y012898D01*
X011357Y012929D01*
X011342Y012956D01*
X011319Y012978D01*
X011292Y012994D01*
X011261Y013002D01*
X011244Y013002D01*
X011260Y013018D01*
X011260Y013167D01*
X011318Y013225D01*
X011318Y013498D01*
X011465Y013498D01*
X011553Y013586D01*
X011553Y014025D01*
X011465Y014113D01*
X011364Y014113D01*
X011355Y014139D01*
X011355Y014192D01*
X011329Y014219D01*
X011317Y014254D01*
X011270Y014278D01*
X011232Y014315D01*
X011195Y014315D01*
X011161Y014332D01*
X011111Y014315D01*
X010393Y014315D01*
X010331Y014376D01*
X010214Y014425D01*
X010086Y014425D01*
X009969Y014376D01*
X009879Y014286D01*
X009830Y014169D01*
X009830Y014041D01*
X009879Y013924D01*
X009969Y013834D01*
X010086Y013785D01*
X010214Y013785D01*
X010331Y013834D01*
X010347Y013850D01*
X010347Y013586D01*
X010382Y013551D01*
X010382Y013225D01*
X010470Y013137D01*
X010531Y013137D01*
X010479Y013032D01*
X010392Y013032D01*
X010304Y012944D01*
X010304Y012935D01*
X009555Y012935D01*
X009420Y012800D01*
X009120Y012500D01*
X009120Y010700D01*
X009103Y010684D01*
X007884Y010684D01*
X007884Y010709D01*
X007489Y010709D01*
X007094Y010709D01*
X007094Y010625D01*
X007097Y010616D01*
X007064Y010584D01*
X007064Y009811D01*
X007152Y009723D01*
X007827Y009723D01*
X007835Y009732D01*
X008326Y009732D01*
X008340Y009718D01*
X008340Y008001D01*
X008321Y008047D01*
X008188Y008179D01*
X008015Y008251D01*
X007828Y008251D01*
X007655Y008179D01*
X007523Y008047D01*
X007451Y007874D01*
X007451Y007687D01*
X007523Y007514D01*
X007655Y007381D01*
X007828Y007310D01*
X008015Y007310D01*
X008188Y007381D01*
X008321Y007514D01*
X008340Y007560D01*
X008340Y007065D01*
X008632Y006773D01*
X008632Y006216D01*
X008693Y006155D01*
X008272Y006155D01*
X008272Y006283D01*
X008321Y006333D01*
X008392Y006506D01*
X008392Y006693D01*
X008321Y006866D01*
X008188Y006998D01*
X008015Y007070D01*
X007828Y007070D01*
X007655Y006998D01*
X007523Y006866D01*
X007451Y006693D01*
X007451Y006506D01*
X007523Y006333D01*
X007572Y006283D01*
X007572Y005864D01*
X007625Y005735D01*
X007753Y005607D01*
X007845Y005515D01*
X004660Y005515D01*
X004660Y006215D01*
X004777Y006333D01*
X004849Y006506D01*
X004849Y006693D01*
X004777Y006866D01*
X004645Y006998D01*
X004472Y007070D01*
X004285Y007070D01*
X004112Y006998D01*
X003979Y006866D01*
X003908Y006693D01*
X003908Y006506D01*
X003979Y006333D01*
X004040Y006272D01*
X004040Y005243D01*
X004050Y005219D02*
X004050Y003981D01*
X003950Y003981D02*
X003950Y006403D01*
X003949Y006405D02*
X003626Y006405D01*
X003650Y006462D02*
X003650Y003878D01*
X003628Y003869D02*
X003420Y003660D01*
X003307Y003388D01*
X003307Y003094D01*
X003420Y002821D01*
X003628Y002613D01*
X003900Y002500D01*
X004195Y002500D01*
X004467Y002613D01*
X004675Y002821D01*
X004788Y003094D01*
X004788Y003388D01*
X004675Y003660D01*
X004467Y003869D01*
X004195Y003981D01*
X003900Y003981D01*
X003628Y003869D01*
X003565Y003805D02*
X000300Y003805D01*
X000300Y003705D02*
X003465Y003705D01*
X003450Y003691D02*
X003450Y006194D01*
X003469Y006205D02*
X004040Y006205D01*
X004007Y006305D02*
X003569Y006305D01*
X003550Y006286D02*
X003550Y003791D01*
X003716Y003905D02*
X000300Y003905D01*
X000300Y004005D02*
X012000Y004005D01*
X012000Y003905D02*
X008584Y003905D01*
X008550Y003919D02*
X008550Y004895D01*
X008450Y004895D02*
X008450Y003961D01*
X008400Y003981D02*
X008105Y003981D01*
X007833Y003869D01*
X007625Y003660D01*
X007512Y003388D01*
X007512Y003094D01*
X007625Y002821D01*
X007833Y002613D01*
X008105Y002500D01*
X008400Y002500D01*
X008672Y002613D01*
X008880Y002821D01*
X008993Y003094D01*
X008993Y003388D01*
X008880Y003660D01*
X008672Y003869D01*
X008400Y003981D01*
X008350Y003981D02*
X008350Y004895D01*
X008250Y004895D02*
X008250Y003981D01*
X008150Y003981D02*
X008150Y004895D01*
X008050Y004895D02*
X008050Y003959D01*
X007950Y003917D02*
X007950Y004895D01*
X007850Y004895D02*
X007850Y003876D01*
X007921Y003905D02*
X004379Y003905D01*
X004350Y003917D02*
X004350Y004911D01*
X004364Y004905D02*
X000300Y004905D01*
X000300Y004805D02*
X012000Y004805D01*
X012000Y004705D02*
X000300Y004705D01*
X000300Y004605D02*
X012000Y004605D01*
X012000Y004505D02*
X000300Y004505D01*
X000300Y004405D02*
X012000Y004405D01*
X012000Y004305D02*
X000300Y004305D01*
X000300Y004205D02*
X012000Y004205D01*
X012000Y004105D02*
X000300Y004105D01*
X000300Y003605D02*
X003397Y003605D01*
X003355Y003505D02*
X000300Y003505D01*
X000300Y003405D02*
X003314Y003405D01*
X003350Y003492D02*
X003350Y006153D01*
X003250Y006128D02*
X003250Y001155D01*
X003150Y001155D02*
X003150Y006128D01*
X003050Y006151D02*
X003050Y001155D01*
X003350Y001155D02*
X003350Y002990D01*
X003344Y003005D02*
X000300Y003005D01*
X000300Y002905D02*
X003385Y002905D01*
X003436Y002805D02*
X000300Y002805D01*
X000300Y002705D02*
X003536Y002705D01*
X003550Y002691D02*
X003550Y001155D01*
X003450Y001155D02*
X003450Y002791D01*
X003648Y002605D02*
X000300Y002605D01*
X000300Y002505D02*
X003889Y002505D01*
X003850Y002521D02*
X003850Y001155D01*
X003750Y001155D02*
X003750Y002563D01*
X003650Y002604D02*
X003650Y001155D01*
X003950Y001155D02*
X003950Y002500D01*
X004050Y002500D02*
X004050Y001155D01*
X004150Y001155D02*
X004150Y002500D01*
X004206Y002505D02*
X008094Y002505D01*
X008050Y002523D02*
X008050Y001155D01*
X007950Y001155D02*
X007950Y002565D01*
X007852Y002605D02*
X004448Y002605D01*
X004450Y002606D02*
X004450Y001155D01*
X004550Y001155D02*
X004550Y002696D01*
X004559Y002705D02*
X007741Y002705D01*
X007750Y002696D02*
X007750Y001155D01*
X007850Y001155D02*
X007850Y002606D01*
X007650Y002796D02*
X007650Y001155D01*
X007550Y001155D02*
X007550Y003001D01*
X007548Y003005D02*
X004752Y003005D01*
X004750Y003001D02*
X004750Y001155D01*
X004650Y001155D02*
X004650Y002796D01*
X004659Y002805D02*
X007641Y002805D01*
X007590Y002905D02*
X004710Y002905D01*
X004788Y003105D02*
X007512Y003105D01*
X007512Y003205D02*
X004788Y003205D01*
X004788Y003305D02*
X007512Y003305D01*
X007519Y003405D02*
X004781Y003405D01*
X004750Y003480D02*
X004750Y004895D01*
X004650Y004895D02*
X004650Y003686D01*
X004631Y003705D02*
X007669Y003705D01*
X007650Y003686D02*
X007650Y004895D01*
X007550Y004895D02*
X007550Y003480D01*
X007560Y003505D02*
X004740Y003505D01*
X004698Y003605D02*
X007602Y003605D01*
X007750Y003786D02*
X007750Y004895D01*
X007450Y004895D02*
X007450Y001155D01*
X007350Y001155D02*
X007350Y004895D01*
X007250Y004895D02*
X007250Y001155D01*
X007150Y001155D02*
X007150Y004895D01*
X007050Y004895D02*
X007050Y001155D01*
X006950Y001155D02*
X006950Y004895D01*
X006850Y004895D02*
X006850Y001155D01*
X006750Y001155D02*
X006750Y004895D01*
X006650Y004895D02*
X006650Y001155D01*
X006550Y001155D02*
X006550Y004895D01*
X006450Y004895D02*
X006450Y001155D01*
X006350Y001155D02*
X006350Y004895D01*
X006250Y004895D02*
X006250Y001155D01*
X006150Y001155D02*
X006150Y004895D01*
X006050Y004895D02*
X006050Y001155D01*
X005950Y001155D02*
X005950Y004895D01*
X005850Y004895D02*
X005850Y001155D01*
X005750Y001155D02*
X005750Y004895D01*
X005650Y004895D02*
X005650Y001155D01*
X005550Y001155D02*
X005550Y004895D01*
X005450Y004895D02*
X005450Y001155D01*
X005350Y001155D02*
X005350Y004895D01*
X005250Y004895D02*
X005250Y001155D01*
X005150Y001155D02*
X005150Y004895D01*
X005050Y004895D02*
X005050Y001155D01*
X004950Y001155D02*
X004950Y004895D01*
X004850Y004895D02*
X004850Y001155D01*
X004350Y001155D02*
X004350Y002565D01*
X004250Y002523D02*
X004250Y001155D01*
X003307Y003105D02*
X000300Y003105D01*
X000300Y003205D02*
X003307Y003205D01*
X003307Y003305D02*
X000300Y003305D01*
X000300Y002405D02*
X012000Y002405D01*
X012000Y002305D02*
X000300Y002305D01*
X000300Y002205D02*
X012000Y002205D01*
X012000Y002105D02*
X000300Y002105D01*
X000300Y002005D02*
X012000Y002005D01*
X012000Y001905D02*
X000300Y001905D01*
X000300Y001805D02*
X012000Y001805D01*
X012000Y001705D02*
X000300Y001705D01*
X000300Y001605D02*
X012000Y001605D01*
X012000Y001505D02*
X000300Y001505D01*
X000300Y001405D02*
X012000Y001405D01*
X012000Y001305D02*
X000300Y001305D01*
X000300Y005005D02*
X004212Y005005D01*
X004250Y004967D02*
X004250Y003959D01*
X004150Y003981D02*
X004150Y005067D01*
X004112Y005105D02*
X000300Y005105D01*
X000300Y005205D02*
X004056Y005205D01*
X004450Y004895D02*
X004450Y003876D01*
X004531Y003805D02*
X007769Y003805D01*
X008650Y003878D02*
X008650Y004895D01*
X008750Y004895D02*
X008750Y003791D01*
X008735Y003805D02*
X012000Y003805D01*
X012000Y003705D02*
X008835Y003705D01*
X008850Y003691D02*
X008850Y004895D01*
X008950Y004895D02*
X008950Y003492D01*
X008945Y003505D02*
X012000Y003505D01*
X012000Y003405D02*
X008986Y003405D01*
X008993Y003305D02*
X012000Y003305D01*
X012000Y003205D02*
X008993Y003205D01*
X008993Y003105D02*
X012000Y003105D01*
X012000Y003005D02*
X008956Y003005D01*
X008950Y002990D02*
X008950Y001155D01*
X008850Y001155D02*
X008850Y002791D01*
X008864Y002805D02*
X012000Y002805D01*
X012000Y002705D02*
X008764Y002705D01*
X008750Y002691D02*
X008750Y001155D01*
X008650Y001155D02*
X008650Y002604D01*
X008652Y002605D02*
X012000Y002605D01*
X012000Y002505D02*
X008411Y002505D01*
X008450Y002521D02*
X008450Y001155D01*
X008350Y001155D02*
X008350Y002500D01*
X008250Y002500D02*
X008250Y001155D01*
X008150Y001155D02*
X008150Y002500D01*
X008550Y002563D02*
X008550Y001155D01*
X009050Y001155D02*
X009050Y004895D01*
X009150Y004895D02*
X009150Y001155D01*
X009250Y001155D02*
X009250Y004895D01*
X009350Y004895D02*
X009350Y001155D01*
X009450Y001155D02*
X009450Y004895D01*
X009550Y004895D02*
X009550Y001155D01*
X009650Y001155D02*
X009650Y004885D01*
X009750Y004900D02*
X009750Y001155D01*
X009850Y001155D02*
X009850Y004953D01*
X009903Y005005D02*
X012000Y005005D01*
X012000Y004905D02*
X009762Y004905D01*
X009950Y005093D02*
X009950Y001155D01*
X010050Y001155D02*
X010050Y005455D01*
X009950Y005455D02*
X009950Y005317D01*
X009955Y005305D02*
X012000Y005305D01*
X012000Y005205D02*
X009970Y005205D01*
X009955Y005105D02*
X012000Y005105D01*
X012000Y005405D02*
X009903Y005405D01*
X010150Y005455D02*
X010150Y001155D01*
X010250Y001155D02*
X010250Y005468D01*
X010340Y005505D02*
X012000Y005505D01*
X012000Y005605D02*
X010445Y005605D01*
X010450Y005610D02*
X010450Y001155D01*
X010350Y001155D02*
X010350Y005510D01*
X010545Y005705D02*
X012000Y005705D01*
X012000Y005805D02*
X010645Y005805D01*
X010650Y005810D02*
X010650Y001155D01*
X010550Y001155D02*
X010550Y005710D01*
X010745Y005905D02*
X012000Y005905D01*
X012000Y006005D02*
X010787Y006005D01*
X010750Y005915D02*
X010750Y001155D01*
X010850Y001155D02*
X010850Y008689D01*
X010807Y008705D02*
X010800Y008705D01*
X010800Y008605D02*
X012000Y008605D01*
X012000Y008505D02*
X010800Y008505D01*
X010800Y008405D02*
X012000Y008405D01*
X012000Y008305D02*
X010800Y008305D01*
X010800Y008205D02*
X012000Y008205D01*
X012000Y008105D02*
X010800Y008105D01*
X010800Y008005D02*
X012000Y008005D01*
X012000Y007905D02*
X010800Y007905D01*
X010800Y007805D02*
X012000Y007805D01*
X012000Y007705D02*
X010800Y007705D01*
X010800Y007605D02*
X012000Y007605D01*
X012000Y007505D02*
X010800Y007505D01*
X010800Y007405D02*
X012000Y007405D01*
X012000Y007305D02*
X010800Y007305D01*
X010800Y007205D02*
X012000Y007205D01*
X012000Y007105D02*
X010800Y007105D01*
X010800Y007005D02*
X012000Y007005D01*
X012000Y006905D02*
X010800Y006905D01*
X010800Y006805D02*
X012000Y006805D01*
X012000Y006705D02*
X010800Y006705D01*
X010800Y006605D02*
X012000Y006605D01*
X012000Y006505D02*
X010800Y006505D01*
X010800Y006405D02*
X012000Y006405D01*
X012000Y006305D02*
X010800Y006305D01*
X010800Y006205D02*
X012000Y006205D01*
X012000Y006105D02*
X010800Y006105D01*
X010100Y006305D02*
X009574Y006305D01*
X009574Y006405D02*
X010100Y006405D01*
X010100Y006505D02*
X009574Y006505D01*
X009574Y006605D02*
X010100Y006605D01*
X010100Y006705D02*
X009574Y006705D01*
X009574Y006805D02*
X010100Y006805D01*
X010100Y006905D02*
X009574Y006905D01*
X009551Y007005D02*
X010100Y007005D01*
X010100Y007105D02*
X008894Y007105D01*
X008850Y007149D02*
X008850Y007375D01*
X008812Y007405D02*
X008760Y007405D01*
X008760Y007305D02*
X010100Y007305D01*
X010100Y007205D02*
X008794Y007205D01*
X008950Y007334D02*
X008950Y007070D01*
X009050Y007070D02*
X009050Y007310D01*
X009150Y007310D02*
X009150Y007070D01*
X009250Y007070D02*
X009250Y007332D01*
X009350Y007373D02*
X009350Y007070D01*
X009450Y007070D02*
X009450Y007462D01*
X009493Y007505D02*
X010100Y007505D01*
X010100Y007405D02*
X009393Y007405D01*
X009540Y007605D02*
X010100Y007605D01*
X010100Y007705D02*
X009574Y007705D01*
X009550Y007630D02*
X009550Y007006D01*
X009574Y007805D02*
X010100Y007805D01*
X010100Y007905D02*
X009561Y007905D01*
X009550Y007931D02*
X009550Y009653D01*
X009497Y009705D02*
X009360Y009705D01*
X009360Y009605D02*
X009638Y009605D01*
X009650Y009600D02*
X009650Y006155D01*
X009550Y006155D02*
X009550Y006193D01*
X009562Y006205D02*
X010055Y006205D01*
X010050Y006200D02*
X010050Y008745D01*
X010090Y008705D02*
X009360Y008705D01*
X009360Y008605D02*
X010100Y008605D01*
X010100Y008505D02*
X009360Y008505D01*
X009360Y008405D02*
X010100Y008405D01*
X010100Y008305D02*
X009360Y008305D01*
X009360Y008205D02*
X010100Y008205D01*
X010100Y008105D02*
X009444Y008105D01*
X009450Y008099D02*
X009450Y009793D01*
X009445Y009805D02*
X009360Y009805D01*
X009360Y009905D02*
X009430Y009905D01*
X009445Y010005D02*
X009360Y010005D01*
X009450Y010017D02*
X009450Y010380D01*
X009475Y010405D02*
X010620Y010405D01*
X010550Y010434D02*
X010550Y010176D01*
X010620Y010205D02*
X010387Y010205D01*
X010350Y010220D02*
X010350Y010421D01*
X010450Y010421D02*
X010450Y010189D01*
X010250Y010241D02*
X010250Y010421D01*
X010150Y010421D02*
X010150Y010241D01*
X010050Y010241D02*
X010050Y010421D01*
X009950Y010421D02*
X009950Y010241D01*
X009850Y010241D02*
X009850Y011595D01*
X009950Y011595D02*
X009950Y010937D01*
X009908Y010905D02*
X009580Y010905D01*
X009580Y010805D02*
X009852Y010805D01*
X009852Y010705D02*
X009580Y010705D01*
X009580Y010605D02*
X009852Y010605D01*
X009856Y010505D02*
X009575Y010505D01*
X009550Y010480D02*
X009550Y010158D01*
X009497Y010105D02*
X009347Y010105D01*
X009350Y010102D02*
X009350Y010280D01*
X009375Y010305D02*
X010620Y010305D01*
X010624Y010705D02*
X010624Y010850D01*
X010596Y010878D01*
X010798Y010878D01*
X010755Y010835D01*
X010755Y010835D01*
X010624Y010705D01*
X010625Y010705D01*
X010650Y010730D02*
X010650Y010878D01*
X010624Y010805D02*
X010725Y010805D01*
X010750Y010830D02*
X010750Y010878D01*
X011050Y011239D02*
X011050Y011857D01*
X011036Y011805D02*
X011133Y011805D01*
X011133Y011857D02*
X011133Y011588D01*
X011317Y011588D01*
X011347Y011596D01*
X011375Y011612D01*
X011397Y011635D01*
X011413Y011662D01*
X011421Y011692D01*
X011421Y011857D01*
X011133Y011857D01*
X011150Y011857D02*
X011150Y011954D01*
X011133Y011954D02*
X011421Y011954D01*
X011421Y012118D01*
X011413Y012148D01*
X011397Y012176D01*
X011375Y012198D01*
X011347Y012214D01*
X011317Y012222D01*
X011133Y012222D01*
X011133Y011954D01*
X011133Y011905D02*
X012000Y011905D01*
X012000Y011805D02*
X011421Y011805D01*
X011350Y011857D02*
X011350Y011954D01*
X011421Y012005D02*
X012000Y012005D01*
X012000Y012105D02*
X011421Y012105D01*
X011363Y012205D02*
X012000Y012205D01*
X012000Y012305D02*
X009580Y012305D01*
X009580Y012205D02*
X009638Y012205D01*
X009650Y012210D02*
X009650Y012380D01*
X009675Y012405D02*
X010365Y012405D01*
X010350Y012420D02*
X010350Y012252D01*
X010450Y012252D02*
X010450Y012378D01*
X010550Y012378D02*
X010550Y012252D01*
X010650Y012252D02*
X010650Y012378D01*
X010750Y012378D02*
X010750Y012196D01*
X010741Y012205D02*
X010807Y012205D01*
X010850Y012221D02*
X010850Y012378D01*
X010878Y012405D02*
X012000Y012405D01*
X012000Y012505D02*
X011364Y012505D01*
X011350Y012469D02*
X011350Y012212D01*
X011250Y012222D02*
X011250Y012408D01*
X011150Y012408D02*
X011150Y012222D01*
X011133Y012205D02*
X011036Y012205D01*
X010950Y012222D02*
X010950Y012408D01*
X011045Y012505D02*
X011112Y012505D01*
X011112Y012605D02*
X011045Y012605D01*
X011050Y012671D02*
X011050Y011954D01*
X011036Y012005D02*
X011133Y012005D01*
X011133Y012105D02*
X011036Y012105D01*
X011250Y011954D02*
X011250Y011857D01*
X011133Y011705D02*
X011036Y011705D01*
X011036Y011605D02*
X011133Y011605D01*
X011150Y011588D02*
X011150Y011502D01*
X011112Y011502D02*
X011112Y011239D01*
X011366Y011239D01*
X011366Y011398D01*
X011357Y011429D01*
X011342Y011456D01*
X011319Y011478D01*
X011292Y011494D01*
X011261Y011502D01*
X011112Y011502D01*
X011112Y011405D02*
X011045Y011405D01*
X011045Y011305D02*
X011112Y011305D01*
X011150Y011239D02*
X011150Y011171D01*
X011112Y011205D02*
X012000Y011205D01*
X012000Y011105D02*
X011366Y011105D01*
X011350Y011171D02*
X011350Y011239D01*
X011366Y011305D02*
X012000Y011305D01*
X012000Y011405D02*
X011364Y011405D01*
X011350Y011442D02*
X011350Y011598D01*
X011363Y011605D02*
X012000Y011605D01*
X012000Y011505D02*
X010878Y011505D01*
X010850Y011532D02*
X010850Y011589D01*
X010807Y011605D02*
X010741Y011605D01*
X010750Y011614D02*
X010750Y011532D01*
X010650Y011532D02*
X010650Y011558D01*
X010550Y011558D02*
X010550Y011532D01*
X010450Y011532D02*
X010450Y011558D01*
X010350Y011558D02*
X010350Y011490D01*
X010365Y011505D02*
X009580Y011505D01*
X009580Y011405D02*
X010304Y011405D01*
X010250Y011330D02*
X010250Y011558D01*
X010150Y011558D02*
X010150Y011230D01*
X010125Y011205D02*
X009580Y011205D01*
X009580Y011105D02*
X010025Y011105D01*
X010050Y011130D02*
X010050Y011595D01*
X009750Y011585D02*
X009750Y010241D01*
X009650Y010214D02*
X009650Y011600D01*
X009638Y011605D02*
X009580Y011605D01*
X009580Y011305D02*
X010225Y011305D01*
X010020Y011005D02*
X009580Y011005D01*
X009120Y011005D02*
X007914Y011005D01*
X007914Y010905D02*
X009120Y010905D01*
X009120Y010805D02*
X007885Y010805D01*
X007882Y010802D02*
X007914Y010835D01*
X007914Y011352D01*
X007882Y011384D01*
X007884Y011393D01*
X007884Y011477D01*
X007489Y011477D01*
X007094Y011477D01*
X007094Y011431D01*
X006279Y011431D01*
X006063Y011215D01*
X005940Y011092D01*
X005940Y008066D01*
X005826Y008179D01*
X005760Y008207D01*
X005760Y012692D01*
X005637Y012815D01*
X005485Y012967D01*
X005036Y012967D01*
X005036Y013399D01*
X004988Y013446D01*
X005037Y013495D01*
X007607Y013495D01*
X007616Y013487D01*
X007152Y013487D01*
X007064Y013399D01*
X007064Y012882D01*
X007097Y012850D01*
X007094Y012841D01*
X007094Y012757D01*
X007489Y012757D01*
X007489Y012757D01*
X007094Y012757D01*
X007094Y012672D01*
X007103Y012642D01*
X007110Y012629D01*
X007103Y012616D01*
X007094Y012585D01*
X007094Y012501D01*
X007489Y012501D01*
X007489Y012501D01*
X007489Y012689D01*
X007489Y012757D01*
X007489Y012757D01*
X007884Y012757D01*
X007884Y012841D01*
X007882Y012850D01*
X007914Y012882D01*
X007914Y013385D01*
X008031Y013434D01*
X008121Y013524D01*
X008170Y013641D01*
X008170Y013769D01*
X008121Y013886D01*
X008031Y013976D01*
X007914Y014025D01*
X007786Y014025D01*
X007669Y013976D01*
X007607Y013915D01*
X004863Y013915D01*
X004740Y013792D01*
X004435Y013487D01*
X004273Y013487D01*
X004186Y013399D01*
X004186Y011858D01*
X004218Y011826D01*
X004216Y011817D01*
X004216Y011733D01*
X004216Y011649D01*
X004218Y011640D01*
X004186Y011608D01*
X004186Y010919D01*
X003967Y010919D01*
X003844Y010796D01*
X003840Y010792D01*
X003840Y008022D01*
X003931Y007931D01*
X003908Y007874D01*
X003908Y007687D01*
X003979Y007514D01*
X004112Y007381D01*
X004285Y007310D01*
X004472Y007310D01*
X004645Y007381D01*
X004777Y007514D01*
X004849Y007687D01*
X004849Y007874D01*
X004777Y008047D01*
X004645Y008179D01*
X004472Y008251D01*
X004285Y008251D01*
X004260Y008241D01*
X004260Y009469D01*
X004279Y009424D01*
X004369Y009334D01*
X004486Y009285D01*
X004614Y009285D01*
X004731Y009334D01*
X004821Y009424D01*
X004870Y009541D01*
X004870Y009669D01*
X004847Y009723D01*
X004948Y009723D01*
X005036Y009811D01*
X005036Y011608D01*
X005003Y011640D01*
X005006Y011649D01*
X005006Y011733D01*
X004611Y011733D01*
X004611Y011733D01*
X005006Y011733D01*
X005006Y011817D01*
X005003Y011826D01*
X005036Y011858D01*
X005036Y011906D01*
X005086Y011885D01*
X005214Y011885D01*
X005331Y011934D01*
X005340Y011943D01*
X005340Y008199D01*
X005293Y008179D01*
X005160Y008047D01*
X005089Y007874D01*
X005089Y007687D01*
X005160Y007514D01*
X005293Y007381D01*
X005466Y007310D01*
X005653Y007310D01*
X005826Y007381D01*
X005940Y007495D01*
X005940Y007277D01*
X005710Y007047D01*
X005653Y007070D01*
X005466Y007070D01*
X005293Y006998D01*
X005160Y006866D01*
X005089Y006693D01*
X005089Y006506D01*
X005160Y006333D01*
X005293Y006200D01*
X005466Y006128D01*
X005653Y006128D01*
X005826Y006200D01*
X005959Y006333D01*
X006030Y006506D01*
X006030Y006693D01*
X006007Y006750D01*
X006360Y007103D01*
X006360Y007495D01*
X006474Y007381D01*
X006647Y007310D01*
X006834Y007310D01*
X007007Y007381D01*
X007140Y007514D01*
X007211Y007687D01*
X007211Y007874D01*
X007140Y008047D01*
X007007Y008179D01*
X006834Y008251D01*
X006647Y008251D01*
X006474Y008179D01*
X006360Y008066D01*
X006360Y010918D01*
X006453Y011011D01*
X007064Y011011D01*
X007064Y010835D01*
X007097Y010802D01*
X007094Y010794D01*
X007094Y010709D01*
X007489Y010709D01*
X007489Y010709D01*
X007489Y010709D01*
X007884Y010709D01*
X007884Y010794D01*
X007882Y010802D01*
X007884Y010705D02*
X009120Y010705D01*
X009050Y010684D02*
X009050Y014855D01*
X008950Y014855D02*
X008950Y010684D01*
X008850Y010684D02*
X008850Y014855D01*
X008750Y014855D02*
X008750Y010684D01*
X008650Y010684D02*
X008650Y014855D01*
X008550Y014855D02*
X008550Y010684D01*
X008450Y010684D02*
X008450Y014855D01*
X008350Y014855D02*
X008350Y010684D01*
X008250Y010684D02*
X008250Y014855D01*
X008150Y014855D02*
X008150Y013817D01*
X008155Y013805D02*
X010038Y013805D01*
X010050Y013800D02*
X010050Y012935D01*
X009950Y012935D02*
X009950Y013853D01*
X009897Y013905D02*
X008103Y013905D01*
X008050Y013958D02*
X008050Y014855D01*
X007950Y014855D02*
X007950Y014010D01*
X007962Y014005D02*
X009845Y014005D01*
X009850Y013993D02*
X009850Y012935D01*
X009750Y012935D02*
X009750Y014855D01*
X009650Y014855D02*
X009650Y012935D01*
X009550Y012930D02*
X009550Y014855D01*
X009450Y014855D02*
X009450Y012830D01*
X009425Y012805D02*
X007884Y012805D01*
X007884Y012757D02*
X007489Y012757D01*
X007489Y012757D01*
X007489Y012501D01*
X007489Y012501D01*
X007094Y012501D01*
X007094Y012416D01*
X007097Y012408D01*
X007064Y012376D01*
X007064Y011602D01*
X007097Y011570D01*
X007094Y011561D01*
X007094Y011477D01*
X007489Y011477D01*
X007489Y011477D01*
X007489Y011477D01*
X007884Y011477D01*
X007884Y011561D01*
X007882Y011570D01*
X007914Y011602D01*
X007914Y012376D01*
X007882Y012408D01*
X007884Y012416D01*
X007884Y012501D01*
X007884Y012585D01*
X007876Y012616D01*
X007869Y012629D01*
X007876Y012642D01*
X007884Y012672D01*
X007884Y012757D01*
X007850Y012757D02*
X007850Y012757D01*
X007884Y012705D02*
X009325Y012705D01*
X009350Y012730D02*
X009350Y014855D01*
X009250Y014855D02*
X009250Y012630D01*
X009225Y012605D02*
X007879Y012605D01*
X007884Y012505D02*
X009125Y012505D01*
X009150Y012530D02*
X009150Y014855D01*
X009830Y014105D02*
X000300Y014105D01*
X000300Y014005D02*
X007738Y014005D01*
X007750Y014010D02*
X007750Y014855D01*
X007850Y014855D02*
X007850Y014025D01*
X007650Y013958D02*
X007650Y014855D01*
X007550Y014855D02*
X007550Y013915D01*
X007450Y013915D02*
X007450Y014855D01*
X007350Y014855D02*
X007350Y013915D01*
X007250Y013915D02*
X007250Y014855D01*
X007150Y014855D02*
X007150Y013915D01*
X007050Y013915D02*
X007050Y014855D01*
X006950Y014855D02*
X006950Y013915D01*
X006850Y013915D02*
X006850Y014855D01*
X006750Y014855D02*
X006750Y013915D01*
X006650Y013915D02*
X006650Y014855D01*
X006550Y014855D02*
X006550Y013915D01*
X006450Y013915D02*
X006450Y014855D01*
X006350Y014855D02*
X006350Y013915D01*
X006250Y013915D02*
X006250Y014855D01*
X006150Y014855D02*
X006150Y013915D01*
X006050Y013915D02*
X006050Y014855D01*
X005950Y014855D02*
X005950Y013915D01*
X005850Y013915D02*
X005850Y014855D01*
X005750Y014855D02*
X005750Y013915D01*
X005650Y013915D02*
X005650Y014855D01*
X005550Y014855D02*
X005550Y013915D01*
X005450Y013915D02*
X005450Y014855D01*
X005350Y014855D02*
X005350Y013915D01*
X005250Y013915D02*
X005250Y014855D01*
X005150Y014855D02*
X005150Y013915D01*
X005050Y013915D02*
X005050Y014855D01*
X004950Y014855D02*
X004950Y013915D01*
X004853Y013905D02*
X000300Y013905D01*
X000300Y013805D02*
X004753Y013805D01*
X004750Y013802D02*
X004750Y014855D01*
X004650Y014855D02*
X004650Y013702D01*
X004653Y013705D02*
X000300Y013705D01*
X000300Y013605D02*
X004553Y013605D01*
X004550Y013602D02*
X004550Y014855D01*
X004450Y014855D02*
X004450Y013502D01*
X004453Y013505D02*
X000300Y013505D01*
X000300Y013405D02*
X004192Y013405D01*
X004250Y013464D02*
X004250Y014855D01*
X004150Y014855D02*
X004150Y010919D01*
X004186Y011005D02*
X000300Y011005D01*
X000300Y010905D02*
X003953Y010905D01*
X003950Y010902D02*
X003950Y014855D01*
X004050Y014855D02*
X004050Y010919D01*
X003853Y010805D02*
X000300Y010805D01*
X000300Y010705D02*
X003840Y010705D01*
X003844Y010796D02*
X003844Y010796D01*
X003850Y010802D02*
X003850Y014855D01*
X003750Y014855D02*
X003750Y003919D01*
X003850Y003961D02*
X003850Y008012D01*
X003857Y008005D02*
X003614Y008005D01*
X003596Y008047D02*
X003464Y008179D01*
X003291Y008251D01*
X003104Y008251D01*
X002931Y008179D01*
X002798Y008047D01*
X002726Y007874D01*
X002726Y007687D01*
X002798Y007514D01*
X002931Y007381D01*
X003104Y007310D01*
X003291Y007310D01*
X003464Y007381D01*
X003596Y007514D01*
X003668Y007687D01*
X003668Y007874D01*
X003596Y008047D01*
X003550Y008093D02*
X003550Y014855D01*
X003450Y014855D02*
X003450Y008185D01*
X003402Y008205D02*
X003840Y008205D01*
X003840Y008105D02*
X003538Y008105D01*
X003650Y007917D02*
X003650Y014855D01*
X003350Y014855D02*
X003350Y008227D01*
X003250Y008251D02*
X003250Y014855D01*
X003150Y014855D02*
X003150Y008251D01*
X003050Y008229D02*
X003050Y014855D01*
X002950Y014855D02*
X002950Y008187D01*
X002993Y008205D02*
X000300Y008205D01*
X000300Y008105D02*
X002856Y008105D01*
X002850Y008099D02*
X002850Y014855D01*
X002750Y014855D02*
X002750Y007931D01*
X002739Y007905D02*
X000300Y007905D01*
X000300Y007805D02*
X002726Y007805D01*
X002726Y007705D02*
X000300Y007705D01*
X000300Y007605D02*
X002760Y007605D01*
X002750Y007630D02*
X002750Y006750D01*
X002732Y006705D02*
X000300Y006705D01*
X000300Y006605D02*
X002726Y006605D01*
X002727Y006505D02*
X000300Y006505D01*
X000300Y006805D02*
X002773Y006805D01*
X002837Y006905D02*
X000300Y006905D01*
X000300Y007005D02*
X002947Y007005D01*
X002950Y007006D02*
X002950Y007373D01*
X002907Y007405D02*
X000300Y007405D01*
X000300Y007305D02*
X005940Y007305D01*
X005940Y007405D02*
X005850Y007405D01*
X005850Y007187D01*
X005868Y007205D02*
X000300Y007205D01*
X000300Y007105D02*
X005768Y007105D01*
X005750Y007087D02*
X005750Y007350D01*
X005650Y007310D02*
X005650Y007070D01*
X005550Y007070D02*
X005550Y007310D01*
X005450Y007316D02*
X005450Y007063D01*
X005350Y007022D02*
X005350Y007357D01*
X005269Y007405D02*
X004669Y007405D01*
X004650Y007386D02*
X004650Y006993D01*
X004629Y007005D02*
X005309Y007005D01*
X005250Y006956D02*
X005250Y007424D01*
X005169Y007505D02*
X004769Y007505D01*
X004750Y007486D02*
X004750Y006893D01*
X004738Y006905D02*
X005200Y006905D01*
X005150Y006841D02*
X005150Y007539D01*
X005122Y007605D02*
X004815Y007605D01*
X004849Y007705D02*
X005089Y007705D01*
X005089Y007805D02*
X004849Y007805D01*
X004836Y007905D02*
X005102Y007905D01*
X005143Y008005D02*
X004795Y008005D01*
X004750Y008074D02*
X004750Y009353D01*
X004803Y009405D02*
X005340Y009405D01*
X005340Y009305D02*
X004662Y009305D01*
X004650Y009300D02*
X004650Y008174D01*
X004583Y008205D02*
X005340Y008205D01*
X005340Y008305D02*
X004260Y008305D01*
X004260Y008405D02*
X005340Y008405D01*
X005340Y008505D02*
X004260Y008505D01*
X004260Y008605D02*
X005340Y008605D01*
X005340Y008705D02*
X004260Y008705D01*
X004260Y008805D02*
X005340Y008805D01*
X005340Y008905D02*
X004260Y008905D01*
X004260Y009005D02*
X005340Y009005D01*
X005340Y009105D02*
X004260Y009105D01*
X004260Y009205D02*
X005340Y009205D01*
X005340Y009505D02*
X004855Y009505D01*
X004850Y009493D02*
X004850Y005515D01*
X004750Y005515D02*
X004750Y006305D01*
X005188Y006305D01*
X005150Y006357D02*
X005150Y005515D01*
X005050Y005515D02*
X005050Y011900D01*
X005038Y011905D02*
X005036Y011905D01*
X005006Y011805D02*
X005340Y011805D01*
X005340Y011705D02*
X005006Y011705D01*
X004950Y011733D02*
X004950Y011733D01*
X004850Y011733D02*
X004850Y011733D01*
X004750Y011733D02*
X004750Y011733D01*
X004650Y011733D02*
X004650Y011733D01*
X004611Y011733D02*
X004216Y011733D01*
X004611Y011733D01*
X004611Y011733D01*
X004550Y011733D02*
X004550Y011733D01*
X004450Y011733D02*
X004450Y011733D01*
X004350Y011733D02*
X004350Y011733D01*
X004250Y011733D02*
X004250Y011733D01*
X004216Y011705D02*
X000300Y011705D01*
X000300Y011605D02*
X004186Y011605D01*
X004186Y011505D02*
X000300Y011505D01*
X000300Y011405D02*
X004186Y011405D01*
X004186Y011305D02*
X000300Y011305D01*
X000300Y011205D02*
X004186Y011205D01*
X004186Y011105D02*
X000300Y011105D01*
X000300Y010605D02*
X003840Y010605D01*
X003840Y010505D02*
X000300Y010505D01*
X000300Y010405D02*
X003840Y010405D01*
X003840Y010305D02*
X000300Y010305D01*
X000300Y010205D02*
X003840Y010205D01*
X003840Y010105D02*
X000300Y010105D01*
X000300Y010005D02*
X003840Y010005D01*
X003840Y009905D02*
X000300Y009905D01*
X000300Y009805D02*
X003840Y009805D01*
X003840Y009705D02*
X000300Y009705D01*
X000300Y009605D02*
X003840Y009605D01*
X003840Y009505D02*
X000300Y009505D01*
X000300Y009405D02*
X003840Y009405D01*
X003840Y009305D02*
X000300Y009305D01*
X000300Y009205D02*
X003840Y009205D01*
X003840Y009105D02*
X000300Y009105D01*
X000300Y009005D02*
X003840Y009005D01*
X003840Y008905D02*
X000300Y008905D01*
X000300Y008805D02*
X003840Y008805D01*
X003840Y008705D02*
X000300Y008705D01*
X000300Y008605D02*
X003840Y008605D01*
X003840Y008505D02*
X000300Y008505D01*
X000300Y008405D02*
X003840Y008405D01*
X003840Y008305D02*
X000300Y008305D01*
X000300Y008005D02*
X002781Y008005D01*
X002807Y007505D02*
X000300Y007505D01*
X002850Y007462D02*
X002850Y006918D01*
X003050Y007048D02*
X003050Y007332D01*
X003150Y007310D02*
X003150Y007070D01*
X003250Y007070D02*
X003250Y007310D01*
X003350Y007334D02*
X003350Y007046D01*
X003448Y007005D02*
X004128Y007005D01*
X004150Y007014D02*
X004150Y007365D01*
X004088Y007405D02*
X003488Y007405D01*
X003450Y007375D02*
X003450Y007004D01*
X003550Y006912D02*
X003550Y007467D01*
X003588Y007505D02*
X003988Y007505D01*
X004050Y007443D02*
X004050Y006937D01*
X004018Y006905D02*
X003557Y006905D01*
X003622Y006805D02*
X003954Y006805D01*
X003950Y006795D02*
X003950Y007584D01*
X003941Y007605D02*
X003634Y007605D01*
X003650Y007643D02*
X003650Y006736D01*
X003663Y006705D02*
X003913Y006705D01*
X003908Y006605D02*
X003668Y006605D01*
X003668Y006505D02*
X003908Y006505D01*
X004250Y007056D02*
X004250Y007324D01*
X004350Y007310D02*
X004350Y007070D01*
X004450Y007070D02*
X004450Y007310D01*
X004550Y007342D02*
X004550Y007038D01*
X004803Y006805D02*
X005135Y006805D01*
X005094Y006705D02*
X004844Y006705D01*
X004849Y006605D02*
X005089Y006605D01*
X005089Y006505D02*
X004849Y006505D01*
X004808Y006405D02*
X005130Y006405D01*
X005250Y006243D02*
X005250Y005515D01*
X005350Y005515D02*
X005350Y006176D01*
X005288Y006205D02*
X004660Y006205D01*
X004660Y006105D02*
X007572Y006105D01*
X007572Y006005D02*
X004660Y006005D01*
X004660Y005905D02*
X007572Y005905D01*
X007596Y005805D02*
X004660Y005805D01*
X004660Y005705D02*
X007655Y005705D01*
X007650Y005710D02*
X007650Y005515D01*
X007750Y005515D02*
X007750Y005610D01*
X007755Y005605D02*
X004660Y005605D01*
X004950Y005515D02*
X004950Y009725D01*
X004855Y009705D02*
X005340Y009705D01*
X005340Y009605D02*
X004870Y009605D01*
X004850Y009717D02*
X004850Y009723D01*
X005030Y009805D02*
X005340Y009805D01*
X005340Y009905D02*
X005036Y009905D01*
X005036Y010005D02*
X005340Y010005D01*
X005340Y010105D02*
X005036Y010105D01*
X005036Y010205D02*
X005340Y010205D01*
X005340Y010305D02*
X005036Y010305D01*
X005036Y010405D02*
X005340Y010405D01*
X005340Y010505D02*
X005036Y010505D01*
X005036Y010605D02*
X005340Y010605D01*
X005340Y010705D02*
X005036Y010705D01*
X005036Y010805D02*
X005340Y010805D01*
X005340Y010905D02*
X005036Y010905D01*
X005036Y011005D02*
X005340Y011005D01*
X005340Y011105D02*
X005036Y011105D01*
X005036Y011205D02*
X005340Y011205D01*
X005340Y011305D02*
X005036Y011305D01*
X005036Y011405D02*
X005340Y011405D01*
X005340Y011505D02*
X005036Y011505D01*
X005036Y011605D02*
X005340Y011605D01*
X005340Y011905D02*
X005262Y011905D01*
X005250Y011900D02*
X005250Y008137D01*
X005218Y008105D02*
X004719Y008105D01*
X004550Y008219D02*
X004550Y009285D01*
X004450Y009300D02*
X004450Y008251D01*
X004350Y008251D02*
X004350Y009353D01*
X004297Y009405D02*
X004260Y009405D01*
X004260Y009305D02*
X004438Y009305D01*
X005150Y008022D02*
X005150Y011885D01*
X005340Y012468D02*
X005331Y012476D01*
X005214Y012525D01*
X005086Y012525D01*
X005036Y012504D01*
X005036Y012547D01*
X005311Y012547D01*
X005340Y012518D01*
X005340Y012468D01*
X005340Y012505D02*
X005262Y012505D01*
X005250Y012510D02*
X005250Y012547D01*
X005150Y012547D02*
X005150Y012525D01*
X005050Y012510D02*
X005050Y012547D01*
X005038Y012505D02*
X005036Y012505D01*
X005050Y012967D02*
X005050Y013495D01*
X005030Y013405D02*
X007070Y013405D01*
X007050Y013495D02*
X007050Y011431D01*
X007094Y011505D02*
X005760Y011505D01*
X005760Y011405D02*
X006253Y011405D01*
X006250Y011402D02*
X006250Y013495D01*
X006150Y013495D02*
X006150Y011302D01*
X006153Y011305D02*
X005760Y011305D01*
X005760Y011205D02*
X006053Y011205D01*
X006050Y011202D02*
X006050Y013495D01*
X005950Y013495D02*
X005950Y011102D01*
X005953Y011105D02*
X005760Y011105D01*
X005760Y011005D02*
X005940Y011005D01*
X005940Y010905D02*
X005760Y010905D01*
X005760Y010805D02*
X005940Y010805D01*
X005940Y010705D02*
X005760Y010705D01*
X005760Y010605D02*
X005940Y010605D01*
X005940Y010505D02*
X005760Y010505D01*
X005760Y010405D02*
X005940Y010405D01*
X005940Y010305D02*
X005760Y010305D01*
X005760Y010205D02*
X005940Y010205D01*
X005940Y010105D02*
X005760Y010105D01*
X005760Y010005D02*
X005940Y010005D01*
X005940Y009905D02*
X005760Y009905D01*
X005760Y009805D02*
X005940Y009805D01*
X005940Y009705D02*
X005760Y009705D01*
X005760Y009605D02*
X005940Y009605D01*
X005940Y009505D02*
X005760Y009505D01*
X005760Y009405D02*
X005940Y009405D01*
X005940Y009305D02*
X005760Y009305D01*
X005760Y009205D02*
X005940Y009205D01*
X005940Y009105D02*
X005760Y009105D01*
X005760Y009005D02*
X005940Y009005D01*
X005940Y008905D02*
X005760Y008905D01*
X005760Y008805D02*
X005940Y008805D01*
X005940Y008705D02*
X005760Y008705D01*
X005760Y008605D02*
X005940Y008605D01*
X005940Y008505D02*
X005760Y008505D01*
X005760Y008405D02*
X005940Y008405D01*
X005940Y008305D02*
X005760Y008305D01*
X005764Y008205D02*
X005940Y008205D01*
X005940Y008105D02*
X005900Y008105D01*
X005850Y008156D02*
X005850Y013495D01*
X005750Y013495D02*
X005750Y012702D01*
X005747Y012705D02*
X007094Y012705D01*
X007150Y012757D02*
X007150Y012757D01*
X007094Y012805D02*
X005647Y012805D01*
X005650Y012802D02*
X005650Y013495D01*
X005550Y013495D02*
X005550Y012902D01*
X005547Y012905D02*
X007064Y012905D01*
X007064Y013005D02*
X005036Y013005D01*
X005036Y013105D02*
X007064Y013105D01*
X007064Y013205D02*
X005036Y013205D01*
X005036Y013305D02*
X007064Y013305D01*
X007150Y013485D02*
X007150Y013495D01*
X007250Y013487D02*
X007250Y013495D01*
X007350Y013487D02*
X007350Y013495D01*
X007450Y013487D02*
X007450Y013495D01*
X007550Y013487D02*
X007550Y013495D01*
X007914Y013305D02*
X010382Y013305D01*
X010382Y013405D02*
X007962Y013405D01*
X007950Y013400D02*
X007950Y010684D01*
X008050Y010684D02*
X008050Y013453D01*
X008103Y013505D02*
X010382Y013505D01*
X010350Y013583D02*
X010350Y012990D01*
X010365Y013005D02*
X007914Y013005D01*
X007914Y012905D02*
X009525Y012905D01*
X009750Y012475D02*
X009750Y012225D01*
X009850Y012215D02*
X009850Y012475D01*
X009950Y012475D02*
X009950Y012215D01*
X010050Y012215D02*
X010050Y012475D01*
X010150Y012475D02*
X010150Y012252D01*
X010250Y012252D02*
X010250Y012475D01*
X010250Y012935D02*
X010250Y013800D01*
X010262Y013805D02*
X010347Y013805D01*
X010347Y013705D02*
X008170Y013705D01*
X008155Y013605D02*
X010347Y013605D01*
X010150Y013785D02*
X010150Y012935D01*
X010450Y013032D02*
X010450Y013157D01*
X010402Y013205D02*
X007914Y013205D01*
X007914Y013105D02*
X010515Y013105D01*
X011112Y012705D02*
X012000Y012705D01*
X012000Y012605D02*
X011366Y012605D01*
X011350Y012671D02*
X011350Y012739D01*
X011366Y012805D02*
X012000Y012805D01*
X012000Y012905D02*
X011364Y012905D01*
X011350Y012942D02*
X011350Y013498D01*
X011318Y013405D02*
X012000Y013405D01*
X012000Y013305D02*
X011318Y013305D01*
X011298Y013205D02*
X012000Y013205D01*
X012000Y013105D02*
X011260Y013105D01*
X011250Y013008D02*
X011250Y013002D01*
X011247Y013005D02*
X012000Y013005D01*
X012000Y013505D02*
X011472Y013505D01*
X011450Y013498D02*
X011450Y010937D01*
X011550Y010937D02*
X011550Y013583D01*
X011553Y013605D02*
X012000Y013605D01*
X012000Y013705D02*
X011553Y013705D01*
X011553Y013805D02*
X012000Y013805D01*
X012000Y013905D02*
X011553Y013905D01*
X011553Y014005D02*
X012000Y014005D01*
X012000Y014105D02*
X011472Y014105D01*
X011450Y014113D02*
X011450Y014855D01*
X011550Y014855D02*
X011550Y014027D01*
X011350Y014197D02*
X011350Y014855D01*
X011250Y014855D02*
X011250Y014297D01*
X011242Y014305D02*
X012000Y014305D01*
X012000Y014205D02*
X011342Y014205D01*
X011150Y014328D02*
X011150Y014855D01*
X011050Y014855D02*
X011050Y014315D01*
X010950Y014315D02*
X010950Y014855D01*
X010850Y014855D02*
X010850Y014315D01*
X010750Y014315D02*
X010750Y014855D01*
X010650Y014855D02*
X010650Y014315D01*
X010550Y014315D02*
X010550Y014855D01*
X010450Y014855D02*
X010450Y014315D01*
X010350Y014358D02*
X010350Y014855D01*
X010250Y014855D02*
X010250Y014410D01*
X010262Y014405D02*
X012000Y014405D01*
X012000Y014505D02*
X000300Y014505D01*
X000300Y014405D02*
X010038Y014405D01*
X010050Y014410D02*
X010050Y014855D01*
X009950Y014855D02*
X009950Y014358D01*
X009897Y014305D02*
X000300Y014305D01*
X000300Y014205D02*
X009845Y014205D01*
X009850Y014217D02*
X009850Y014855D01*
X010150Y014855D02*
X010150Y014425D01*
X011150Y012739D02*
X011150Y012671D01*
X011250Y012671D02*
X011250Y012739D01*
X011421Y011705D02*
X012000Y011705D01*
X012000Y011005D02*
X011364Y011005D01*
X011350Y010969D02*
X011350Y010937D01*
X011250Y011171D02*
X011250Y011239D01*
X011250Y011502D02*
X011250Y011588D01*
X010950Y011588D02*
X010950Y011502D01*
X011592Y010905D02*
X012000Y010905D01*
X012000Y010805D02*
X011648Y010805D01*
X011648Y010705D02*
X012000Y010705D01*
X012000Y010605D02*
X011648Y010605D01*
X011644Y010505D02*
X012000Y010505D01*
X012000Y010405D02*
X011618Y010405D01*
X011550Y010309D02*
X011550Y010301D01*
X011450Y010301D02*
X011450Y010309D01*
X011350Y010301D02*
X011350Y010309D01*
X011266Y010305D02*
X012000Y010305D01*
X012000Y010205D02*
X011618Y010205D01*
X011644Y010105D02*
X012000Y010105D01*
X012000Y010005D02*
X011648Y010005D01*
X011648Y009905D02*
X012000Y009905D01*
X012000Y009805D02*
X011648Y009805D01*
X011592Y009705D02*
X012000Y009705D01*
X012000Y009605D02*
X011080Y009605D01*
X011150Y009673D02*
X011150Y009322D01*
X011133Y009322D02*
X011133Y009054D01*
X011421Y009054D01*
X011421Y009218D01*
X011413Y009248D01*
X011397Y009276D01*
X011375Y009298D01*
X011347Y009314D01*
X011317Y009322D01*
X011133Y009322D01*
X011133Y009305D02*
X011036Y009305D01*
X011050Y009380D02*
X011050Y009054D01*
X011036Y009105D02*
X011133Y009105D01*
X011150Y009054D02*
X011150Y008957D01*
X011133Y008957D02*
X011421Y008957D01*
X011421Y008792D01*
X011413Y008762D01*
X011397Y008735D01*
X011375Y008712D01*
X011347Y008696D01*
X011317Y008688D01*
X011133Y008688D01*
X011133Y008957D01*
X011133Y009005D02*
X012000Y009005D01*
X012000Y008905D02*
X011421Y008905D01*
X011350Y008957D02*
X011350Y009054D01*
X011421Y009105D02*
X012000Y009105D01*
X012000Y009205D02*
X011421Y009205D01*
X011363Y009305D02*
X012000Y009305D01*
X012000Y009405D02*
X011075Y009405D01*
X011080Y009505D02*
X012000Y009505D01*
X011550Y009673D02*
X011550Y001155D01*
X011450Y001155D02*
X011450Y009673D01*
X011350Y009673D02*
X011350Y009312D01*
X011250Y009322D02*
X011250Y009673D01*
X011133Y009205D02*
X011036Y009205D01*
X011050Y008957D02*
X011050Y001155D01*
X010950Y001155D02*
X010950Y008688D01*
X011036Y008705D02*
X011133Y008705D01*
X011150Y008688D02*
X011150Y001155D01*
X011250Y001155D02*
X011250Y008688D01*
X011350Y008698D02*
X011350Y001155D01*
X011650Y001155D02*
X011650Y014855D01*
X011750Y014855D02*
X011750Y001155D01*
X011850Y001155D02*
X011850Y014855D01*
X012000Y014705D02*
X000300Y014705D01*
X000300Y014605D02*
X012000Y014605D01*
X009120Y012405D02*
X007885Y012405D01*
X007884Y012501D02*
X007489Y012501D01*
X007884Y012501D01*
X007850Y012501D02*
X007850Y012501D01*
X007750Y012501D02*
X007750Y012501D01*
X007650Y012501D02*
X007650Y012501D01*
X007550Y012501D02*
X007550Y012501D01*
X007489Y012501D02*
X007489Y012501D01*
X007489Y012505D02*
X007489Y012505D01*
X007450Y012501D02*
X007450Y012501D01*
X007350Y012501D02*
X007350Y012501D01*
X007250Y012501D02*
X007250Y012501D01*
X007150Y012501D02*
X007150Y012501D01*
X007094Y012505D02*
X005760Y012505D01*
X005760Y012405D02*
X007094Y012405D01*
X007064Y012305D02*
X005760Y012305D01*
X005760Y012205D02*
X007064Y012205D01*
X007064Y012105D02*
X005760Y012105D01*
X005760Y012005D02*
X007064Y012005D01*
X007064Y011905D02*
X005760Y011905D01*
X005760Y011805D02*
X007064Y011805D01*
X007064Y011705D02*
X005760Y011705D01*
X005760Y011605D02*
X007064Y011605D01*
X007150Y011477D02*
X007150Y011477D01*
X007250Y011477D02*
X007250Y011477D01*
X007350Y011477D02*
X007350Y011477D01*
X007450Y011477D02*
X007450Y011477D01*
X007550Y011477D02*
X007550Y011477D01*
X007650Y011477D02*
X007650Y011477D01*
X007750Y011477D02*
X007750Y011477D01*
X007850Y011477D02*
X007850Y011477D01*
X007884Y011505D02*
X009120Y011505D01*
X009120Y011405D02*
X007884Y011405D01*
X007914Y011305D02*
X009120Y011305D01*
X009120Y011205D02*
X007914Y011205D01*
X007914Y011105D02*
X009120Y011105D01*
X009120Y011605D02*
X007914Y011605D01*
X007914Y011705D02*
X009120Y011705D01*
X009120Y011805D02*
X007914Y011805D01*
X007914Y011905D02*
X009120Y011905D01*
X009120Y012005D02*
X007914Y012005D01*
X007914Y012105D02*
X009120Y012105D01*
X009120Y012205D02*
X007914Y012205D01*
X007914Y012305D02*
X009120Y012305D01*
X008150Y013593D02*
X008150Y010684D01*
X007850Y010709D02*
X007850Y010709D01*
X007750Y010709D02*
X007750Y010709D01*
X007650Y010709D02*
X007650Y010709D01*
X007550Y010709D02*
X007550Y010709D01*
X007450Y010709D02*
X007450Y010709D01*
X007350Y010709D02*
X007350Y010709D01*
X007250Y010709D02*
X007250Y010709D01*
X007150Y010709D02*
X007150Y010709D01*
X007094Y010705D02*
X006360Y010705D01*
X006360Y010605D02*
X007085Y010605D01*
X007064Y010505D02*
X006360Y010505D01*
X006360Y010405D02*
X007064Y010405D01*
X007064Y010305D02*
X006360Y010305D01*
X006360Y010205D02*
X007064Y010205D01*
X007064Y010105D02*
X006360Y010105D01*
X006360Y010005D02*
X007064Y010005D01*
X007064Y009905D02*
X006360Y009905D01*
X006360Y009805D02*
X007070Y009805D01*
X007150Y009725D02*
X007150Y008022D01*
X007157Y008005D02*
X007505Y008005D01*
X007550Y008074D02*
X007550Y009723D01*
X007450Y009723D02*
X007450Y005515D01*
X007350Y005515D02*
X007350Y009723D01*
X007250Y009723D02*
X007250Y005515D01*
X007150Y005515D02*
X007150Y006433D01*
X007149Y006430D02*
X007170Y006496D01*
X007179Y006549D01*
X006791Y006549D01*
X006791Y006649D01*
X007179Y006649D01*
X007170Y006702D01*
X007149Y006768D01*
X007118Y006830D01*
X007077Y006886D01*
X007028Y006935D01*
X006972Y006976D01*
X006910Y007008D01*
X006844Y007029D01*
X006791Y007038D01*
X006791Y006649D01*
X006691Y006649D01*
X006691Y007038D01*
X006637Y007029D01*
X006571Y007008D01*
X006510Y006976D01*
X006453Y006935D01*
X006404Y006886D01*
X006364Y006830D01*
X006332Y006768D01*
X006311Y006702D01*
X006302Y006649D01*
X006691Y006649D01*
X006691Y006549D01*
X006791Y006549D01*
X006791Y006161D01*
X006844Y006169D01*
X006910Y006191D01*
X006972Y006222D01*
X007028Y006263D01*
X007077Y006312D01*
X007118Y006368D01*
X007149Y006430D01*
X007136Y006405D02*
X007492Y006405D01*
X007451Y006505D02*
X007172Y006505D01*
X007150Y006549D02*
X007150Y006649D01*
X007170Y006705D02*
X007456Y006705D01*
X007451Y006605D02*
X006791Y006605D01*
X006750Y006649D02*
X006750Y007310D01*
X006650Y007310D02*
X006650Y007031D01*
X006691Y007005D02*
X006791Y007005D01*
X006850Y007027D02*
X006850Y007316D01*
X006950Y007357D02*
X006950Y006987D01*
X006915Y007005D02*
X007671Y007005D01*
X007650Y006993D02*
X007650Y007386D01*
X007631Y007405D02*
X007031Y007405D01*
X007050Y007424D02*
X007050Y006913D01*
X007058Y006905D02*
X007562Y006905D01*
X007550Y006893D02*
X007550Y007486D01*
X007531Y007505D02*
X007131Y007505D01*
X007150Y007539D02*
X007150Y006765D01*
X007130Y006805D02*
X007497Y006805D01*
X007750Y007038D02*
X007750Y007342D01*
X007850Y007310D02*
X007850Y007070D01*
X007950Y007070D02*
X007950Y007310D01*
X008050Y007324D02*
X008050Y007056D01*
X008150Y007014D02*
X008150Y007365D01*
X008212Y007405D02*
X008340Y007405D01*
X008250Y007443D02*
X008250Y006937D01*
X008282Y006905D02*
X008500Y006905D01*
X008450Y006955D02*
X008450Y006155D01*
X008350Y006155D02*
X008350Y006403D01*
X008351Y006405D02*
X008632Y006405D01*
X008632Y006305D02*
X008293Y006305D01*
X008272Y006205D02*
X008643Y006205D01*
X008650Y006198D02*
X008650Y006155D01*
X008550Y006155D02*
X008550Y006855D01*
X008600Y006805D02*
X008346Y006805D01*
X008350Y006795D02*
X008350Y007055D01*
X008340Y007105D02*
X006360Y007105D01*
X006350Y007093D02*
X006350Y006804D01*
X006351Y006805D02*
X006062Y006805D01*
X006050Y006793D02*
X006050Y005515D01*
X005950Y005515D02*
X005950Y006324D01*
X005931Y006305D02*
X006411Y006305D01*
X006404Y006312D02*
X006453Y006263D01*
X006510Y006222D01*
X006571Y006191D01*
X006637Y006169D01*
X006691Y006161D01*
X006691Y006549D01*
X006302Y006549D01*
X006311Y006496D01*
X006332Y006430D01*
X006364Y006368D01*
X006404Y006312D01*
X006450Y006266D02*
X006450Y005515D01*
X006350Y005515D02*
X006350Y006395D01*
X006345Y006405D02*
X005989Y006405D01*
X006030Y006505D02*
X006309Y006505D01*
X006350Y006549D02*
X006350Y006649D01*
X006311Y006705D02*
X006025Y006705D01*
X006030Y006605D02*
X006691Y006605D01*
X006650Y006649D02*
X006650Y006549D01*
X006691Y006505D02*
X006791Y006505D01*
X006750Y006549D02*
X006750Y005515D01*
X006650Y005515D02*
X006650Y006167D01*
X006691Y006205D02*
X006791Y006205D01*
X006850Y006171D02*
X006850Y005515D01*
X006950Y005515D02*
X006950Y006211D01*
X006938Y006205D02*
X007572Y006205D01*
X007550Y006305D02*
X007550Y005515D01*
X007050Y005515D02*
X007050Y006285D01*
X007070Y006305D02*
X007550Y006305D01*
X007050Y006549D02*
X007050Y006649D01*
X006950Y006649D02*
X006950Y006549D01*
X006850Y006549D02*
X006850Y006649D01*
X006791Y006705D02*
X006691Y006705D01*
X006691Y006805D02*
X006791Y006805D01*
X006791Y006905D02*
X006691Y006905D01*
X006566Y007005D02*
X006262Y007005D01*
X006250Y006993D02*
X006250Y005515D01*
X006150Y005515D02*
X006150Y006893D01*
X006162Y006905D02*
X006423Y006905D01*
X006450Y006932D02*
X006450Y007405D01*
X006360Y007405D01*
X006360Y007305D02*
X008340Y007305D01*
X008340Y007205D02*
X006360Y007205D01*
X006550Y007350D02*
X006550Y006997D01*
X006550Y006649D02*
X006550Y006549D01*
X006450Y006549D02*
X006450Y006649D01*
X006691Y006405D02*
X006791Y006405D01*
X006791Y006305D02*
X006691Y006305D01*
X006550Y006202D02*
X006550Y005515D01*
X006543Y006205D02*
X005831Y006205D01*
X005850Y006224D02*
X005850Y005515D01*
X005750Y005515D02*
X005750Y006169D01*
X005650Y006128D02*
X005650Y005515D01*
X005550Y005515D02*
X005550Y006128D01*
X005450Y006135D02*
X005450Y005515D01*
X004550Y004895D02*
X004550Y003786D01*
X003908Y007705D02*
X003668Y007705D01*
X003668Y007805D02*
X003908Y007805D01*
X003920Y007905D02*
X003655Y007905D01*
X006360Y008105D02*
X006400Y008105D01*
X006450Y008156D02*
X006450Y011008D01*
X006447Y011005D02*
X007064Y011005D01*
X007050Y011011D02*
X007050Y008137D01*
X007082Y008105D02*
X007581Y008105D01*
X007650Y008174D02*
X007650Y009723D01*
X007750Y009723D02*
X007750Y008219D01*
X007717Y008205D02*
X006945Y008205D01*
X006950Y008203D02*
X006950Y011011D01*
X006850Y011011D02*
X006850Y008245D01*
X006750Y008251D02*
X006750Y011011D01*
X006650Y011011D02*
X006650Y008251D01*
X006550Y008211D02*
X006550Y011011D01*
X006360Y010905D02*
X007064Y010905D01*
X007094Y010805D02*
X006360Y010805D01*
X006350Y011431D02*
X006350Y013495D01*
X006450Y013495D02*
X006450Y011431D01*
X006550Y011431D02*
X006550Y013495D01*
X006650Y013495D02*
X006650Y011431D01*
X006750Y011431D02*
X006750Y013495D01*
X006850Y013495D02*
X006850Y011431D01*
X006950Y011431D02*
X006950Y013495D01*
X007250Y012757D02*
X007250Y012757D01*
X007350Y012757D02*
X007350Y012757D01*
X007450Y012757D02*
X007450Y012757D01*
X007489Y012705D02*
X007489Y012705D01*
X007550Y012757D02*
X007550Y012757D01*
X007650Y012757D02*
X007650Y012757D01*
X007750Y012757D02*
X007750Y012757D01*
X007489Y012605D02*
X007489Y012605D01*
X007100Y012605D02*
X005760Y012605D01*
X005450Y012967D02*
X005450Y013495D01*
X005350Y013495D02*
X005350Y012967D01*
X005250Y012967D02*
X005250Y013495D01*
X005150Y013495D02*
X005150Y012967D01*
X004350Y013487D02*
X004350Y014855D01*
X004850Y014855D02*
X004850Y013902D01*
X004186Y013305D02*
X000300Y013305D01*
X000300Y013205D02*
X004186Y013205D01*
X004186Y013105D02*
X000300Y013105D01*
X000300Y013005D02*
X004186Y013005D01*
X004186Y012905D02*
X000300Y012905D01*
X000300Y012805D02*
X004186Y012805D01*
X004186Y012705D02*
X000300Y012705D01*
X000300Y012605D02*
X004186Y012605D01*
X004186Y012505D02*
X000300Y012505D01*
X000300Y012405D02*
X004186Y012405D01*
X004186Y012305D02*
X000300Y012305D01*
X000300Y012205D02*
X004186Y012205D01*
X004186Y012105D02*
X000300Y012105D01*
X000300Y012005D02*
X004186Y012005D01*
X004186Y011905D02*
X000300Y011905D01*
X000300Y011805D02*
X004216Y011805D01*
X006360Y009705D02*
X008340Y009705D01*
X008250Y009732D02*
X008250Y008118D01*
X008263Y008105D02*
X008340Y008105D01*
X008338Y008005D02*
X008340Y008005D01*
X008340Y008205D02*
X008126Y008205D01*
X008150Y008195D02*
X008150Y009732D01*
X008050Y009732D02*
X008050Y008237D01*
X007950Y008251D02*
X007950Y009732D01*
X007850Y009732D02*
X007850Y008251D01*
X007464Y007905D02*
X007198Y007905D01*
X007211Y007805D02*
X007451Y007805D01*
X007451Y007705D02*
X007211Y007705D01*
X007178Y007605D02*
X007485Y007605D01*
X008172Y007005D02*
X008400Y007005D01*
X008387Y006705D02*
X008632Y006705D01*
X008632Y006605D02*
X008392Y006605D01*
X008392Y006505D02*
X008632Y006505D01*
X008340Y007505D02*
X008312Y007505D01*
X008760Y008103D02*
X008760Y009892D01*
X008664Y009988D01*
X008870Y009988D01*
X008940Y009918D01*
X008940Y008222D01*
X008836Y008179D01*
X008760Y008103D01*
X008760Y008105D02*
X008762Y008105D01*
X008760Y008205D02*
X008898Y008205D01*
X008850Y008185D02*
X008850Y009988D01*
X008750Y009988D02*
X008750Y009902D01*
X008747Y009905D02*
X008940Y009905D01*
X008940Y009805D02*
X008760Y009805D01*
X008760Y009705D02*
X008940Y009705D01*
X008940Y009605D02*
X008760Y009605D01*
X008760Y009505D02*
X008940Y009505D01*
X008940Y009405D02*
X008760Y009405D01*
X008760Y009305D02*
X008940Y009305D01*
X008940Y009205D02*
X008760Y009205D01*
X008760Y009105D02*
X008940Y009105D01*
X008940Y009005D02*
X008760Y009005D01*
X008760Y008905D02*
X008940Y008905D01*
X008940Y008805D02*
X008760Y008805D01*
X008760Y008705D02*
X008940Y008705D01*
X008940Y008605D02*
X008760Y008605D01*
X008760Y008505D02*
X008940Y008505D01*
X008940Y008405D02*
X008760Y008405D01*
X008760Y008305D02*
X008940Y008305D01*
X009360Y008805D02*
X010049Y008805D01*
X010049Y008905D02*
X009360Y008905D01*
X009360Y009005D02*
X010049Y009005D01*
X010049Y009105D02*
X009360Y009105D01*
X009360Y009205D02*
X010049Y009205D01*
X010050Y009265D02*
X010050Y009621D01*
X009950Y009621D02*
X009950Y006155D01*
X009850Y006155D02*
X009850Y009600D01*
X009862Y009605D02*
X010425Y009605D01*
X010450Y009630D02*
X010450Y009673D01*
X010550Y009686D02*
X010550Y009635D01*
X010569Y009705D02*
X010620Y009705D01*
X010350Y009642D02*
X010350Y009530D01*
X010325Y009505D02*
X009360Y009505D01*
X009360Y009405D02*
X010225Y009405D01*
X010250Y009430D02*
X010250Y009621D01*
X010150Y009621D02*
X010150Y009352D01*
X010090Y009305D02*
X009360Y009305D01*
X009750Y009585D02*
X009750Y006155D01*
X009519Y008005D02*
X010100Y008005D01*
X011036Y008805D02*
X011133Y008805D01*
X011133Y008905D02*
X011036Y008905D01*
X011250Y008957D02*
X011250Y009054D01*
X011421Y008805D02*
X012000Y008805D01*
X012000Y008705D02*
X011363Y008705D01*
X009627Y010205D02*
X009247Y010205D01*
X009250Y010202D02*
X009250Y010224D01*
X008340Y009605D02*
X006360Y009605D01*
X006360Y009505D02*
X008340Y009505D01*
X008340Y009405D02*
X006360Y009405D01*
X006360Y009305D02*
X008340Y009305D01*
X008340Y009205D02*
X006360Y009205D01*
X006360Y009105D02*
X008340Y009105D01*
X008340Y009005D02*
X006360Y009005D01*
X006360Y008905D02*
X008340Y008905D01*
X008340Y008805D02*
X006360Y008805D01*
X006360Y008705D02*
X008340Y008705D01*
X008340Y008605D02*
X006360Y008605D01*
X006360Y008505D02*
X008340Y008505D01*
X008340Y008405D02*
X006360Y008405D01*
X006360Y008305D02*
X008340Y008305D01*
X006536Y008205D02*
X006360Y008205D01*
X008903Y003605D02*
X012000Y003605D01*
X012000Y002905D02*
X008915Y002905D01*
D19*
X008050Y005805D02*
X010150Y005805D01*
X010450Y006105D01*
X010450Y008970D01*
X010415Y009005D01*
X011085Y009005D02*
X011750Y009005D01*
X011750Y011905D02*
X011085Y011905D01*
X007922Y006599D02*
X007922Y005933D01*
X008050Y005805D01*
D20*
X009650Y005205D03*
X011750Y009005D03*
X011750Y010305D03*
X011750Y011205D03*
X011750Y011905D03*
X011750Y012705D03*
X010150Y014105D03*
X009150Y014605D03*
X007850Y013705D03*
X009750Y011905D03*
X009750Y009905D03*
X005150Y012205D03*
X004550Y009605D03*
X000550Y011705D03*
D21*
X000578Y011733D01*
X004611Y011733D01*
X007489Y011477D02*
X008922Y011477D01*
X009050Y011605D01*
X009050Y012605D01*
X008946Y012501D01*
X007489Y012501D01*
X007489Y012757D02*
X008902Y012757D01*
X009050Y012905D01*
X009050Y014505D01*
X009150Y014605D01*
X009050Y012905D02*
X009050Y012605D01*
X009350Y012405D02*
X009650Y012705D01*
X010622Y012705D01*
X009350Y012405D02*
X009350Y010605D01*
X009198Y010454D01*
X007489Y010454D01*
X007489Y010709D02*
X008954Y010709D01*
X009050Y010805D01*
X009050Y011605D01*
X010250Y011005D02*
X010250Y010691D01*
X010238Y010679D01*
X010250Y011005D02*
X010450Y011205D01*
X010622Y011205D01*
X010924Y010679D02*
X010850Y010605D01*
X010850Y009905D01*
X010876Y009931D01*
X011262Y009931D01*
X011262Y010305D02*
X011750Y010305D01*
X011262Y010679D02*
X010924Y010679D01*
X011078Y011205D02*
X011750Y011205D01*
X010850Y009905D02*
X010850Y009505D01*
X010750Y009405D01*
X010550Y009405D01*
X010415Y009270D01*
X010415Y009005D01*
D22*
X010238Y009931D02*
X009776Y009931D01*
X009750Y009905D01*
X009750Y011905D02*
X010415Y011905D01*
X011078Y012705D02*
X011750Y012705D01*
X009650Y005205D02*
X004450Y005205D01*
X004350Y005305D01*
X004350Y006571D01*
X004378Y006599D01*
D23*
X004378Y007780D02*
X004050Y008109D01*
X004050Y010705D01*
X004054Y010709D01*
X004611Y010709D01*
X004611Y009942D02*
X004611Y009666D01*
X004550Y009605D01*
X005550Y007790D02*
X005559Y007780D01*
X005550Y007790D02*
X005550Y012605D01*
X005398Y012757D01*
X004611Y012757D01*
X004611Y013269D02*
X004611Y013366D01*
X004950Y013705D01*
X007850Y013705D01*
X007489Y011221D02*
X006366Y011221D01*
X006150Y011005D01*
X006150Y007190D01*
X005559Y006599D01*
X007489Y009942D02*
X008413Y009942D01*
X008550Y009805D01*
X008550Y007152D01*
X009103Y006599D01*
X009103Y007780D02*
X009150Y007828D01*
X009150Y010005D01*
X008957Y010198D01*
X007489Y010198D01*
X005150Y012205D02*
X005110Y012245D01*
X004611Y012245D01*
X010150Y014105D02*
X011145Y014105D01*
X011245Y013805D01*
X011050Y013405D02*
X011050Y013105D01*
X010750Y013105D01*
X010650Y012905D01*
X010650Y012733D01*
X010622Y012705D01*
X010650Y013405D02*
X010655Y013410D01*
X010655Y013805D01*
M02*
