%
M48
M72
T01C0.0140
T02C0.0402
T03C0.1181
%
T01
X4550Y9605
X5150Y12205
X7850Y13705
X9150Y14605
X10150Y14105
X11750Y12705
X11750Y11905
X11750Y11205
X11750Y10305
X11750Y9005
X9750Y9905
X9750Y11905
X9650Y5205
X550Y11705
T02
X3197Y7780
X3197Y6599
X4378Y6599
X4378Y7780
X5559Y7780
X5559Y6599
X6741Y6599
X6741Y7780
X7922Y7780
X7922Y6599
X9103Y6599
X9103Y7780
T03
X4048Y3241
X8252Y3241
M30
